<svg width="24" height="24" viewBox="0 0 24 24" fill="currentColors" xmlns="http://www.w3.org/2000/svg">
<path fill-rule="evenodd" clip-rule="evenodd" d="M8.13602 1.60248C8.35556 1.95373 8.24877 2.41645 7.89752 2.63598L3.8975 5.13598C3.54624 5.35551 3.08353 5.24873 2.864 4.89748C2.64447 4.54622 2.75125 4.08351 3.1025 3.86398L7.10253 1.36398C7.45378 1.14445 7.91649 1.25123 8.13602 1.60248ZM15.864 1.60248C16.0835 1.25123 16.5462 1.14445 16.8975 1.36398L20.8975 3.86398C21.2488 4.08351 21.3555 4.54623 21.136 4.89748C20.9165 5.24873 20.4538 5.35551 20.1025 5.13598L16.1025 2.63598C15.7512 2.41644 15.6445 1.95373 15.864 1.60248ZM12 4.74998C7.44365 4.74998 3.75 8.44363 3.75 13C3.75 17.5563 7.44365 21.25 12 21.25C16.5563 21.25 20.25 17.5563 20.25 13C20.25 8.44363 16.5563 4.74998 12 4.74998ZM2.25 13C2.25 7.6152 6.61522 3.24998 12 3.24998C17.3848 3.24998 21.75 7.6152 21.75 13C21.75 18.3848 17.3848 22.75 12 22.75C6.61522 22.75 2.25 18.3848 2.25 13ZM12.5727 9.09014C12.5923 9.10205 12.6119 9.11399 12.6316 9.12595C12.9188 9.30057 13.2022 9.48213 13.4571 9.66111C13.7473 9.8649 14.0567 10.1048 14.3617 10.3536C14.3771 10.3662 14.3925 10.3787 14.4078 10.3912C14.9056 10.7972 15.3532 11.1623 15.6659 11.5264C16.0204 11.9393 16.25 12.4033 16.25 13C16.25 13.5966 16.0204 14.0607 15.6659 14.4736C15.3532 14.8377 14.9057 15.2027 14.4078 15.6087L14.3617 15.6463C14.0567 15.8951 13.7473 16.1351 13.4571 16.3388C13.2022 16.5178 12.9188 16.6994 12.6316 16.874C12.6119 16.886 12.5923 16.8979 12.5727 16.9098C12.0879 17.2048 11.6298 17.4835 11.2289 17.6276C11.0061 17.7076 10.7505 17.7663 10.4754 17.7459C10.1864 17.7244 9.92767 17.6195 9.70216 17.4502C9.24308 17.1056 9.05869 16.6066 8.96253 16.1104C8.87092 15.6376 8.83573 15.0286 8.79462 14.317L8.79163 14.2654C8.76641 13.8293 8.75 13.3949 8.75 13C8.75 12.6051 8.76641 12.1707 8.79163 11.7345L8.79462 11.6829C8.83573 10.9713 8.87092 10.3624 8.96253 9.88959C9.05869 9.39337 9.24308 8.89439 9.70216 8.54977C9.92767 8.38048 10.1864 8.27555 10.4754 8.25407C10.7505 8.23362 11.0061 8.29236 11.2289 8.37241C11.6298 8.51642 12.0879 8.79513 12.5727 9.09014ZM10.6004 9.75112C10.5758 9.76993 10.5007 9.83651 10.4351 10.1749C10.365 10.5368 10.3341 11.0434 10.2891 11.8211C10.2649 12.2399 10.25 12.6435 10.25 13C10.25 13.3564 10.2649 13.7601 10.2891 14.1788C10.3341 14.9565 10.365 15.4632 10.4351 15.825C10.5007 16.1635 10.5758 16.23 10.6004 16.2488C10.6192 16.2464 10.6575 16.239 10.7218 16.2159C10.9612 16.1299 11.2865 15.9364 11.8523 15.5924C12.1215 15.4286 12.3755 15.2655 12.5951 15.1113C12.8458 14.9352 13.125 14.7194 13.4135 14.484C13.9722 14.0283 14.3127 13.7469 14.5279 13.4964C14.7108 13.2833 14.75 13.1532 14.75 13C14.75 12.8467 14.7108 12.7166 14.5279 12.5036C14.3127 12.253 13.9722 11.9717 13.4135 11.5159C13.125 11.2806 12.8458 11.0647 12.5951 10.8887C12.3755 10.7344 12.1215 10.5713 11.8523 10.4076C11.2865 10.0635 10.9612 9.87007 10.7218 9.78408C10.6575 9.76099 10.6192 9.75352 10.6004 9.75112Z" fill="currentColors"/>
</svg>
