<svg width="24" height="24" viewBox="0 0 24 24" fill="currentColors" xmlns="http://www.w3.org/2000/svg">
<path fill-rule="evenodd" clip-rule="evenodd" d="M7.89752 2.63598C8.24877 2.41645 8.35556 1.95373 8.13602 1.60248C7.91649 1.25123 7.45378 1.14445 7.10253 1.36398L3.1025 3.86398C2.75125 4.08351 2.64447 4.54622 2.864 4.89748C3.08353 5.24873 3.54624 5.35551 3.8975 5.13598L7.89752 2.63598ZM16.8975 1.36398C16.5462 1.14445 16.0835 1.25123 15.864 1.60248C15.6445 1.95373 15.7512 2.41644 16.1025 2.63598L20.1025 5.13598C20.4538 5.35551 20.9165 5.24873 21.136 4.89748C21.3555 4.54623 21.2488 4.08351 20.8975 3.86398L16.8975 1.36398ZM3.75 13C3.75 8.44363 7.44365 4.74998 12 4.74998C16.5563 4.74998 20.25 8.44363 20.25 13C20.25 17.5563 16.5563 21.25 12 21.25C7.44365 21.25 3.75 17.5563 3.75 13ZM12 3.24998C6.61522 3.24998 2.25 7.6152 2.25 13C2.25 18.3848 6.61522 22.75 12 22.75C17.3848 22.75 21.75 18.3848 21.75 13C21.75 7.6152 17.3848 3.24998 12 3.24998ZM9.52176 8.24998H9.47824C9.26396 8.24996 9.06712 8.24995 8.90179 8.26123C8.72415 8.27335 8.52881 8.30097 8.3303 8.38319C7.9015 8.5608 7.56083 8.90148 7.38321 9.33028C7.30099 9.52879 7.27338 9.72413 7.26125 9.90177C7.24997 10.0671 7.24999 10.2639 7.25 10.4782V15.5217C7.24999 15.736 7.24997 15.9329 7.26125 16.0982C7.27338 16.2758 7.30099 16.4712 7.38321 16.6697C7.56083 17.0985 7.90151 17.4392 8.3303 17.6168C8.52881 17.699 8.72415 17.7266 8.90179 17.7387C9.06712 17.75 9.26396 17.75 9.47824 17.75H9.52176C9.73604 17.75 9.93288 17.75 10.0982 17.7387C10.2759 17.7266 10.4712 17.699 10.6697 17.6168C11.0985 17.4392 11.4392 17.0985 11.6168 16.6697C11.699 16.4712 11.7266 16.2758 11.7387 16.0982C11.75 15.9329 11.75 15.736 11.75 15.5217V10.4782C11.75 10.2639 11.75 10.0671 11.7387 9.90177C11.7266 9.72413 11.699 9.52879 11.6168 9.33028C11.4392 8.90148 11.0985 8.5608 10.6697 8.38319C10.4712 8.30097 10.2759 8.27335 10.0982 8.26123C9.93288 8.24995 9.73604 8.24996 9.52176 8.24998ZM8.7703 9.90129C8.79558 9.84245 8.84248 9.79556 8.90131 9.77028C8.90867 9.76841 8.93707 9.76231 9.0039 9.75775C9.1119 9.75038 9.25677 9.74998 9.5 9.74998C9.74323 9.74998 9.8881 9.75038 9.9961 9.75775C10.0629 9.76231 10.0913 9.76842 10.0987 9.77028C10.1575 9.79556 10.2044 9.84245 10.2297 9.90129C10.2316 9.90864 10.2377 9.93704 10.2422 10.0039C10.2496 10.1119 10.25 10.2567 10.25 10.5V15.5C10.25 15.7432 10.2496 15.8881 10.2422 15.9961C10.2377 16.0629 10.2316 16.0913 10.2297 16.0987C10.2044 16.1575 10.1575 16.2044 10.0987 16.2297C10.0913 16.2315 10.0629 16.2376 9.9961 16.2422C9.8881 16.2496 9.74323 16.25 9.5 16.25C9.25677 16.25 9.1119 16.2496 9.0039 16.2422C8.93707 16.2376 8.90866 16.2315 8.90131 16.2297C8.84248 16.2044 8.79558 16.1575 8.7703 16.0987C8.76844 16.0913 8.76234 16.0629 8.75778 15.9961C8.75041 15.8881 8.75 15.7432 8.75 15.5V10.5C8.75 10.2567 8.75041 10.1119 8.75778 10.0039C8.76234 9.93704 8.76844 9.90864 8.7703 9.90129Z" fill="currentColors"/>
<path fill-rule="evenodd" clip-rule="evenodd" d="M14.5587 8.23888H14.5152C14.3009 8.23887 14.1041 8.23886 13.9387 8.25014C13.7611 8.26226 13.5658 8.28987 13.3673 8.37209C12.9385 8.54971 12.5978 8.89039 12.4202 9.31919C12.3379 9.51769 12.3103 9.71303 12.2982 9.89067C12.2869 10.056 12.2869 10.2528 12.287 10.4671V15.5106C12.2869 15.7249 12.2869 15.9218 12.2982 16.0871C12.3103 16.2647 12.3379 16.4601 12.4202 16.6586C12.5978 17.0874 12.9385 17.4281 13.3673 17.6057C13.5658 17.6879 13.7611 17.7155 13.9387 17.7276C14.1041 17.7389 14.3009 17.7389 14.5152 17.7389H14.5587C14.773 17.7389 14.9698 17.7389 15.1352 17.7276C15.3128 17.7155 15.5082 17.6879 15.7067 17.6057C16.1355 17.4281 16.4761 17.0874 16.6537 16.6586C16.736 16.4601 16.7636 16.2647 16.7757 16.0871C16.787 15.9218 16.787 15.7249 16.787 15.5106V10.4671C16.787 10.2528 16.787 10.056 16.7757 9.89067C16.7636 9.71303 16.736 9.51769 16.6537 9.31919C16.4761 8.89039 16.1355 8.54971 15.7067 8.37209C15.5082 8.28987 15.3128 8.26226 15.1352 8.25014C14.9698 8.23886 14.773 8.23887 14.5587 8.23888ZM13.9383 9.75919C13.8794 9.78446 13.8325 9.83136 13.8073 9.89019C13.8054 9.89755 13.7993 9.92595 13.7947 9.99278C13.7874 10.1008 13.787 10.2456 13.787 10.4889V15.4889C13.787 15.7321 13.7874 15.877 13.7947 15.985C13.7993 16.0518 13.8054 16.0802 13.8073 16.0876C13.8325 16.1464 13.8794 16.1933 13.9383 16.2186C13.9456 16.2204 13.974 16.2265 14.0409 16.2311C14.1489 16.2385 14.2937 16.2389 14.537 16.2389C14.7802 16.2389 14.9251 16.2385 15.0331 16.2311C15.0999 16.2265 15.1283 16.2204 15.1357 16.2186C15.1945 16.1933 15.2414 16.1464 15.2667 16.0876C15.2685 16.0802 15.2746 16.0518 15.2792 15.985C15.2866 15.877 15.287 15.7321 15.287 15.4889V10.4889C15.287 10.2456 15.2866 10.1008 15.2792 9.99278C15.2746 9.92594 15.2685 9.89754 15.2667 9.89019C15.2414 9.83136 15.1945 9.78446 15.1356 9.75919C15.1283 9.75732 15.0999 9.75122 15.0331 9.74666C14.9251 9.73929 14.7802 9.73888 14.537 9.73888C14.2937 9.73888 14.1489 9.73929 14.0409 9.74666C13.974 9.75122 13.9456 9.75732 13.9383 9.75919Z" fill="currentColors"/>
</svg>
