<svg width="24" height="24" viewBox="0 0 24 24" fill="currentColors" xmlns="http://www.w3.org/2000/svg">
<path fill-rule="evenodd" clip-rule="evenodd" d="M8.13602 1.60248C8.35556 1.95373 8.24877 2.41645 7.89752 2.63598L3.8975 5.13598C3.54624 5.35551 3.08353 5.24873 2.864 4.89748C2.64447 4.54622 2.75125 4.08351 3.1025 3.86398L7.10253 1.36398C7.45378 1.14445 7.91649 1.25123 8.13602 1.60248ZM15.864 1.60248C16.0835 1.25123 16.5462 1.14445 16.8975 1.36398L20.8975 3.86398C21.2488 4.08351 21.3555 4.54623 21.136 4.89748C20.9165 5.24873 20.4538 5.35551 20.1025 5.13598L16.1025 2.63598C15.7512 2.41644 15.6445 1.95373 15.864 1.60248ZM12 4.74998C7.44365 4.74998 3.75 8.44363 3.75 13C3.75 17.5563 7.44365 21.25 12 21.25C16.5563 21.25 20.25 17.5563 20.25 13C20.25 8.44363 16.5563 4.74998 12 4.74998ZM2.25 13C2.25 7.6152 6.61522 3.24998 12 3.24998C17.3848 3.24998 21.75 7.6152 21.75 13C21.75 18.3848 17.3848 22.75 12 22.75C6.61522 22.75 2.25 18.3848 2.25 13ZM9 10.75C8.58579 10.75 8.25 10.4142 8.25 9.99998C8.25 9.58576 8.58579 9.24998 9 9.24998H15C15.3033 9.24998 15.5768 9.43271 15.6929 9.71297C15.809 9.99322 15.7448 10.3158 15.5303 10.5303L10.8107 15.25H15C15.4142 15.25 15.75 15.5858 15.75 16C15.75 16.4142 15.4142 16.75 15 16.75H9C8.69665 16.75 8.42318 16.5672 8.30709 16.287C8.191 16.0067 8.25517 15.6841 8.46967 15.4696L13.1893 10.75H9Z" fill="currentColors"/>
</svg>
