<svg width="24" height="24" viewBox="0 0 24 24" fill="currentColors" xmlns="http://www.w3.org/2000/svg">
<path fill-rule="evenodd" clip-rule="evenodd" d="M11.9627 1.25H12.0373C13.1272 1.24999 13.9973 1.24999 14.6973 1.31505C15.4163 1.38189 16.0298 1.52229 16.5821 1.84933C17.2442 2.24135 17.7916 2.80379 18.1712 3.47825C18.4865 4.03833 18.6221 4.66002 18.6868 5.39256C18.75 6.10791 18.75 6.99812 18.75 8.11816V8.49849C19.0974 8.33917 19.4836 8.25 19.8947 8.25C21.5165 8.25 22.75 9.63751 22.75 11.2456V15.8571C22.75 15.8924 22.75 15.9272 22.75 15.9616C22.7501 16.924 22.7502 17.5289 22.6394 18.047C22.3 19.6331 21.2114 20.9345 19.75 21.4787V22C19.75 22.4142 19.4142 22.75 19 22.75C18.5858 22.75 18.25 22.4142 18.25 22V21.7416C17.9716 21.7502 17.6568 21.7501 17.2897 21.75C17.2532 21.75 17.2161 21.75 17.1786 21.75H6.82142C6.78384 21.75 6.74679 21.75 6.71026 21.75C5.82822 21.7502 5.24811 21.7503 4.74999 21.6313V22C4.74999 22.4142 4.4142 22.75 3.99999 22.75C3.58578 22.75 3.24999 22.4142 3.24999 22V21C3.24999 20.9837 3.25051 20.9675 3.25154 20.9514C2.30158 20.2819 1.61713 19.2458 1.36061 18.047C1.24975 17.5289 1.24984 16.924 1.24998 15.9616C1.24998 15.9272 1.24999 15.8924 1.24999 15.8571V11.2456C1.24999 9.63751 2.48347 8.25 4.10525 8.25C4.51637 8.25 4.90254 8.33917 5.24999 8.49849V8.11813C5.24998 6.99811 5.24998 6.1079 5.31319 5.39256C5.37792 4.66002 5.51345 4.03833 5.82873 3.47825C6.2084 2.80379 6.75582 2.24135 7.41785 1.84933C7.97015 1.52229 8.58368 1.38189 9.30268 1.31505C10.0027 1.24999 10.8728 1.24999 11.9627 1.25ZM6.7012 10C6.86832 10.3828 6.96052 10.806 6.96052 11.2456V15.5833H17.0395V11.2456C17.0395 10.806 17.1317 10.3828 17.2988 10H17.25V8.15385C17.25 6.99009 17.2493 6.16617 17.1926 5.5246C17.1368 4.89264 17.0311 4.51078 16.8641 4.21406C16.6118 3.76591 16.2504 3.39613 15.8178 3.14002C15.5348 2.97239 15.1698 2.86545 14.5585 2.80862C13.936 2.75076 13.1357 2.75 12 2.75C10.8643 2.75 10.064 2.75076 9.44152 2.80862C8.83014 2.86545 8.46522 2.97239 8.18213 3.14002C7.74962 3.39613 7.38813 3.76592 7.13586 4.21406C6.96883 4.51078 6.86321 4.89264 6.80737 5.5246C6.75067 6.16617 6.74999 6.99009 6.74999 8.15385V10H6.7012ZM4.10525 9.75C3.40162 9.75 2.74999 10.3733 2.74999 11.2456V15.8571C2.74999 16.9583 2.75418 17.3909 2.82741 17.7332C3.09228 18.971 3.98891 19.9022 5.09295 20.171C5.39544 20.2446 5.7817 20.25 6.82142 20.25H17.1786C18.2183 20.25 18.6045 20.2446 18.907 20.171C20.0111 19.9022 20.9077 18.971 21.1726 17.7332C21.2458 17.3909 21.25 16.9583 21.25 15.8571V11.2456C21.25 10.3733 20.5984 9.75 19.8947 9.75C19.1911 9.75 18.5395 10.3733 18.5395 11.2456V16.3333C18.5395 16.7475 18.2037 17.0833 17.7895 17.0833H6.21052C5.7963 17.0833 5.46052 16.7475 5.46052 16.3333V11.2456C5.46052 10.3733 4.80888 9.75 4.10525 9.75Z" fill="currentColors"/>
</svg>
