<svg width="24" height="24" viewBox="0 0 24 24" fill="currentColors" xmlns="http://www.w3.org/2000/svg">
<path fill-rule="evenodd" clip-rule="evenodd" d="M13.4616 4.04683C14.665 4.86925 15.8622 5.85943 17.0013 6.99857C18.1405 8.13773 19.1307 9.33494 19.9531 10.5384C20.6542 9.16096 21.0756 7.85665 21.2062 6.72508C21.3708 5.298 21.0676 4.24358 20.412 3.58796C19.7564 2.93235 18.702 2.62912 17.2749 2.79377C16.1433 2.92433 14.839 3.34576 13.4616 4.04683ZM20.8685 12.0001C21.8739 10.235 22.514 8.47673 22.6963 6.89701C22.8913 5.20664 22.5675 3.62215 21.4727 2.5273C20.3778 1.43246 18.7933 1.10862 17.103 1.30366C15.5233 1.48592 13.765 2.12603 11.9999 3.13142C10.2348 2.12609 8.47659 1.48603 6.89693 1.30379C5.2066 1.10878 3.62216 1.43262 2.52735 2.52744C1.43252 3.62227 1.10868 5.20674 1.3037 6.89709C1.48595 8.47678 2.12604 10.235 3.13139 12.0001C2.12612 13.7652 1.48609 15.5233 1.30388 17.103C1.10889 18.7933 1.43275 20.3777 2.52754 21.4725C3.62234 22.5673 5.20674 22.8911 6.89703 22.6961C8.47666 22.5139 10.2348 21.8739 11.9999 20.8686C13.765 21.8739 15.5232 22.514 17.1029 22.6963C18.7932 22.8913 20.3776 22.5674 21.4725 21.4726C22.5673 20.3778 22.8911 18.7934 22.6961 17.103C22.5139 15.5234 21.8738 13.7652 20.8685 12.0001ZM19.1193 12.0001C18.2823 10.675 17.2141 9.33261 15.9407 8.05923C14.6673 6.78587 13.325 5.71761 11.9999 4.88069C10.6749 5.71759 9.3326 6.7858 8.05932 8.05909C6.78589 9.33252 5.71759 10.6749 4.88065 12.0001C5.71756 13.3252 6.78579 14.6675 8.05912 15.9408C9.33247 17.2142 10.6748 18.2824 11.9999 19.1193C13.325 18.2824 14.6675 17.2141 15.9409 15.9407C17.2142 14.6674 18.2824 13.3251 19.1193 12.0001ZM13.4616 19.9532C14.6651 19.1307 15.8624 18.1405 17.0015 17.0013C18.1406 15.8623 19.1307 14.6652 19.9531 13.4618C20.6541 14.8392 21.0755 16.1435 21.206 17.275C21.3706 18.702 21.0674 19.7563 20.4118 20.4119C19.7562 21.0675 18.7018 21.3708 17.2748 21.2061C16.1433 21.0756 14.839 20.6542 13.4616 19.9532ZM10.5381 19.9532C9.33473 19.1308 8.13757 18.1406 6.99846 17.0015C5.85937 15.8624 4.86923 14.6653 4.04682 13.4619C3.34587 14.8392 2.92452 16.1434 2.794 17.2749C2.62938 18.7019 2.93262 19.7562 3.5882 20.4118C4.24379 21.0674 5.29815 21.3706 6.72514 21.206C7.85661 21.0755 9.1608 20.6541 10.5381 19.9532ZM4.04679 10.5384C4.86924 9.33488 5.85946 8.13763 6.99866 6.99843C8.13772 5.85936 9.33482 4.86924 10.5382 4.04685C9.16079 3.34583 7.85653 2.92444 6.72502 2.7939C5.29799 2.62927 4.24361 2.9325 3.58801 3.5881C2.9324 4.24371 2.62917 5.29811 2.79381 6.72517C2.92436 7.8567 3.34577 9.16097 4.04679 10.5384ZM12 10.25C11.0335 10.25 10.25 11.0335 10.25 12C10.25 12.9665 11.0335 13.75 12 13.75C12.9665 13.75 13.75 12.9665 13.75 12C13.75 11.0335 12.9665 10.25 12 10.25ZM8.75 12C8.75 10.205 10.2051 8.74995 12 8.74995C13.7949 8.74995 15.25 10.205 15.25 12C15.25 13.7949 13.7949 15.25 12 15.25C10.2051 15.25 8.75 13.7949 8.75 12Z" fill="currentColors"/>
</svg>
