<svg width="24" height="24" viewBox="0 0 24 24" fill="currentColors" xmlns="http://www.w3.org/2000/svg">
<path fill-rule="evenodd" clip-rule="evenodd" d="M14.9362 2.99461C12.9929 2.66846 11.0071 2.66846 9.06377 2.99461L8.66621 3.06134C6.80892 3.37306 5.55273 5.04814 5.77579 6.84512L5.79381 6.99034C5.81067 7.12617 5.93459 7.25 6.10719 7.25H8.98405C8.99416 7.24979 9.0043 7.24979 9.01447 7.25H14.9855C14.9957 7.24979 15.0058 7.24979 15.0159 7.25H17.8928C18.0654 7.25 18.1893 7.12616 18.2062 6.99034L18.2242 6.84512L18.9685 6.93751L18.2242 6.84512C18.4473 5.04814 17.1911 3.37306 15.3338 3.06134L14.9362 2.99461ZM15.9277 8.75H17.8928C18.7976 8.75 19.5816 8.08644 19.6948 7.17512L18.9505 7.08273L19.6948 7.17511L19.7128 7.0299C20.0381 4.409 18.2051 2.02226 15.5821 1.58203L15.1845 1.5153C13.0768 1.16157 10.9231 1.16157 8.81549 1.5153L8.41793 1.58203C5.79491 2.02226 3.96188 4.40901 4.28721 7.0299L4.30524 7.17512C4.41836 8.08644 5.20235 8.75 6.10719 8.75H8.07226L6.40118 16.5484C6.30628 16.674 6.25 16.8304 6.25 17C6.25 17.0574 6.25644 17.1132 6.26864 17.1669L5.26665 21.8429C5.17986 22.2479 5.43783 22.6466 5.84285 22.7334C6.24787 22.8201 6.64656 22.5622 6.73335 22.1571L7.67774 17.75H16.3223L17.2666 22.1571C17.3534 22.5622 17.7521 22.8201 18.1571 22.7334C18.5622 22.6466 18.8201 22.2479 18.7333 21.8429L17.7314 17.1669C17.7436 17.1132 17.75 17.0574 17.75 17C17.75 16.8304 17.6937 16.674 17.5988 16.5484L15.9277 8.75ZM14.3937 8.75H9.60631L7.99917 16.25H16.0008L14.3937 8.75Z" fill="currentColors"/>
</svg>
