<svg width="24" height="24" viewBox="0 0 24 24" fill="currentColors" xmlns="http://www.w3.org/2000/svg">
<path fill-rule="evenodd" clip-rule="evenodd" d="M7.09872 1.24992C7.14677 1.24994 7.19553 1.24996 7.24502 1.24996H16.755C16.8045 1.24996 16.8532 1.24994 16.9013 1.24992C17.918 1.24947 18.6178 1.24917 19.2071 1.45422C20.3201 1.84149 21.1842 2.73714 21.5546 3.86546L20.8421 4.09942L21.5546 3.86546C21.7507 4.46258 21.7504 5.17242 21.75 6.22642C21.75 6.27359 21.75 6.32145 21.75 6.37002V20.3742C21.75 21.8394 20.023 22.7117 18.8856 21.6709C18.8061 21.5981 18.6939 21.5981 18.6144 21.6709L18.1313 22.1129C17.2031 22.9623 15.7969 22.9623 14.8687 22.1129C14.5137 21.7881 13.9863 21.7881 13.6313 22.1129C12.7031 22.9623 11.2969 22.9623 10.3687 22.1129C10.0137 21.7881 9.48631 21.7881 9.13132 22.1129C8.20313 22.9623 6.79688 22.9623 5.86869 22.1129L5.3856 21.6709C5.30612 21.5981 5.19389 21.5981 5.11442 21.6709C3.97699 22.7117 2.25001 21.8394 2.25001 20.3742V6.37002C2.25001 6.32145 2.24999 6.2736 2.24997 6.22643C2.24959 5.17242 2.24933 4.46259 2.44539 3.86546C2.81585 2.73714 3.67996 1.84149 4.79292 1.45422C5.38224 1.24917 6.08197 1.24947 7.09872 1.24992ZM7.24502 2.74996C6.02394 2.74996 5.60334 2.76045 5.28587 2.87091C4.62649 3.10035 4.09913 3.63716 3.87054 4.33338C3.75945 4.67171 3.75001 5.11784 3.75001 6.37002V20.3742C3.75001 20.4932 3.80993 20.566 3.88511 20.6007C3.92427 20.6189 3.96258 20.6235 3.99449 20.6193C4.02263 20.6155 4.05904 20.6034 4.10179 20.5643C4.75447 19.967 5.74555 19.967 6.39822 20.5643L6.88132 21.0063C7.23631 21.3312 7.76371 21.3312 8.11869 21.0063C9.04688 20.157 10.4531 20.157 11.3813 21.0063C11.7363 21.3312 12.2637 21.3312 12.6187 21.0063C13.5469 20.157 14.9531 20.157 15.8813 21.0063C16.2363 21.3312 16.7637 21.3312 17.1187 21.0063L17.6018 20.5643C18.2545 19.967 19.2455 19.967 19.8982 20.5643C19.941 20.6034 19.9774 20.6155 20.0055 20.6193C20.0374 20.6235 20.0757 20.6189 20.1149 20.6007C20.1901 20.566 20.25 20.4932 20.25 20.3742V6.37002C20.25 5.11784 20.2406 4.67171 20.1295 4.33338C19.9009 3.63716 19.3735 3.10035 18.7141 2.87091C18.3967 2.76045 17.9761 2.74996 16.755 2.74996H7.24502ZM14.9995 7.44051C15.3085 7.71638 15.3353 8.1905 15.0595 8.49947L11.488 12.4995C11.3457 12.6588 11.1422 12.75 10.9286 12.75C10.7149 12.75 10.5114 12.6588 10.3691 12.4995L8.94055 10.8995C8.66468 10.5905 8.69152 10.1164 9.00049 9.84051C9.30947 9.56463 9.78359 9.59147 10.0595 9.90045L10.9286 10.8739L13.9406 7.50045C14.2164 7.19147 14.6905 7.16463 14.9995 7.44051ZM6.75001 15.5C6.75001 15.0857 7.08579 14.75 7.50001 14.75H16.5C16.9142 14.75 17.25 15.0857 17.25 15.5C17.25 15.9142 16.9142 16.25 16.5 16.25H7.50001C7.08579 16.25 6.75001 15.9142 6.75001 15.5Z" fill="currentColors"/>
</svg>
