<svg width="24" height="24" viewBox="0 0 24 24" fill="currentColors" xmlns="http://www.w3.org/2000/svg">
<path fill-rule="evenodd" clip-rule="evenodd" d="M8.12673 3.56042C7.76931 3.24272 7.23069 3.24272 6.87327 3.56042C5.98775 4.34755 4.67284 4.38176 3.75 3.66304V20.3369C4.67284 19.6181 5.98775 19.6524 6.87327 20.4395C7.23069 20.7572 7.76931 20.7572 8.12673 20.4395C9.05248 19.6166 10.4475 19.6166 11.3733 20.4395C11.7307 20.7572 12.2693 20.7572 12.6267 20.4395C13.5525 19.6166 14.9475 19.6166 15.8733 20.4395C16.2307 20.7572 16.7693 20.7572 17.1267 20.4395C18.0122 19.6524 19.3272 19.6181 20.25 20.3369V3.66304C19.3272 4.38176 18.0122 4.34755 17.1267 3.56042C16.7693 3.24272 16.2307 3.24272 15.8733 3.56042C14.9475 4.38331 13.5525 4.38331 12.6267 3.56042C12.2693 3.24272 11.7307 3.24272 11.3733 3.56042C10.4475 4.38331 9.05248 4.38331 8.12673 3.56042ZM5.87673 2.43931C6.80248 1.61642 8.19752 1.61642 9.12327 2.43931C9.48069 2.75702 10.0193 2.75702 10.3767 2.43931C11.3025 1.61642 12.6975 1.61642 13.6233 2.43931C13.9807 2.75702 14.5193 2.75702 14.8767 2.43931C15.8025 1.61642 17.1975 1.61642 18.1233 2.43931C18.4807 2.75702 19.0193 2.75702 19.3767 2.43931C20.2963 1.6219 21.75 2.2747 21.75 3.50507V20.4948C21.75 21.7252 20.2963 22.378 19.3767 21.5606C19.0193 21.2429 18.4807 21.2429 18.1233 21.5606C17.1975 22.3835 15.8025 22.3835 14.8767 21.5606C14.5193 21.2429 13.9807 21.2429 13.6233 21.5606C12.6975 22.3835 11.3025 22.3835 10.3767 21.5606C10.0193 21.2429 9.48069 21.2429 9.12327 21.5606C8.19752 22.3835 6.80248 22.3835 5.87673 21.5606C5.51931 21.2429 4.98069 21.2429 4.62327 21.5606C3.70369 22.378 2.25 21.7252 2.25 20.4948V3.50507C2.25 2.2747 3.70369 1.6219 4.62327 2.43931C4.98069 2.75702 5.51931 2.75702 5.87673 2.43931ZM6.75 8.50004C6.75 8.08583 7.08579 7.75004 7.5 7.75004H16.5C16.9142 7.75004 17.25 8.08583 17.25 8.50004C17.25 8.91426 16.9142 9.25004 16.5 9.25004H7.5C7.08579 9.25004 6.75 8.91426 6.75 8.50004ZM6.75 12C6.75 11.5858 7.08579 11.25 7.5 11.25H16.5C16.9142 11.25 17.25 11.5858 17.25 12C17.25 12.4143 16.9142 12.75 16.5 12.75H7.5C7.08579 12.75 6.75 12.4143 6.75 12ZM6.75 15.5C6.75 15.0858 7.08579 14.75 7.5 14.75H16.5C16.9142 14.75 17.25 15.0858 17.25 15.5C17.25 15.9143 16.9142 16.25 16.5 16.25H7.5C7.08579 16.25 6.75 15.9143 6.75 15.5Z" fill="currentColors"/>
</svg>
