<svg width="24" height="24" viewBox="0 0 24 24" fill="currentColors" xmlns="http://www.w3.org/2000/svg">
<path fill-rule="evenodd" clip-rule="evenodd" d="M7.09872 1.24992C7.14677 1.24994 7.19553 1.24996 7.24502 1.24996H16.755C16.8045 1.24996 16.8532 1.24994 16.9013 1.24992C17.918 1.24947 18.6178 1.24917 19.2071 1.45422C20.3201 1.84149 21.1842 2.73714 21.5546 3.86546L20.8421 4.09942L21.5546 3.86546C21.7507 4.46258 21.7504 5.17242 21.75 6.22642C21.75 6.27359 21.75 6.32145 21.75 6.37002V20.3742C21.75 21.8394 20.023 22.7117 18.8856 21.6709C18.8061 21.5981 18.6939 21.5981 18.6144 21.6709L18.1313 22.1129C17.2031 22.9623 15.7969 22.9623 14.8687 22.1129C14.5137 21.7881 13.9863 21.7881 13.6313 22.1129C12.7031 22.9623 11.2969 22.9623 10.3687 22.1129C10.0137 21.7881 9.48631 21.7881 9.13132 22.1129C8.20313 22.9623 6.79688 22.9623 5.86869 22.1129L5.3856 21.6709C5.30612 21.5981 5.19389 21.5981 5.11442 21.6709C3.97699 22.7117 2.25001 21.8394 2.25001 20.3742V6.37002C2.25001 6.32145 2.24999 6.2736 2.24997 6.22643C2.24959 5.17242 2.24933 4.46259 2.44539 3.86546C2.81585 2.73714 3.67996 1.84149 4.79292 1.45422C5.38224 1.24917 6.08197 1.24947 7.09872 1.24992ZM7.24502 2.74996C6.02394 2.74996 5.60334 2.76045 5.28587 2.87091C4.62649 3.10035 4.09913 3.63716 3.87054 4.33338C3.75945 4.67171 3.75001 5.11784 3.75001 6.37002V20.3742C3.75001 20.4932 3.80993 20.566 3.88511 20.6007C3.92427 20.6189 3.96258 20.6235 3.99449 20.6193C4.02263 20.6155 4.05904 20.6034 4.10179 20.5643C4.75447 19.967 5.74555 19.967 6.39822 20.5643L6.88132 21.0063C7.23631 21.3312 7.76371 21.3312 8.11869 21.0063C9.04688 20.157 10.4531 20.157 11.3813 21.0063C11.7363 21.3312 12.2637 21.3312 12.6187 21.0063C13.5469 20.157 14.9531 20.157 15.8813 21.0063C16.2363 21.3312 16.7637 21.3312 17.1187 21.0063L17.6018 20.5643C18.2545 19.967 19.2455 19.967 19.8982 20.5643C19.941 20.6034 19.9774 20.6155 20.0055 20.6193C20.0374 20.6235 20.0757 20.6189 20.1149 20.6007C20.1901 20.566 20.25 20.4932 20.25 20.3742V6.37002C20.25 5.11784 20.2406 4.67171 20.1295 4.33338C19.9009 3.63716 19.3735 3.10035 18.7141 2.87091C18.3967 2.76045 17.9761 2.74996 16.755 2.74996H7.24502ZM6.25001 7.49996C6.25001 7.08575 6.58579 6.74996 7.00001 6.74996H7.50001C7.91422 6.74996 8.25001 7.08575 8.25001 7.49996C8.25001 7.91417 7.91422 8.24996 7.50001 8.24996H7.00001C6.58579 8.24996 6.25001 7.91417 6.25001 7.49996ZM9.75001 7.49996C9.75001 7.08575 10.0858 6.74996 10.5 6.74996H17C17.4142 6.74996 17.75 7.08575 17.75 7.49996C17.75 7.91417 17.4142 8.24996 17 8.24996H10.5C10.0858 8.24996 9.75001 7.91417 9.75001 7.49996ZM6.25001 11C6.25001 10.5857 6.58579 10.25 7.00001 10.25H7.50001C7.91422 10.25 8.25001 10.5857 8.25001 11C8.25001 11.4142 7.91422 11.75 7.50001 11.75H7.00001C6.58579 11.75 6.25001 11.4142 6.25001 11ZM9.75001 11C9.75001 10.5857 10.0858 10.25 10.5 10.25H17C17.4142 10.25 17.75 10.5857 17.75 11C17.75 11.4142 17.4142 11.75 17 11.75H10.5C10.0858 11.75 9.75001 11.4142 9.75001 11ZM6.25001 14.5C6.25001 14.0857 6.58579 13.75 7.00001 13.75H7.50001C7.91422 13.75 8.25001 14.0857 8.25001 14.5C8.25001 14.9142 7.91422 15.25 7.50001 15.25H7.00001C6.58579 15.25 6.25001 14.9142 6.25001 14.5ZM9.75001 14.5C9.75001 14.0857 10.0858 13.75 10.5 13.75H17C17.4142 13.75 17.75 14.0857 17.75 14.5C17.75 14.9142 17.4142 15.25 17 15.25H10.5C10.0858 15.25 9.75001 14.9142 9.75001 14.5Z" fill="currentColors"/>
</svg>
