<svg width="24" height="24" viewBox="0 0 24 24" fill="currentColors" xmlns="http://www.w3.org/2000/svg">
<path fill-rule="evenodd" clip-rule="evenodd" d="M7.84648 2.16714C8.13938 2.46003 8.13938 2.93491 7.84648 3.2278C7.60856 3.46573 7.40262 3.70878 7.22564 3.955C6.98387 4.29133 6.51522 4.36799 6.17889 4.12622C5.84255 3.88445 5.76589 3.41581 6.00766 3.07947C6.23363 2.76512 6.49256 2.46041 6.78582 2.16714C7.07872 1.87425 7.55359 1.87425 7.84648 2.16714ZM18.5233 6.28197C17.913 6.12828 17.2861 6.09869 16.6613 6.17315C16.25 6.22217 15.8769 5.92848 15.8278 5.51718C15.7788 5.10588 16.0725 4.73271 16.4838 4.68369C17.2729 4.58965 18.0853 4.62485 18.8896 4.82738C19.2913 4.92853 19.5349 5.33615 19.4338 5.73782C19.3326 6.13949 18.925 6.38312 18.5233 6.28197ZM5.89375 4.7219C6.29542 4.82304 6.53905 5.23066 6.4379 5.63234C6.28421 6.24265 6.25462 6.86954 6.32908 7.49432C6.3781 7.90562 6.08441 8.27879 5.67311 8.32781C5.2618 8.37683 4.88864 8.08314 4.83962 7.67183C4.74558 6.88273 4.78077 6.07035 4.98331 5.26605C5.08446 4.86437 5.49207 4.62075 5.89375 4.7219ZM15.1961 5.70216C15.363 6.08126 15.1909 6.52388 14.8118 6.69077C14.213 6.95436 13.6457 7.29966 13.1347 7.70023C12.8088 7.9558 12.3373 7.89873 12.0818 7.57276C11.8262 7.24678 11.8833 6.77535 12.2092 6.51978C12.8135 6.04602 13.4881 5.63459 14.2075 5.31791C14.5866 5.15102 15.0292 5.32305 15.1961 5.70216ZM20.0294 6.02296C20.2712 5.68662 20.7398 5.60996 21.0762 5.85173C21.3905 6.0777 21.6952 6.33663 21.9885 6.6299C22.2814 6.92279 22.2814 7.39766 21.9885 7.69056C21.6956 7.98345 21.2207 7.98345 20.9278 7.69056C20.6899 7.45263 20.4469 7.24669 20.2007 7.06971C19.8643 6.82794 19.7877 6.35929 20.0294 6.02296ZM11.616 8.03571C11.9467 8.28512 12.0126 8.7554 11.7632 9.0861C11.698 9.17252 11.6359 9.25928 11.5769 9.34621C11.8463 9.36847 12.0945 9.5361 12.2068 9.80249C12.3677 10.1842 12.1888 10.624 11.8071 10.785C11.5827 10.8796 11.3657 11.0223 11.1617 11.2263C10.8896 11.4984 10.4605 11.5177 10.1661 11.2842C10.104 11.2828 10.0412 11.2736 9.97868 11.256C9.58005 11.1434 9.34816 10.729 9.46073 10.3304C9.67161 9.58363 10.0605 8.85263 10.5656 8.18291C10.815 7.8522 11.2853 7.7863 11.616 8.03571ZM5.85808 8.95958C6.23719 8.79269 6.67981 8.96473 6.8467 9.34383C7.11029 9.9426 7.45559 10.51 7.85615 11.0209C8.11172 11.3469 8.05465 11.8183 7.72868 12.0739C7.40271 12.3294 6.93128 12.2724 6.67571 11.9464C6.20195 11.3421 5.79051 10.6676 5.47384 9.94819C5.30695 9.56909 5.47898 9.12647 5.85808 8.95958ZM12.8996 9.82302C13.0122 9.4244 13.4266 9.19251 13.8252 9.30508C14.572 9.51596 15.303 9.90483 15.9727 10.4099C16.3034 10.6593 16.3693 11.1296 16.1199 11.4603C15.8705 11.791 15.4002 11.8569 15.0695 11.6075C14.9832 11.5424 14.8965 11.4803 14.8097 11.4214C14.7874 11.6908 14.6197 11.9389 14.3534 12.0512C13.9717 12.2121 13.5318 12.0332 13.3709 11.6515C13.2763 11.4271 13.1336 11.2101 12.9296 11.0061C12.6576 10.7342 12.6382 10.3052 12.8714 10.0109C12.8727 9.94868 12.8819 9.88565 12.8996 9.82302ZM16.5828 11.9261C16.9088 11.6705 17.3802 11.7276 17.6358 12.0536C18.1096 12.6579 18.521 13.3324 18.8377 14.0518C19.0046 14.4309 18.8325 14.8735 18.4534 15.0404C18.0743 15.2073 17.6317 15.0353 17.4648 14.6562C17.2012 14.0574 16.8559 13.49 16.4554 12.9791C16.1998 12.6531 16.2569 12.1817 16.5828 11.9261ZM9.95815 11.9488C10.3398 11.7879 10.7797 11.9668 10.9406 12.3485C11.0352 12.5729 11.1779 12.7899 11.3819 12.9939C11.6539 13.2658 11.6733 13.6948 11.4402 13.9891C11.4388 14.0513 11.4296 14.1143 11.4119 14.177C11.2993 14.5756 10.8849 14.8075 10.4863 14.6949C9.73956 14.484 9.00855 14.0952 8.33883 13.5901C8.00813 13.3407 7.94222 12.8704 8.19163 12.5397C8.44104 12.209 8.91132 12.1431 9.24203 12.3925C9.32836 12.4576 9.41503 12.5197 9.50187 12.5786C9.52417 12.3092 9.6918 12.0611 9.95815 11.9488ZM14.1454 12.7158C13.851 12.4823 13.4219 12.5016 13.1498 12.7737C12.9458 12.9777 12.7288 13.1204 12.5044 13.215C12.1227 13.376 11.9438 13.8158 12.1047 14.1975C12.217 14.4639 12.4652 14.6315 12.7347 14.6538C12.6757 14.7407 12.6135 14.8275 12.5484 14.9139C12.299 15.2446 12.3649 15.7149 12.6956 15.9643C13.0263 16.2137 13.4965 16.1478 13.746 15.8171C14.251 15.1474 14.6399 14.4164 14.8508 13.6696C14.9634 13.271 14.7315 12.8566 14.3328 12.744C14.2704 12.7264 14.2075 12.7172 14.1454 12.7158ZM18.6384 15.6722C19.0497 15.6232 19.4229 15.9169 19.4719 16.3282C19.5659 17.1173 19.5307 17.9296 19.3282 18.734C19.2271 19.1356 18.8194 19.3792 18.4178 19.2781C18.0161 19.177 17.7725 18.7693 17.8736 18.3677C18.0273 17.7573 18.0569 17.1305 17.9824 16.5057C17.9334 16.0944 18.2271 15.7212 18.6384 15.6722ZM2.32301 16.3094C2.61591 16.0165 3.09078 16.0165 3.38367 16.3094C3.6216 16.5474 3.86465 16.7533 4.11087 16.9303C4.4472 17.1721 4.52386 17.6407 4.28209 17.977C4.04033 18.3134 3.57168 18.39 3.23535 18.1483C2.92099 17.9223 2.61628 17.6634 2.32301 17.3701C2.03012 17.0772 2.03012 16.6023 2.32301 16.3094ZM12.2298 16.4272C12.4853 16.7532 12.4282 17.2246 12.1023 17.4802C11.498 17.954 10.8234 18.3654 10.1041 18.6821C9.72496 18.849 9.28235 18.6769 9.11546 18.2978C8.94856 17.9187 9.1206 17.4761 9.4997 17.3092C10.0985 17.0456 10.6659 16.7003 11.1768 16.2998C11.5027 16.0442 11.9742 16.1013 12.2298 16.4272ZM4.87777 18.2622C4.97892 17.8605 5.38653 17.6169 5.78821 17.718C6.39853 17.8717 7.02541 17.9013 7.65019 17.8268C8.0615 17.7778 8.43466 18.0715 8.48368 18.4828C8.5327 18.8941 8.23901 19.2673 7.82771 19.3163C7.0386 19.4104 6.22622 19.3752 5.42192 19.1726C5.02025 19.0715 4.77662 18.6639 4.87777 18.2622ZM18.1326 19.8738C18.469 20.1155 18.5456 20.5842 18.3039 20.9205C18.0779 21.2349 17.819 21.5396 17.5257 21.8329C17.2328 22.1258 16.7579 22.1258 16.465 21.8329C16.1721 21.54 16.1721 21.0651 16.465 20.7722C16.703 20.5343 16.9089 20.2912 17.0859 20.045C17.3277 19.7087 17.7963 19.632 18.1326 19.8738Z" fill="currentColors"/>
<path fill-rule="evenodd" clip-rule="evenodd" d="M10.7264 12.4987C11.146 12.9902 11.6784 13.25 12.3115 13.25C12.4623 13.25 12.6027 13.2945 12.7203 13.3711C13.0679 12.9894 13.25 12.53 13.25 12C13.25 11.7694 13.3541 11.5631 13.5178 11.4255C13.1091 10.9831 12.5997 10.75 12 10.75C11.8564 10.75 11.7223 10.7097 11.6083 10.6397C11.0476 11.0717 10.75 11.634 10.75 12.3115C10.75 12.3762 10.7418 12.4389 10.7264 12.4987ZM9.83837 10.3528C9.72613 9.6583 9.71808 8.88892 9.82911 8.1052C10.2245 5.31415 12.0274 2.75 15.3115 2.75C15.7257 2.75 16.0615 2.41421 16.0615 2C16.0615 1.58579 15.7257 1.25 15.3115 1.25C10.9957 1.25 8.79854 4.68585 8.34394 7.8948C8.11552 9.50716 8.30132 11.1645 8.92762 12.4529C9.3338 13.2885 9.9443 13.9944 10.7532 14.395C9.96022 14.5776 9.04298 14.6153 8.1052 14.4824C5.31415 14.087 2.75 12.2842 2.75 9C2.75 8.58579 2.41421 8.25 2 8.25C1.58579 8.25 1.25 8.58579 1.25 9C1.25 13.3158 4.68585 15.513 7.8948 15.9676C9.50716 16.196 11.1645 16.0102 12.4529 15.3839C13.3211 14.9619 14.0493 14.3192 14.4405 13.4626C14.583 14.2041 14.6034 15.041 14.4824 15.8948C14.087 18.6858 12.2842 21.25 9 21.25C8.58579 21.25 8.25 21.5858 8.25 22C8.25 22.4142 8.58579 22.75 9 22.75C13.3158 22.75 15.513 19.3142 15.9676 16.1052C16.196 14.4928 16.0102 12.8355 15.3839 11.5471C15.0377 10.835 14.5432 10.2171 13.9039 9.80205C14.5291 9.72593 15.2064 9.73159 15.8948 9.82911C18.6858 10.2245 21.25 12.0274 21.25 15.3115C21.25 15.7257 21.5858 16.0615 22 16.0615C22.4142 16.0615 22.75 15.7257 22.75 15.3115C22.75 10.9957 19.3142 8.79854 16.1052 8.34394C14.4928 8.11552 12.8355 8.30132 11.5471 8.92762C10.8555 9.26381 10.2527 9.73999 9.83837 10.3528Z" fill="currentColors"/>
</svg>
