<svg width="24" height="24" viewBox="0 0 24 24" fill="currentColors" xmlns="http://www.w3.org/2000/svg">
<path fill-rule="evenodd" clip-rule="evenodd" d="M8.00615 2.46979C8.29904 2.76269 8.29904 3.23756 8.00615 3.53045C7.76746 3.76914 7.56085 4.01299 7.38328 4.26001C7.14152 4.59634 6.67287 4.67301 6.33654 4.43124C6.0002 4.18947 5.92354 3.72082 6.16531 3.38449C6.39186 3.06933 6.65146 2.76383 6.94549 2.46979C7.23838 2.1769 7.71326 2.1769 8.00615 2.46979ZM18.0571 6.593C17.4448 6.4388 16.8158 6.40911 16.189 6.48381C15.7777 6.53283 15.4045 6.23914 15.3555 5.82784C15.3065 5.41654 15.6002 5.04337 16.0115 4.99435C16.8026 4.90007 17.6171 4.93536 18.4234 5.13841C18.8251 5.23955 19.0687 5.64717 18.9676 6.04885C18.8664 6.45052 18.4588 6.69414 18.0571 6.593ZM6.04878 5.03248C6.45046 5.13363 6.69408 5.54125 6.59294 5.94292C6.43873 6.55528 6.40905 7.18424 6.48375 7.81106C6.53277 8.22236 6.23908 8.59553 5.82778 8.64455C5.41648 8.69357 5.04331 8.39988 4.99429 7.98857C4.9 7.19743 4.9353 6.38297 5.13835 5.57663C5.23949 5.17496 5.64711 4.93134 6.04878 5.03248ZM14.7178 6.01448C14.8847 6.39358 14.7126 6.8362 14.3335 7.00309C13.7328 7.26752 13.1637 7.61391 12.6511 8.01574C12.3252 8.27131 11.8537 8.21424 11.5982 7.88827C11.3426 7.5623 11.3997 7.09086 11.7256 6.83529C12.3315 6.36027 13.0079 5.94775 13.7292 5.63023C14.1083 5.46334 14.5509 5.63538 14.7178 6.01448ZM19.5688 6.3366C19.8106 6.00026 20.2792 5.9236 20.6155 6.16537C20.9307 6.39192 21.2362 6.65152 21.5302 6.94555C21.8231 7.23844 21.8231 7.71332 21.5302 8.00621C21.2374 8.2991 20.7625 8.2991 20.4696 8.00621C20.2309 7.76752 19.987 7.56091 19.74 7.38334C19.4037 7.14158 19.327 6.67293 19.5688 6.3366ZM11.4097 9.1129C11.4693 8.83615 11.3689 8.53729 11.128 8.35561C10.7973 8.1062 10.327 8.17211 10.0776 8.50281C9.5712 9.1743 9.18136 9.90717 8.96995 10.6558C8.87695 10.9851 9.01905 11.3252 9.29604 11.497C9.26577 11.6604 9.24999 11.8286 9.24999 12.0001C9.24999 12.1341 9.25963 12.2661 9.27828 12.3953C9.21153 12.451 9.15589 12.5172 9.11283 12.5904C8.83608 12.5307 8.53722 12.6311 8.35555 12.872C8.10614 13.2027 8.17204 13.673 8.50275 13.9224C9.17423 14.4288 9.9071 14.8187 10.6557 15.0301C10.985 15.1231 11.3251 14.981 11.4969 14.704C11.6603 14.7343 11.8285 14.7501 12 14.7501C12.134 14.7501 12.266 14.7404 12.3953 14.7218C12.4509 14.7885 12.5171 14.8442 12.5903 14.8872C12.5307 15.164 12.6311 15.4628 12.872 15.6445C13.2027 15.8939 13.6729 15.828 13.9224 15.4973C14.4288 14.8258 14.8186 14.0929 15.03 13.3443C15.123 13.015 14.9809 12.6749 14.7039 12.5032C14.7342 12.3397 14.75 12.1715 14.75 12.0001C14.75 11.866 14.7404 11.734 14.7217 11.6048C14.7884 11.5491 14.8441 11.4829 14.8871 11.4097C15.1639 11.4694 15.4628 11.369 15.6444 11.1281C15.8938 10.7974 15.8279 10.3271 15.4972 10.0777C14.8257 9.57127 14.0929 9.18142 13.3443 8.97001C13.0149 8.87702 12.6749 9.01912 12.5031 9.2961C12.3397 9.26584 12.1715 9.25005 12 9.25005C11.866 9.25005 11.734 9.25969 11.6047 9.27834C11.5491 9.2116 11.4828 9.15596 11.4097 9.1129ZM13.1958 10.7662C12.9929 10.9081 12.724 10.9465 12.4783 10.8446C12.3319 10.7839 12.1709 10.7501 12 10.7501C11.8291 10.7501 11.668 10.7839 11.5217 10.8446C11.2772 10.946 11.0099 10.9085 10.8073 10.7684C10.7935 10.7801 10.7798 10.792 10.7662 10.8042C10.908 11.0072 10.9464 11.2761 10.8445 11.5218C10.7839 11.6681 10.75 11.8292 10.75 12.0001C10.75 12.1709 10.7839 12.332 10.8445 12.4783C10.9459 12.7228 10.9084 12.9902 10.7683 13.1928C10.78 13.2065 10.792 13.2202 10.8041 13.2339C11.0071 13.092 11.276 13.0536 11.5217 13.1555C11.668 13.2162 11.8291 13.2501 12 13.2501C12.1709 13.2501 12.3319 13.2162 12.4783 13.1555C12.7227 13.0541 12.9901 13.0916 13.1927 13.2317C13.2065 13.22 13.2202 13.2081 13.2338 13.1959C13.092 12.9929 13.0535 12.724 13.1554 12.4783C13.2161 12.332 13.25 12.1709 13.25 12.0001C13.25 11.8292 13.2161 11.6681 13.1554 11.5218C13.0541 11.2773 13.0916 11.0099 13.2317 10.8073C13.22 10.7936 13.208 10.7799 13.1958 10.7662ZM6.01442 9.28227C6.39352 9.11538 6.83614 9.28742 7.00303 9.66652C7.26746 10.2672 7.61385 10.8364 8.01568 11.3489C8.27125 11.6749 8.21417 12.1463 7.8882 12.4019C7.56223 12.6574 7.0908 12.6004 6.83523 12.2744C6.36021 11.6685 5.94768 10.9921 5.63017 10.2709C5.46328 9.89178 5.63531 9.44916 6.01442 9.28227ZM16.1118 11.5982C16.4377 11.3427 16.9092 11.3997 17.1647 11.7257C17.6398 12.3316 18.0523 13.008 18.3698 13.7292C18.5367 14.1083 18.3647 14.5509 17.9856 14.7178C17.6065 14.8847 17.1638 14.7127 16.9969 14.3336C16.7325 13.7329 16.3861 13.1637 15.9843 12.6512C15.7287 12.3252 15.7858 11.8538 16.1118 11.5982ZM18.1722 15.3556C18.5835 15.3065 18.9567 15.6002 19.0057 16.0115C19.1 16.8027 19.0647 17.6171 18.8616 18.4235C18.7605 18.8251 18.3529 19.0688 17.9512 18.9676C17.5495 18.8665 17.3059 18.4589 17.407 18.0572C17.5612 17.4448 17.5909 16.8159 17.5162 16.189C17.4672 15.7777 17.7609 15.4046 18.1722 15.3556ZM2.46973 15.9939C2.76262 15.701 3.2375 15.701 3.53039 15.9939C3.76908 16.2326 4.01293 16.4392 4.25995 16.6168C4.59628 16.8585 4.67295 17.3272 4.43118 17.6635C4.18941 17.9998 3.72076 18.0765 3.38443 17.8347C3.06927 17.6082 2.76376 17.3486 2.46973 17.0546C2.17684 16.7617 2.17684 16.2868 2.46973 15.9939ZM12.4018 16.1118C12.6574 16.4378 12.6003 16.9092 12.2743 17.1648C11.6685 17.6398 10.9921 18.0524 10.2708 18.3699C9.89172 18.5368 9.4491 18.3647 9.28221 17.9856C9.11532 17.6065 9.28735 17.1639 9.66646 16.997C10.2671 16.7326 10.8363 16.3862 11.3488 15.9844C11.6748 15.7288 12.1462 15.7859 12.4018 16.1118ZM5.03242 17.9513C5.13357 17.5496 5.54119 17.306 5.94286 17.4071C6.55522 17.5613 7.18418 17.591 7.811 17.5163C8.2223 17.4673 8.59547 17.761 8.64449 18.1723C8.69351 18.5836 8.39982 18.9567 7.98851 19.0057C7.19737 19.1 6.38291 19.0647 5.57657 18.8617C5.1749 18.7605 4.93127 18.3529 5.03242 17.9513ZM17.6634 19.5689C17.9998 19.8106 18.0764 20.2793 17.8347 20.6156C17.6081 20.9308 17.3485 21.2363 17.0545 21.5303C16.7616 21.8232 16.2867 21.8232 15.9938 21.5303C15.7009 21.2374 15.7009 20.7625 15.9938 20.4697C16.2325 20.231 16.4391 19.9871 16.6167 19.7401C16.8585 19.4038 17.3271 19.3271 17.6634 19.5689Z" fill="currentColors"/>
</svg>
