<svg width="24" height="24" viewBox="0 0 24 24" fill="currentColors" xmlns="http://www.w3.org/2000/svg">
<path fill-rule="evenodd" clip-rule="evenodd" d="M11.9098 2.77403L13.7426 4.07557C14.2829 4.45918 14.7547 4.79421 15.0842 5.10933C15.435 5.44481 15.75 5.87386 15.75 6.45871C15.75 7.04356 15.435 7.4726 15.0842 7.80808C14.7547 8.1232 14.2829 8.45824 13.7426 8.84185L9.29535 12L13.7426 15.1581C14.2829 15.5417 14.7547 15.8767 15.0842 16.1919C15.435 16.5273 15.75 16.9564 15.75 17.5412C15.75 18.1261 15.435 18.5551 15.0842 18.8906C14.7547 19.2057 14.2829 19.5408 13.7426 19.9244L11.9098 21.2259C11.1803 21.744 10.5644 22.1814 10.0535 22.442C9.5333 22.7073 8.89823 22.907 8.26305 22.582C7.62606 22.2561 7.41913 21.6231 7.33368 21.0462C7.24992 20.4807 7.24996 19.7276 7.25 18.8369L7.25 13.4405L3.4301 16.1144C3.09076 16.3519 2.62312 16.2694 2.38558 15.9301C2.14804 15.5907 2.23057 15.1231 2.56991 14.8855L6.69216 12L2.56991 9.11439C2.23057 8.87685 2.14804 8.4092 2.38558 8.06987C2.62312 7.73053 3.09076 7.64801 3.4301 7.88554L7.25 10.5595V5.22453C7.25 5.20396 7.25 5.18345 7.25 5.16302C7.24996 4.27234 7.24992 3.51924 7.33368 2.95377C7.41913 2.37687 7.62606 1.74378 8.26305 1.41788C8.89823 1.09291 9.5333 1.2926 10.0535 1.55795C10.5644 1.81853 11.1803 2.25596 11.9098 2.77403ZM8.75 13.4524V18.7754C8.75 19.7443 8.75201 20.3843 8.81749 20.8264C8.84918 21.0403 8.88909 21.153 8.91864 21.2091C8.93162 21.2337 8.94088 21.2432 8.94088 21.2432C8.94088 21.2432 8.94134 21.2442 8.94626 21.2467C8.95075 21.249 8.95297 21.2493 8.95297 21.2493C8.95498 21.2496 8.96797 21.2514 8.99655 21.2474C9.06127 21.2385 9.17789 21.2047 9.37194 21.1058C9.77265 20.9014 10.2983 20.5305 11.0911 19.9675L12.829 18.7334C13.4278 18.3082 13.8071 18.0364 14.0474 17.8066C14.1611 17.6978 14.2119 17.6272 14.2343 17.5866C14.2502 17.5577 14.2501 17.5478 14.25 17.5422V17.5402C14.2501 17.5347 14.2502 17.5248 14.2343 17.4958C14.2119 17.4552 14.1611 17.3846 14.0474 17.2759C13.8071 17.046 13.4278 16.7743 12.829 16.3491L8.75 13.4524ZM8.75 10.5475V5.22453C8.75 4.25567 8.75201 3.61564 8.81749 3.17355C8.84918 2.95959 8.88909 2.84693 8.91864 2.79083C8.93162 2.7662 8.94088 2.75669 8.94088 2.75669C8.94088 2.75669 8.94134 2.75578 8.94626 2.75326C8.95075 2.75096 8.95296 2.75066 8.95296 2.75066C8.95497 2.75036 8.96797 2.74855 8.99655 2.75249C9.06127 2.76141 9.17789 2.79518 9.37194 2.89416C9.77265 3.09855 10.2983 3.46945 11.0911 4.03239L12.829 5.26656C13.4278 5.69174 13.8071 5.96351 14.0474 6.19335C14.1611 6.30209 14.2119 6.3727 14.2343 6.4133C14.2502 6.44228 14.2501 6.45218 14.25 6.45772V6.4597C14.2501 6.46524 14.2502 6.47514 14.2343 6.50411C14.2119 6.54472 14.1611 6.61532 14.0474 6.72406C13.8071 6.9539 13.4278 7.22567 12.829 7.65085L8.75 10.5475ZM18.4828 4.45686C18.7827 4.1712 19.2574 4.18278 19.5431 4.48272L19.0249 4.97629C19.5431 4.48273 19.5431 4.48272 19.5431 4.48272L19.5444 4.48406L19.5458 4.48559L19.5493 4.48926L19.5583 4.49899C19.5652 4.50655 19.574 4.51625 19.5845 4.52812C19.6055 4.55185 19.6333 4.58425 19.6669 4.62549C19.7343 4.70797 19.825 4.82584 19.9311 4.98051C20.1432 5.28994 20.4166 5.74634 20.6866 6.36066C21.2278 7.59188 21.75 9.44454 21.75 12C21.75 14.5554 21.2278 16.408 20.6866 17.6393C20.4166 18.2536 20.1432 18.71 19.9311 19.0194C19.825 19.1741 19.7343 19.292 19.6669 19.3744C19.6333 19.4157 19.6055 19.4481 19.5845 19.4718C19.574 19.4837 19.5652 19.4934 19.5583 19.5009L19.5493 19.5107L19.5458 19.5143L19.5444 19.5159C19.5444 19.5159 19.5431 19.5172 19.0249 19.0237L19.5431 19.5172C19.2574 19.8172 18.7827 19.8287 18.4828 19.5431C18.1841 19.2586 18.1713 18.7866 18.4533 18.4865L18.4556 18.4841L18.4549 18.4848L18.4533 18.4865L18.4604 18.4786C18.4688 18.4691 18.4839 18.4516 18.5049 18.4259C18.547 18.3744 18.6125 18.2899 18.694 18.1711C18.8568 17.9337 19.0834 17.5588 19.3134 17.0357C19.7722 15.9919 20.25 14.3445 20.25 12C20.25 9.65539 19.7722 8.00805 19.3134 6.96427C19.0834 6.44109 18.8568 6.06623 18.694 5.8288C18.6125 5.71003 18.547 5.62556 18.5049 5.57405C18.4839 5.5483 18.4688 5.53079 18.4604 5.52137L18.4536 5.51375L18.4549 5.51511L18.4558 5.51606M18.4828 4.45686C18.1841 4.74134 18.1716 5.21361 18.4536 5.51375L18.4828 4.45686ZM16.6507 7.33628C17.0172 7.14336 17.4708 7.28411 17.6637 7.65065L17 7.99996C17.6637 7.65065 17.6637 7.65065 17.6637 7.65065L17.6645 7.65219L17.6657 7.65443L17.6691 7.66099L17.68 7.68234C17.6891 7.70017 17.7016 7.72516 17.717 7.75689C17.748 7.82031 17.7908 7.91082 17.8416 8.02505C17.943 8.25316 18.0768 8.57776 18.2103 8.97169C18.4751 9.75296 18.75 10.8387 18.75 12C18.75 13.1612 18.4751 14.247 18.2103 15.0282C18.0768 15.4222 17.943 15.7468 17.8416 15.9749C17.7908 16.0891 17.748 16.1796 17.717 16.243C17.7016 16.2748 17.6891 16.2998 17.68 16.3176L17.6691 16.3389L17.6657 16.3455L17.6645 16.3477L17.6639 16.349C17.6639 16.349 17.6637 16.3493 17 16L17.6639 16.349C17.4709 16.7155 17.0172 16.8566 16.6507 16.6637C16.2845 16.4709 16.1436 16.018 16.3358 15.6516M16.3363 15.6507L16.3425 15.6386C16.3481 15.6276 16.357 15.6097 16.3689 15.5854C16.3926 15.5367 16.4279 15.4624 16.4709 15.3657C16.557 15.1719 16.6732 14.8903 16.7897 14.5467C17.0249 13.853 17.25 12.9387 17.25 12C17.25 11.0612 17.0249 10.147 16.7897 9.45324C16.6732 9.10966 16.557 8.82801 16.4709 8.63426C16.4279 8.53754 16.3926 8.46321 16.3689 8.41452C16.357 8.3902 16.3481 8.37231 16.3425 8.36129L16.3367 8.34997L16.3362 8.349C16.1435 7.9825 16.2842 7.52915 16.6507 7.33628" fill="currentColors"/>
</svg>
