<svg width="24" height="24" viewBox="0 0 24 24" fill="currentColors" xmlns="http://www.w3.org/2000/svg">
<path fill-rule="evenodd" clip-rule="evenodd" d="M14.9098 2.77403L16.7426 4.07557C17.2829 4.45918 17.7547 4.79421 18.0842 5.10933C18.435 5.44481 18.75 5.87386 18.75 6.45871C18.75 7.04356 18.435 7.4726 18.0842 7.80808C17.7547 8.1232 17.2829 8.45824 16.7426 8.84185L12.2954 12L16.7426 15.1581C17.2829 15.5417 17.7547 15.8767 18.0842 16.1919C18.435 16.5273 18.75 16.9564 18.75 17.5412C18.75 18.1261 18.435 18.5551 18.0842 18.8906C17.7547 19.2057 17.2829 19.5408 16.7426 19.9244L14.9098 21.2259C14.1803 21.744 13.5644 22.1814 13.0535 22.442C12.5333 22.7073 11.8982 22.907 11.263 22.582C10.6261 22.2561 10.4191 21.6231 10.3337 21.0462C10.2499 20.4807 10.25 19.7276 10.25 18.8369L10.25 13.4405L6.4301 16.1144C6.09076 16.3519 5.62312 16.2694 5.38558 15.9301C5.14804 15.5907 5.23057 15.1231 5.56991 14.8855L9.69216 12L5.56991 9.11439C5.23057 8.87685 5.14804 8.4092 5.38558 8.06987C5.62312 7.73053 6.09076 7.64801 6.4301 7.88554L10.25 10.5595V5.22453C10.25 5.20396 10.25 5.18345 10.25 5.16302C10.25 4.27234 10.2499 3.51924 10.3337 2.95377C10.4191 2.37687 10.6261 1.74378 11.263 1.41788C11.8982 1.09291 12.5333 1.2926 13.0535 1.55795C13.5644 1.81853 14.1803 2.25596 14.9098 2.77403ZM11.75 13.4524V18.7754C11.75 19.7443 11.752 20.3843 11.8175 20.8264C11.8492 21.0403 11.8891 21.153 11.9186 21.2091C11.9316 21.2337 11.94 21.2423 11.9409 21.2432C11.9411 21.2434 11.9413 21.2442 11.9463 21.2467C11.9508 21.249 11.952 21.2491 11.953 21.2493C11.955 21.2496 11.968 21.2514 11.9965 21.2474C12.0613 21.2385 12.1779 21.2047 12.3719 21.1058C12.7727 20.9014 13.2983 20.5305 14.0911 19.9675L15.829 18.7334C16.4278 18.3082 16.8071 18.0364 17.0474 17.8066C17.1611 17.6978 17.2119 17.6272 17.2343 17.5866C17.2502 17.5577 17.2501 17.5478 17.25 17.5422C17.25 17.5419 17.25 17.5425 17.25 17.5422C17.25 17.5419 17.25 17.5406 17.25 17.5402C17.2501 17.5347 17.2502 17.5248 17.2343 17.4958C17.2119 17.4552 17.1611 17.3846 17.0474 17.2759C16.8071 17.046 16.4278 16.7743 15.829 16.3491L11.75 13.4524ZM11.75 10.5475V5.22453C11.75 4.25567 11.752 3.61564 11.8175 3.17355C11.8492 2.95959 11.8891 2.84693 11.9186 2.79083C11.9316 2.7662 11.94 2.75761 11.9409 2.75669C11.9411 2.75648 11.9413 2.75578 11.9463 2.75326C11.9507 2.75096 11.952 2.75079 11.953 2.75066C11.9529 2.75068 11.9531 2.75065 11.953 2.75066C11.955 2.75036 11.968 2.74855 11.9965 2.75249C12.0613 2.76141 12.1779 2.79518 12.3719 2.89416C12.7727 3.09855 13.2983 3.46945 14.0911 4.03239L15.829 5.26656C16.4278 5.69174 16.8071 5.96351 17.0474 6.19335C17.1611 6.30209 17.2119 6.3727 17.2343 6.4133C17.2502 6.44228 17.2501 6.45218 17.25 6.45772C17.25 6.45806 17.25 6.4574 17.25 6.45772C17.25 6.45803 17.25 6.45935 17.25 6.4597C17.2501 6.46524 17.2502 6.47514 17.2343 6.50411C17.2119 6.54472 17.1611 6.61532 17.0474 6.72406C16.8071 6.9539 16.4278 7.22567 15.829 7.65085L11.75 10.5475Z" fill="currentColors"/>
</svg>
