<svg width="24" height="24" viewBox="0 0 24 24" fill="currentColors" xmlns="http://www.w3.org/2000/svg">
<path d="M12.0303 8.96963C11.7374 8.67674 11.2626 8.67674 10.9697 8.96963C10.6768 9.26252 10.6768 9.7374 10.9697 10.0303L11.9393 11L10.9697 11.9696C10.6768 12.2625 10.6768 12.7374 10.9697 13.0303C11.2626 13.3232 11.7374 13.3232 12.0303 13.0303L13 12.0606L13.9697 13.0303C14.2626 13.3232 14.7374 13.3232 15.0303 13.0303C15.3232 12.7374 15.3232 12.2625 15.0303 11.9696L14.0607 11L15.0303 10.0303C15.3232 9.7374 15.3232 9.26252 15.0303 8.96963C14.7374 8.67674 14.2626 8.67674 13.9697 8.96963L13 9.9393L12.0303 8.96963Z" fill="currentColors"/>
<path fill-rule="evenodd" clip-rule="evenodd" d="M1.29245 2.7512C1.42983 2.36044 1.85798 2.15503 2.24875 2.29242L2.55015 2.39838C3.16668 2.61511 3.69031 2.79919 4.1024 3.00139C4.54303 3.21759 4.92088 3.48393 5.20506 3.89979C5.48704 4.31243 5.60345 4.76515 5.65718 5.26153C5.66103 5.29706 5.66459 5.33321 5.66787 5.36996L17.12 5.36996C17.9386 5.36995 18.7733 5.36993 19.4604 5.44674C19.8101 5.48584 20.1567 5.54814 20.4631 5.65583C20.7636 5.76141 21.094 5.93432 21.3289 6.23974C21.7108 6.73613 21.7775 7.31414 21.7413 7.90034C21.7069 8.45845 21.5684 9.15234 21.4037 9.97723L21.3933 10.0295L21.3923 10.0341L20.8834 12.5033C20.7337 13.2298 20.6077 13.841 20.4453 14.3231C20.2729 14.8346 20.0339 15.2842 19.6074 15.6318C19.1809 15.9793 18.6923 16.1226 18.1566 16.1882C17.6516 16.25 17.0276 16.25 16.2859 16.25L10.8801 16.25C9.53443 16.25 8.44458 16.25 7.58635 16.1283C6.69011 16.0012 5.9373 15.7285 5.34344 15.1022C4.79721 14.526 4.50508 13.9144 4.35875 13.0601C4.2217 12.2598 4.20807 11.2125 4.20807 9.75996V7.03832C4.20807 6.29837 4.20705 5.80316 4.1659 5.42295C4.12657 5.0596 4.05686 4.87818 3.9666 4.74609C3.87854 4.61723 3.74487 4.4968 3.44165 4.34802C3.1188 4.18961 2.68005 4.03406 2.01244 3.79934L1.75123 3.7075C1.36047 3.57012 1.15506 3.14197 1.29245 2.7512ZM5.70806 6.86996L5.70807 9.75996C5.70807 11.249 5.72606 12.1578 5.83722 12.8068C5.93912 13.4018 6.11181 13.7324 6.43197 14.0701C6.70451 14.3576 7.08214 14.5418 7.79695 14.6432C8.53762 14.7482 9.52068 14.75 10.9375 14.75H16.2404C17.0396 14.75 17.5712 14.7487 17.9744 14.6993C18.3571 14.6525 18.5346 14.571 18.6598 14.469C18.785 14.3669 18.9007 14.2095 19.0238 13.8441C19.1535 13.4592 19.2621 12.9389 19.4234 12.156L19.9223 9.73591L19.9227 9.73369C20.1003 8.84376 20.2168 8.2515 20.2442 7.80793C20.2702 7.38648 20.2041 7.23927 20.1427 7.15786C20.1365 7.15259 20.0929 7.11565 19.9659 7.07101C19.8105 7.01639 19.5893 6.97049 19.2937 6.93745C18.6989 6.87096 17.9452 6.86996 17.0888 6.86996H5.70806Z" fill="currentColors"/>
<path fill-rule="evenodd" clip-rule="evenodd" d="M5.24999 19.5C5.24999 20.7426 6.25735 21.75 7.49999 21.75C8.74263 21.75 9.74999 20.7426 9.74999 19.5C9.74999 18.2573 8.74263 17.25 7.49999 17.25C6.25735 17.25 5.24999 18.2573 5.24999 19.5ZM7.49999 20.25C7.08578 20.25 6.74999 19.9142 6.74999 19.5C6.74999 19.0857 7.08578 18.75 7.49999 18.75C7.9142 18.75 8.24999 19.0857 8.24999 19.5C8.24999 19.9142 7.9142 20.25 7.49999 20.25Z" fill="currentColors"/>
<path fill-rule="evenodd" clip-rule="evenodd" d="M14.25 19.5C14.25 20.7427 15.2573 21.75 16.5 21.75C17.7426 21.75 18.75 20.7427 18.75 19.5C18.75 18.2574 17.7426 17.25 16.5 17.25C15.2573 17.25 14.25 18.2574 14.25 19.5ZM16.5 20.25C16.0858 20.25 15.75 19.9142 15.75 19.5C15.75 19.0858 16.0858 18.75 16.5 18.75C16.9142 18.75 17.25 19.0858 17.25 19.5C17.25 19.9142 16.9142 20.25 16.5 20.25Z" fill="currentColors"/>
</svg>
