<svg width="24" height="24" viewBox="0 0 24 24" fill="currentColors" xmlns="http://www.w3.org/2000/svg">
<path d="M7.25001 12C7.25001 11.5858 7.58579 11.25 8.00001 11.25H16C16.4142 11.25 16.75 11.5858 16.75 12C16.75 12.4143 16.4142 12.75 16 12.75H8.00001C7.58579 12.75 7.25001 12.4143 7.25001 12Z" fill="currentColors"/>
<path d="M10 14.25C9.58579 14.25 9.25001 14.5858 9.25001 15C9.25001 15.4143 9.58579 15.75 10 15.75H14C14.4142 15.75 14.75 15.4143 14.75 15C14.75 14.5858 14.4142 14.25 14 14.25H10Z" fill="currentColors"/>
<path fill-rule="evenodd" clip-rule="evenodd" d="M14.6646 2.32922C15.0351 2.14398 15.4856 2.29415 15.6708 2.66463L17.4841 6.29123C17.9117 6.31297 18.3015 6.34617 18.6548 6.3969C19.7106 6.54848 20.5843 6.87435 21.2053 7.6425C21.8263 8.41065 21.9619 9.33332 21.8889 10.3974C21.8181 11.4285 21.5395 12.7289 21.1911 14.3546L20.7397 16.4613C20.5047 17.5577 20.3142 18.4471 20.0743 19.1419C19.8244 19.866 19.495 20.4614 18.9323 20.9163C18.3697 21.3711 17.7184 21.5685 16.9581 21.6612C16.2284 21.7501 15.3188 21.7501 14.1975 21.75H9.80258C8.68126 21.7501 7.77165 21.7501 7.04202 21.6612C6.28165 21.5685 5.63039 21.3711 5.06775 20.9163C4.50511 20.4614 4.17567 19.866 3.92575 19.1419C3.68593 18.4471 3.49535 17.5577 3.26042 16.4612L2.80899 14.3546C2.46061 12.7289 2.18194 11.4285 2.11121 10.3974C2.03822 9.33332 2.17377 8.41065 2.79476 7.6425C3.41574 6.87435 4.28953 6.54848 5.34525 6.3969C5.69853 6.34618 6.08838 6.31297 6.51589 6.29123L8.32919 2.66463C8.51443 2.29415 8.96493 2.14398 9.33542 2.32922C9.7059 2.51446 9.85607 2.96497 9.67083 3.33545L8.2125 6.2521C8.57606 6.25003 8.95871 6.25004 9.36082 6.25004H14.6393C15.0413 6.25004 15.424 6.25003 15.7875 6.2521L14.3292 3.33545C14.1439 2.96497 14.2941 2.51446 14.6646 2.32922ZM5.73213 7.85876L5.32919 8.66463C5.14395 9.03512 5.29411 9.48562 5.6646 9.67086C6.03508 9.8561 6.48559 9.70594 6.67083 9.33545L7.45808 7.76095C8.02848 7.75038 8.67792 7.75004 9.42197 7.75004H14.5781C15.3221 7.75004 15.9716 7.75038 16.5419 7.76095L17.3292 9.33545C17.5144 9.70594 17.9649 9.8561 18.3354 9.67086C18.7059 9.48562 18.8561 9.03512 18.6708 8.66463L18.2679 7.85875C18.3271 7.86591 18.385 7.87354 18.4417 7.88167C19.3255 8.00858 19.7593 8.2397 20.0388 8.58552C20.3184 8.93134 20.4535 9.40386 20.3924 10.2947C20.3299 11.2058 20.0757 12.4008 19.7116 14.1001L19.283 16.1001C19.0356 17.2546 18.863 18.0542 18.6564 18.6525C18.4566 19.2314 18.2518 19.5376 17.9893 19.7498C17.7269 19.9619 17.3846 20.0981 16.7766 20.1722C16.1483 20.2487 15.3303 20.25 14.1495 20.25H9.85054C8.66978 20.25 7.85181 20.2487 7.22347 20.1722C6.61551 20.0981 6.2732 19.9619 6.01077 19.7498C5.74834 19.5376 5.54349 19.2314 5.34366 18.6525C5.13714 18.0542 4.96448 17.2546 4.71708 16.1001L4.28851 14.1001C3.92438 12.4008 3.67019 11.2058 3.60769 10.2947C3.54658 9.40386 3.68169 8.93134 3.96126 8.58552C4.24082 8.2397 4.67455 8.00858 5.55843 7.88167C5.61507 7.87354 5.67295 7.86591 5.73213 7.85876Z" fill="currentColors"/>
</svg>
