<svg width="24" height="24" viewBox="0 0 24 24" fill="currentColors" xmlns="http://www.w3.org/2000/svg">
<path fill-rule="evenodd" clip-rule="evenodd" d="M2.23719 2.28845C1.84423 2.15746 1.41949 2.36983 1.28851 2.76279C1.15752 3.15575 1.36989 3.58049 1.76285 3.71147L2.02776 3.79978C2.70417 4.02524 3.15137 4.17551 3.48082 4.32877C3.79278 4.47389 3.92765 4.59069 4.01407 4.71059C4.10049 4.83049 4.16864 4.99538 4.20767 5.33722C4.24889 5.69823 4.25002 6.17 4.25002 6.883L4.25002 9.55484C4.25 10.9224 4.24998 12.0247 4.36654 12.8917C4.48756 13.7918 4.74645 14.5497 5.34837 15.1516C5.95029 15.7535 6.70816 16.0124 7.60827 16.1334C8.47523 16.25 9.57754 16.25 10.9451 16.25H19C19.4142 16.25 19.75 15.9142 19.75 15.5C19.75 15.0857 19.4142 14.75 19 14.75H11C9.5646 14.75 8.56349 14.7484 7.80814 14.6468C7.07437 14.5482 6.68579 14.3677 6.40903 14.091C6.31233 13.9943 6.22739 13.8839 6.15359 13.75H16.0585C16.5068 13.75 16.9012 13.75 17.2286 13.7147C17.5831 13.6764 17.9265 13.5914 18.2495 13.3784C18.5726 13.1653 18.786 12.8832 18.9608 12.5725C19.1223 12.2855 19.2776 11.923 19.4542 11.5109L19.921 10.4216C20.3055 9.52461 20.6271 8.77416 20.7881 8.16381C20.9561 7.52707 20.9998 6.86226 20.6036 6.26135C20.2074 5.66045 19.5791 5.43877 18.9277 5.34233C18.3032 5.24989 17.4868 5.24992 16.5108 5.24996L5.70678 5.24996C5.70403 5.22197 5.7011 5.19434 5.69799 5.16708C5.64264 4.68226 5.52203 4.2374 5.23094 3.83352C4.93984 3.42965 4.55595 3.17456 4.11351 2.96873C3.69728 2.7751 3.16795 2.59868 2.54158 2.38991L2.23719 2.28845ZM5.75002 6.74996C5.75002 6.7802 5.75002 6.81067 5.75002 6.84135L5.75002 9.49996C5.75002 10.6719 5.75108 11.5544 5.80675 12.25H16.0218C16.5177 12.25 16.8303 12.2489 17.0676 12.2233C17.2869 12.1997 17.3712 12.1608 17.4238 12.1261C17.4764 12.0914 17.5454 12.0292 17.6535 11.837C17.7705 11.629 17.8946 11.3421 18.0899 10.8863L18.5185 9.88628C18.933 8.91908 19.2085 8.27127 19.3378 7.78121C19.4634 7.30498 19.3997 7.16045 19.3513 7.08709C19.303 7.01373 19.1952 6.89828 18.708 6.82616C18.2066 6.75193 17.5027 6.74996 16.4504 6.74996H5.75002Z" fill="currentColors"/>
<path fill-rule="evenodd" clip-rule="evenodd" d="M5.25002 19.5C5.25002 20.7426 6.25738 21.75 7.50002 21.75C8.74266 21.75 9.75002 20.7426 9.75002 19.5C9.75002 18.2573 8.74266 17.25 7.50002 17.25C6.25738 17.25 5.25002 18.2573 5.25002 19.5ZM7.50002 20.25C7.08581 20.25 6.75002 19.9142 6.75002 19.5C6.75002 19.0857 7.08581 18.75 7.50002 18.75C7.91423 18.75 8.25002 19.0857 8.25002 19.5C8.25002 19.9142 7.91423 20.25 7.50002 20.25Z" fill="currentColors"/>
<path fill-rule="evenodd" clip-rule="evenodd" d="M16.5 21.75C15.2574 21.75 14.25 20.7427 14.25 19.5C14.25 18.2574 15.2574 17.25 16.5 17.25C17.7427 17.25 18.75 18.2574 18.75 19.5C18.75 20.7427 17.7427 21.75 16.5 21.75ZM15.75 19.5C15.75 19.9142 16.0858 20.25 16.5 20.25C16.9142 20.25 17.25 19.9142 17.25 19.5C17.25 19.0858 16.9142 18.75 16.5 18.75C16.0858 18.75 15.75 19.0858 15.75 19.5Z" fill="currentColors"/>
</svg>
