<svg width="24" height="24" viewBox="0 0 24 24" fill="currentColors" xmlns="http://www.w3.org/2000/svg">
<path d="M13.75 8.99996C13.75 8.58575 13.4142 8.24996 13 8.24996C12.5858 8.24996 12.25 8.58575 12.25 8.99996V10.25H11C10.5858 10.25 10.25 10.5857 10.25 11C10.25 11.4142 10.5858 11.75 11 11.75H12.25V13C12.25 13.4142 12.5858 13.75 13 13.75C13.4142 13.75 13.75 13.4142 13.75 13V11.75H15C15.4142 11.75 15.75 11.4142 15.75 11C15.75 10.5857 15.4142 10.25 15 10.25H13.75V8.99996Z" fill="currentColors"/>
<path fill-rule="evenodd" clip-rule="evenodd" d="M1.29248 2.7512C1.42986 2.36044 1.85801 2.15503 2.24878 2.29242L2.55018 2.39838C3.16671 2.61511 3.69034 2.79919 4.10243 3.00139C4.54306 3.21759 4.92091 3.48393 5.20509 3.89979C5.48707 4.31243 5.60349 4.76515 5.65722 5.26153C5.66106 5.29706 5.66462 5.33321 5.6679 5.36996L17.1201 5.36996C17.9387 5.36995 18.7733 5.36993 19.4604 5.44674C19.8101 5.48584 20.1567 5.54814 20.4632 5.65583C20.7637 5.76141 21.094 5.93432 21.329 6.23974C21.7108 6.73613 21.7776 7.31414 21.7414 7.90034C21.7069 8.45845 21.5684 9.15234 21.4037 9.97723L21.3933 10.0295L21.3923 10.0341L20.8834 12.5033C20.7337 13.2298 20.6078 13.841 20.4453 14.3231C20.2729 14.8346 20.0339 15.2842 19.6074 15.6318C19.1809 15.9793 18.6923 16.1226 18.1566 16.1882C17.6516 16.25 17.0276 16.25 16.286 16.25L10.8802 16.25C9.53446 16.25 8.44461 16.25 7.58638 16.1283C6.69014 16.0012 5.93733 15.7285 5.34347 15.1022C4.79724 14.526 4.50511 13.9144 4.35878 13.0601C4.22173 12.2598 4.2081 11.2125 4.2081 9.75996V7.03832C4.2081 6.29837 4.20708 5.80316 4.16593 5.42295C4.1266 5.0596 4.05689 4.87818 3.96663 4.74609C3.87857 4.61723 3.7449 4.4968 3.44168 4.34802C3.11883 4.18961 2.68008 4.03406 2.01247 3.79934L1.75126 3.7075C1.3605 3.57012 1.15509 3.14197 1.29248 2.7512ZM5.70809 6.86996L5.7081 9.75996C5.7081 11.249 5.72609 12.1578 5.83725 12.8068C5.93915 13.4018 6.11184 13.7324 6.432 14.0701C6.70455 14.3576 7.08217 14.5418 7.79698 14.6432C8.53765 14.7482 9.52071 14.75 10.9375 14.75H16.2404C17.0397 14.75 17.5712 14.7487 17.9744 14.6993C18.3571 14.6525 18.5346 14.571 18.6598 14.469C18.7851 14.3669 18.9007 14.2095 19.0238 13.8441C19.1535 13.4592 19.2621 12.9389 19.4235 12.156L19.9223 9.73591L19.9227 9.73369C20.1004 8.84376 20.2169 8.2515 20.2442 7.80793C20.2702 7.38648 20.2041 7.23927 20.1427 7.15786C20.1365 7.15259 20.093 7.11565 19.9659 7.07101C19.8105 7.01639 19.5893 6.97049 19.2937 6.93745C18.6989 6.87096 17.9452 6.86996 17.0889 6.86996H5.70809Z" fill="currentColors"/>
<path fill-rule="evenodd" clip-rule="evenodd" d="M5.25002 19.5C5.25002 20.7426 6.25738 21.75 7.50002 21.75C8.74266 21.75 9.75002 20.7426 9.75002 19.5C9.75002 18.2573 8.74266 17.25 7.50002 17.25C6.25738 17.25 5.25002 18.2573 5.25002 19.5ZM7.50002 20.25C7.08581 20.25 6.75002 19.9142 6.75002 19.5C6.75002 19.0857 7.08581 18.75 7.50002 18.75C7.91424 18.75 8.25002 19.0857 8.25002 19.5C8.25002 19.9142 7.91424 20.25 7.50002 20.25Z" fill="currentColors"/>
<path fill-rule="evenodd" clip-rule="evenodd" d="M14.25 19.5C14.25 20.7427 15.2574 21.75 16.5 21.75C17.7427 21.75 18.75 20.7427 18.75 19.5C18.75 18.2574 17.7427 17.25 16.5 17.25C15.2574 17.25 14.25 18.2574 14.25 19.5ZM16.5 20.25C16.0858 20.25 15.75 19.9142 15.75 19.5C15.75 19.0858 16.0858 18.75 16.5 18.75C16.9142 18.75 17.25 19.0858 17.25 19.5C17.25 19.9142 16.9142 20.25 16.5 20.25Z" fill="currentColors"/>
</svg>
