<svg width="24" height="24" viewBox="0 0 24 24" fill="currentColors" xmlns="http://www.w3.org/2000/svg">
<path fill-rule="evenodd" clip-rule="evenodd" d="M12.0195 14.9374C11.7283 14.9374 11.4306 14.9818 11.1783 15.0796C11.0545 15.1275 10.9031 15.2031 10.7698 15.3252C10.636 15.4479 10.4631 15.6749 10.4631 15.9999C10.4631 16.3249 10.636 16.5519 10.7698 16.6745C10.9031 16.7967 11.0545 16.8722 11.1783 16.9202C11.4306 17.018 11.7283 17.0624 12.0195 17.0624C12.3108 17.0624 12.6084 17.018 12.8608 16.9202C12.9845 16.8722 13.1359 16.7967 13.2692 16.6745C13.4031 16.5519 13.576 16.3249 13.576 15.9999C13.576 15.6749 13.4031 15.4479 13.2692 15.3252C13.1359 15.2031 12.9845 15.1275 12.8608 15.0796C12.6084 14.9818 12.3108 14.9374 12.0195 14.9374Z" fill="currentColors"/>
<path d="M14.0364 12.6464C14.2014 12.38 14.5273 12.0625 15.0162 12.0625C15.505 12.0625 15.8309 12.38 15.9959 12.6464C16.1681 12.9243 16.25 13.2612 16.25 13.5938C16.25 13.9263 16.1681 14.2632 15.9959 14.5411C15.8309 14.8075 15.505 15.125 15.0162 15.125C14.5273 15.125 14.2014 14.8075 14.0364 14.5411C13.8643 14.2632 13.7823 13.9263 13.7823 13.5938C13.7823 13.2612 13.8643 12.9243 14.0364 12.6464Z" fill="currentColors"/>
<path d="M9.01625 12.0625C8.52741 12.0625 8.20152 12.38 8.03649 12.6464C7.86436 12.9243 7.78238 13.2612 7.78238 13.5938C7.78238 13.9263 7.86436 14.2632 8.03649 14.5411C8.20152 14.8075 8.52741 15.125 9.01625 15.125C9.50509 15.125 9.83098 14.8075 9.99601 14.5411C10.1681 14.2632 10.2501 13.9263 10.2501 13.5938C10.2501 13.2612 10.1681 12.9243 9.99601 12.6464C9.83098 12.38 9.50509 12.0625 9.01625 12.0625Z" fill="currentColors"/>
<path fill-rule="evenodd" clip-rule="evenodd" d="M6.09476 4.25C5.48139 4.25 4.77453 4.42871 4.20873 4.91616C3.62217 5.4215 3.26995 6.18781 3.26995 7.1875V9.0625L3.26996 9.06545C3.27111 9.35941 3.32101 9.94757 3.48871 10.4392C3.54356 10.6001 3.6312 10.8134 3.77755 11.0058C3.49355 11.5688 3.35895 12.1495 3.29777 12.7095C3.24671 13.1771 3.24602 13.6679 3.25415 14.1211C2.59311 14.3507 1.90868 14.6349 1.5931 14.8387C1.24515 15.0634 1.14525 15.5277 1.36997 15.8756C1.59469 16.2236 2.05894 16.3235 2.40689 16.0988C2.52331 16.0236 2.86677 15.8664 3.31858 15.6939C3.38745 16.173 3.52707 16.6095 3.72201 17.0063C3.56612 17.1035 3.42838 17.1935 3.3188 17.2652C3.27685 17.2926 3.23903 17.3173 3.2059 17.3387C2.85794 17.5634 2.75804 18.0277 2.98276 18.3756C3.20748 18.7236 3.67173 18.8235 4.01968 18.5988C4.06081 18.5722 4.10464 18.5436 4.15089 18.5134C4.28206 18.4278 4.43278 18.3294 4.59692 18.2288C5.18644 18.8313 5.91856 19.2964 6.67907 19.6462C8.45989 20.4654 10.569 20.75 12 20.75C13.431 20.75 15.5401 20.4654 17.3209 19.6462C18.0814 19.2964 18.8135 18.8313 19.4031 18.2288C19.5672 18.3294 19.7179 18.4278 19.849 18.5134C19.8953 18.5436 19.9391 18.5722 19.9802 18.5988C20.3282 18.8235 20.7924 18.7236 21.0172 18.3756C21.2419 18.0277 21.142 17.5634 20.794 17.3387C20.7609 17.3173 20.7231 17.2926 20.6811 17.2652C20.5716 17.1935 20.4338 17.1035 20.278 17.0063C20.4729 16.6095 20.6126 16.173 20.6814 15.6938C21.1334 15.8663 21.477 16.0236 21.5935 16.0988C21.9414 16.3235 22.4057 16.2236 22.6304 15.8756C22.8551 15.5277 22.7552 15.0634 22.4073 14.8387C22.0916 14.6349 21.407 14.3506 20.7459 14.121C20.754 13.6678 20.7533 13.177 20.7022 12.7095C20.6411 12.1495 20.5065 11.5688 20.2225 11.0058C20.3688 10.8134 20.4564 10.6001 20.5113 10.4392C20.679 9.94758 20.7289 9.35941 20.7301 9.06545L20.7301 9.0625V7.18761C20.7301 6.18792 20.3779 5.42162 19.7913 4.91628C19.2255 4.42882 18.5186 4.25011 17.9053 4.25011C17.4968 4.25011 17.0743 4.40685 16.7336 4.56076C16.3725 4.72392 15.9951 4.9359 15.6557 5.13136C15.5827 5.17339 15.5118 5.21444 15.4429 5.25432L15.441 5.25548C15.1769 5.4084 14.9426 5.5441 14.7338 5.65167C14.6041 5.7185 14.5034 5.7643 14.4284 5.79206C14.3968 5.80377 14.3766 5.80966 14.3663 5.81242C14.1128 5.81102 13.9513 5.79033 13.718 5.76044C13.668 5.75403 13.6146 5.74719 13.5563 5.74003C13.2097 5.69743 12.7721 5.65636 12 5.65636C11.2279 5.65636 10.7904 5.69743 10.4437 5.74003C10.3854 5.74719 10.3321 5.75403 10.282 5.76044C10.0488 5.79033 9.88729 5.81102 9.63379 5.81242C9.62343 5.80966 9.60323 5.80376 9.57164 5.79206C9.49669 5.7643 9.39595 5.71849 9.26624 5.65166C9.05746 5.54408 8.82322 5.40842 8.55917 5.25548C8.48966 5.21523 8.41809 5.17377 8.34437 5.13132C8.00493 4.93584 7.62755 4.72384 7.26643 4.56067C6.92577 4.40675 6.5032 4.25 6.09476 4.25ZM6.16182 17.6138C6.49586 17.8657 6.88071 18.0879 7.30595 18.2835C8.83685 18.9877 10.7178 19.25 12 19.25C13.2822 19.25 15.1631 18.9877 16.694 18.2835C17.1193 18.0879 17.5041 17.8657 17.8382 17.6138C17.4857 17.5524 17.2178 17.245 17.2178 16.875C17.2178 16.4608 17.5536 16.125 17.9678 16.125C18.295 16.125 18.6294 16.2068 18.9398 16.3204C19.0984 15.9885 19.1958 15.625 19.2225 15.2271C18.9248 15.1544 18.7192 15.125 18.6133 15.125C18.1991 15.125 17.8633 14.7892 17.8633 14.375C17.8633 13.9608 18.1991 13.625 18.6133 13.625C18.8081 13.625 19.0283 13.6542 19.2504 13.6974C19.2504 13.4213 19.2414 13.1502 19.2111 12.8724C19.1406 12.227 18.9579 11.6541 18.5268 11.1447C18.3726 10.9625 18.1808 10.7813 17.9401 10.6045C17.6063 10.3594 17.5343 9.88999 17.7795 9.55611C18.0246 9.22224 18.494 9.15031 18.8279 9.39546C18.947 9.48292 19.0596 9.57282 19.1659 9.66506C19.2099 9.43686 19.2294 9.19817 19.2301 9.06087V7.18761C19.2301 6.56231 19.0237 6.23486 18.8122 6.0527C18.58 5.85266 18.2495 5.75011 17.9053 5.75011C17.8349 5.75011 17.6589 5.78868 17.3512 5.92771C17.064 6.0575 16.7431 6.23612 16.4042 6.43125C16.3406 6.4679 16.2758 6.50544 16.2105 6.54328C15.9427 6.69843 15.6659 6.85883 15.4208 6.98509C15.2663 7.06473 15.1051 7.14099 14.9494 7.19867C14.8057 7.25192 14.6069 7.3125 14.394 7.3125C14.0222 7.3125 13.7616 7.27877 13.5115 7.2464C13.4653 7.24043 13.4195 7.23449 13.3734 7.22883C13.0847 7.19336 12.7083 7.15636 12 7.15636C11.2918 7.15636 10.9153 7.19336 10.6266 7.22883C10.5806 7.23449 10.5348 7.24042 10.4886 7.24639C10.2385 7.27877 9.97787 7.3125 9.60601 7.3125C9.39317 7.3125 9.19436 7.25191 9.0506 7.19866C8.89488 7.14098 8.73377 7.06471 8.57919 6.98506C8.33414 6.8588 8.05733 6.69839 7.78959 6.54325C7.72426 6.50539 7.65945 6.46784 7.5958 6.43118C7.25693 6.23603 6.93605 6.05741 6.64879 5.92761C6.34106 5.78856 6.16512 5.75 6.09476 5.75C5.75053 5.75 5.41998 5.85254 5.18778 6.05259C4.97634 6.23475 4.76995 6.56219 4.76995 7.1875V9.06088C4.77061 9.19819 4.79016 9.43686 4.83416 9.66506C4.94044 9.57281 5.053 9.48292 5.17211 9.39546C5.50598 9.15031 5.97538 9.22224 6.22053 9.55612C6.46568 9.88999 6.39375 10.3594 6.05988 10.6045C5.81916 10.7813 5.62738 10.9625 5.47321 11.1447C5.04214 11.6541 4.8594 12.227 4.78891 12.8724C4.75856 13.1502 4.74957 13.4213 4.74965 13.6975C4.97183 13.6543 5.19222 13.625 5.3871 13.625C5.80132 13.625 6.1371 13.9608 6.1371 14.375C6.1371 14.7892 5.80132 15.125 5.3871 15.125C5.28112 15.125 5.07539 15.1544 4.77749 15.2271C4.80425 15.625 4.90159 15.9885 5.06018 16.3203C5.37059 16.2068 5.70495 16.125 6.03215 16.125C6.44636 16.125 6.78215 16.4608 6.78215 16.875C6.78215 17.245 6.51423 17.5524 6.16182 17.6138Z" fill="currentColors"/>
</svg>
