<svg width="24" height="24" viewBox="0 0 24 24" fill="currentColors" xmlns="http://www.w3.org/2000/svg">
<path fill-rule="evenodd" clip-rule="evenodd" d="M11.9642 2.25H12.0358C12.94 2.24999 13.6693 2.24998 14.2576 2.3033C14.8639 2.35826 15.3937 2.47455 15.875 2.75241C16.4451 3.08154 16.9185 3.55493 17.2476 4.125C17.5254 4.60625 17.6417 5.13605 17.6967 5.7424C17.75 6.3307 17.75 7.05998 17.75 7.96423V11.371C18.244 11.4754 18.691 11.6795 19.0519 12.0919C19.4974 12.6011 19.6427 13.2365 19.7029 13.9366C19.7043 13.9525 19.7056 13.9684 19.707 13.9843C19.7423 14.3935 19.7757 14.7811 19.754 15.105C19.7291 15.4762 19.6284 15.855 19.3272 16.1833C19.0161 16.5223 18.6254 16.6485 18.2513 16.702C18.0989 16.7237 17.9305 16.7357 17.75 16.7422V21C17.75 21.4142 17.4142 21.75 17 21.75C16.5858 21.75 16.25 21.4142 16.25 21V16.75H7.75V21C7.75 21.4142 7.41421 21.75 7 21.75C6.58579 21.75 6.25 21.4142 6.25 21V16.7422C6.06948 16.7357 5.90109 16.7237 5.74872 16.702C5.37456 16.6485 4.9839 16.5223 4.6728 16.1833C4.37158 15.855 4.27088 15.4762 4.24603 15.105C4.22435 14.7811 4.25774 14.3934 4.29299 13.9842C4.29435 13.9684 4.29572 13.9525 4.29709 13.9366C4.35726 13.2365 4.50257 12.6011 4.94813 12.0919C5.30902 11.6795 5.75598 11.4754 6.25 11.371L6.25 7.96421C6.24999 7.05997 6.24998 6.33069 6.3033 5.7424C6.35826 5.13605 6.47455 4.60625 6.7524 4.125C7.08153 3.55493 7.55493 3.08154 8.125 2.75241C8.60625 2.47455 9.13605 2.35826 9.7424 2.3033C10.3307 2.24998 11.06 2.24999 11.9642 2.25ZM8.44361 11.25C8.40697 11.25 8.37058 11.25 8.33443 11.25H7.75V8C7.75 7.05158 7.75072 6.39041 7.79718 5.87779C7.8427 5.37549 7.92737 5.0899 8.05144 4.875C8.24892 4.53296 8.53296 4.24892 8.875 4.05144C9.0899 3.92737 9.37548 3.84271 9.87779 3.79718C10.3904 3.75072 11.0516 3.75 12 3.75C12.9484 3.75 13.6096 3.75072 14.1222 3.79718C14.6245 3.84271 14.9101 3.92737 15.125 4.05144C15.467 4.24892 15.7511 4.53296 15.9486 4.875C16.0726 5.0899 16.1573 5.37549 16.2028 5.87779C16.2493 6.39041 16.25 7.05158 16.25 8V11.25H15.6656C15.6294 11.25 15.593 11.25 15.5564 11.25H8.44361ZM8.5 12.75C7.65091 12.75 7.10014 12.7521 6.69368 12.8145C6.32017 12.8719 6.17679 12.9656 6.07699 13.0797C5.95079 13.2239 5.84323 13.4641 5.79158 14.065C5.75081 14.5393 5.72963 14.8098 5.74268 15.0048C5.74848 15.0915 5.75993 15.1324 5.76584 15.1487C5.76967 15.1592 5.77175 15.1623 5.77794 15.169L5.77913 15.1703C5.7791 15.1703 5.77914 15.1703 5.77913 15.1703L5.78221 15.1723C5.78398 15.1733 5.78711 15.1749 5.79195 15.1771C5.81284 15.1863 5.86132 15.2028 5.96084 15.2171C6.17888 15.2482 6.4849 15.25 7 15.25H17C17.5151 15.25 17.8211 15.2482 18.0392 15.2171C18.1387 15.2028 18.1872 15.1863 18.208 15.1771C18.2129 15.1749 18.216 15.1733 18.2178 15.1723L18.2204 15.1707C18.2205 15.1706 18.2205 15.1706 18.2204 15.1707L18.2221 15.169C18.2282 15.1623 18.2303 15.1592 18.2342 15.1487C18.2401 15.1324 18.2515 15.0915 18.2573 15.0048C18.2704 14.8098 18.2492 14.5393 18.2084 14.065C18.1568 13.4641 18.0492 13.2239 17.923 13.0797C17.8232 12.9656 17.6798 12.8719 17.3063 12.8145C16.8999 12.7521 16.3491 12.75 15.5 12.75H8.5Z" fill="currentColors"/>
</svg>
