<svg width="24" height="24" viewBox="0 0 24 24" fill="currentColors" xmlns="http://www.w3.org/2000/svg">
<path fill-rule="evenodd" clip-rule="evenodd" d="M8.55748 4.32787C8.83457 4.63576 8.80961 5.10997 8.50173 5.38707L6.80526 6.91389C6.01739 7.62298 5.48618 8.10338 5.14209 8.51241C4.81183 8.90499 4.7397 9.13417 4.7397 9.3296C4.7397 9.52502 4.81183 9.75421 5.14209 10.1468C5.48618 10.5558 6.01739 11.0362 6.80526 11.7453L8.50173 13.2721C8.80961 13.5492 8.83457 14.0234 8.55748 14.3313C8.28038 14.6392 7.80616 14.6642 7.49828 14.3871L5.76079 12.8233C5.02445 12.1607 4.41365 11.611 3.99423 11.1124C3.55321 10.5882 3.2397 10.0249 3.2397 9.3296C3.2397 8.6343 3.55321 8.07104 3.99423 7.54679C4.41365 7.04822 5.02445 6.49853 5.76079 5.83587C5.77442 5.8236 5.7881 5.81129 5.80181 5.79895L7.49828 4.27213C7.80616 3.99503 8.28038 4.01999 8.55748 4.32787ZM14.1795 4.27517C14.5798 4.38157 14.8181 4.79234 14.7117 5.19266L10.7248 20.1927C10.6184 20.593 10.2077 20.8312 9.80735 20.7248C9.40704 20.6184 9.16877 20.2077 9.27517 19.8074L13.262 4.80735C13.3684 4.40704 13.7792 4.16877 14.1795 4.27517ZM15.4425 10.4983C15.7196 10.1904 16.1938 10.1654 16.5017 10.4425L18.2392 12.0063C18.9756 12.6689 19.5864 13.2186 20.0058 13.7172C20.4468 14.2415 20.7603 14.8047 20.7603 15.5C20.7603 16.1953 20.4468 16.7586 20.0058 17.2828C19.5864 17.7814 18.9756 18.3311 18.2392 18.9937L16.5017 20.5575C16.1938 20.8346 15.7196 20.8096 15.4425 20.5017C15.1654 20.1938 15.1904 19.7196 15.4983 19.4425L17.1948 17.9157C17.9826 17.2066 18.5138 16.7262 18.8579 16.3172C19.1882 15.9246 19.2603 15.6954 19.2603 15.5C19.2603 15.3046 19.1882 15.0754 18.8579 14.6828C18.5138 14.2738 17.9826 13.7934 17.1948 13.0843L15.4983 11.5575C15.1904 11.2804 15.1654 10.8062 15.4425 10.4983Z" fill="currentColors"/>
</svg>
