<svg width="24" height="24" viewBox="0 0 24 24" fill="currentColors" xmlns="http://www.w3.org/2000/svg">
<path d="M9.00001 17.25C8.58579 17.25 8.25001 17.5858 8.25001 18C8.25001 18.4142 8.58579 18.75 9.00001 18.75H15C15.4142 18.75 15.75 18.4142 15.75 18C15.75 17.5858 15.4142 17.25 15 17.25H9.00001Z" fill="currentColors"/>
<path fill-rule="evenodd" clip-rule="evenodd" d="M12 1.25C11.2937 1.25 10.845 1.74936 10.5433 2.19718C10.2372 2.65167 9.91764 3.30649 9.53883 4.08283L7.27605 8.71959C7.05702 9.16843 6.91611 9.45523 6.79385 9.65422C6.709 9.79233 6.66264 9.83677 6.65178 9.8462C6.62053 9.86072 6.59139 9.86537 6.56454 9.86347C6.5472 9.85385 6.49861 9.82316 6.40926 9.74055C6.24718 9.59068 6.04538 9.36242 5.72535 8.9981L5.69625 8.96497C5.12356 8.313 4.65576 7.78042 4.27045 7.42022C4.07287 7.23552 3.86522 7.0653 3.64696 6.9433C3.42503 6.81924 3.14635 6.71955 2.82837 6.74748C2.3553 6.78903 1.93553 7.02828 1.64122 7.38387C1.28615 7.81286 1.24619 8.41259 1.25022 8.93104C1.25458 9.4911 1.32454 10.2344 1.41148 11.158L1.64882 13.6798C1.83381 15.6455 1.9787 17.185 2.22968 18.381C2.48537 19.5995 2.86976 20.5636 3.60378 21.3145C4.34884 22.0767 5.26433 22.4254 6.3957 22.5909C7.48399 22.75 8.85866 22.75 10.5806 22.75H13.4194C15.1413 22.75 16.516 22.75 17.6043 22.5909C18.7357 22.4254 19.6512 22.0767 20.3962 21.3145C21.1302 20.5636 21.5146 19.5995 21.7703 18.381C22.0213 17.185 22.1662 15.6455 22.3512 13.6798L22.5885 11.158C22.6755 10.2344 22.7454 9.49109 22.7498 8.93104C22.7538 8.41259 22.7139 7.81286 22.3588 7.38387C22.0645 7.02828 21.6447 6.78903 21.1716 6.74748C20.8537 6.71955 20.575 6.81924 20.353 6.9433C20.1348 7.0653 19.9271 7.23552 19.7296 7.42022C19.3442 7.78043 18.8764 8.313 18.3037 8.96498L18.2747 8.9981C17.9546 9.36242 17.7528 9.59068 17.5907 9.74055C17.5014 9.82316 17.4528 9.85385 17.4355 9.86347C17.4086 9.86537 17.3795 9.86072 17.3482 9.8462C17.3374 9.83677 17.291 9.79232 17.2062 9.65422C17.0839 9.45523 16.943 9.16842 16.724 8.71958L14.4612 4.08282C14.0824 3.30648 13.7628 2.65167 13.4567 2.19717C13.155 1.74935 12.7064 1.25 12 1.25ZM10.861 4.79379C11.2727 3.95013 11.547 3.39205 11.7874 3.03525C11.8892 2.88414 11.9591 2.80859 12 2.7722C12.0409 2.80859 12.1108 2.88414 12.2126 3.03525C12.453 3.39205 12.7273 3.95013 13.139 4.79378L15.3916 9.40969C15.5903 9.81688 15.763 10.1707 15.9281 10.4395C16.0972 10.7147 16.3202 11.0082 16.6676 11.183C16.981 11.3408 17.3342 11.3987 17.6837 11.3435C18.077 11.2813 18.3754 11.0579 18.6091 10.8419C18.8356 10.6325 19.0891 10.3438 19.3767 10.0164L19.4016 9.98804C20.0104 9.29494 20.4294 8.81934 20.7539 8.51599C20.9145 8.36587 21.0201 8.28889 21.0849 8.25262L21.0858 8.25213C21.1196 8.26445 21.1588 8.28885 21.1975 8.33351C21.1974 8.33348 21.1975 8.33349 21.1975 8.33351C21.1972 8.33368 21.1976 8.33563 21.199 8.33985C21.2083 8.36967 21.253 8.51152 21.2498 8.91937C21.246 9.40668 21.1829 10.0849 21.0915 11.056L20.8623 13.4913C20.6718 15.5153 20.5338 16.9699 20.3023 18.0729C20.0735 19.1632 19.7722 19.8071 19.3236 20.266C18.886 20.7136 18.324 20.9697 17.3873 21.1067C16.4199 21.2481 15.155 21.25 13.3599 21.25H10.6401C8.84498 21.25 7.58007 21.2481 6.61276 21.1067C5.67602 20.9697 5.11397 20.7136 4.67641 20.266C4.22782 19.8071 3.92649 19.1632 3.6977 18.0729C3.46624 16.9699 3.3282 15.5153 3.13771 13.4913L2.90851 11.056C2.81712 10.0849 2.75397 9.40668 2.75018 8.91937C2.74701 8.5116 2.7915 8.36975 2.80086 8.3399C2.80219 8.33567 2.80281 8.33368 2.80249 8.33352C2.8412 8.28885 2.88041 8.26445 2.91418 8.25213L2.91507 8.25262C2.97995 8.28889 3.08551 8.36587 3.2461 8.51599C3.5706 8.81934 3.98957 9.29494 4.5984 9.98804L4.62328 10.0164C4.91086 10.3438 5.16441 10.6325 5.39092 10.8419C5.62458 11.0579 5.92302 11.2813 6.31631 11.3435C6.66583 11.3987 7.01898 11.3408 7.33242 11.183C7.67979 11.0082 7.90279 10.7147 8.07189 10.4395C8.23703 10.1707 8.40965 9.81692 8.60833 9.40976L10.861 4.79379ZM21.1975 8.33351C21.1994 8.33572 21.2013 8.33797 21.2032 8.34028C21.2008 8.33738 21.1992 8.3353 21.1983 8.33425C21.1979 8.33385 21.1977 8.3336 21.1975 8.33351ZM12.0441 2.74096C12.044 2.74143 12.0409 2.74333 12.0348 2.74527C12.0411 2.74146 12.0441 2.74049 12.0441 2.74096ZM11.9652 2.74527C11.9591 2.74333 11.956 2.74143 11.9559 2.74096C11.9559 2.74049 11.9589 2.74146 11.9652 2.74527Z" fill="currentColors"/>
</svg>
