<svg width="24" height="24" viewBox="0 0 24 24" fill="currentColors" xmlns="http://www.w3.org/2000/svg">
<path fill-rule="evenodd" clip-rule="evenodd" d="M17.3103 2.77541C17.1477 2.80611 16.9386 2.85963 16.6132 2.94357L13.9018 3.64293C13.5763 3.72689 13.3675 3.78113 13.2109 3.83275C13.0601 3.88248 13.0105 3.91362 12.9911 3.92797C12.8541 4.02911 12.7719 4.17242 12.7514 4.32185C12.7495 4.33626 12.745 4.38512 12.7748 4.53165C12.8061 4.68501 12.8608 4.88336 12.9483 5.19765C13.0358 5.51186 13.0914 5.71009 13.1441 5.85812C13.1942 5.99906 13.2242 6.04159 13.2361 6.05658C13.3361 6.18207 13.4888 6.27123 13.6654 6.29587C13.6686 6.29562 13.6973 6.29577 13.7613 6.28797C13.8419 6.27813 13.9464 6.25985 14.0744 6.23299C14.3316 6.179 14.6354 6.10079 14.9559 6.01813C15.3516 5.91607 15.7561 6.14957 15.8657 6.54324L17.5458 12.579C17.5998 12.773 17.5735 12.9806 17.4728 13.155C17.3722 13.3294 17.2056 13.456 17.0106 13.5063C16.6901 13.589 16.3864 13.6675 16.1357 13.7445C16.0109 13.7828 15.9111 13.8172 15.8366 13.8474C15.7814 13.8697 15.7569 13.883 15.7524 13.8852C15.6206 13.986 15.5413 14.1264 15.5213 14.2727C15.5193 14.2871 15.5148 14.336 15.5447 14.4825C15.5759 14.6358 15.6307 14.8342 15.7182 15.1485C15.8057 15.4627 15.8613 15.6609 15.9139 15.809C15.9641 15.9499 15.994 15.9924 16.006 16.0074C16.1077 16.135 16.2638 16.225 16.4441 16.2479C16.4723 16.2515 16.5336 16.254 16.6897 16.2246C16.8523 16.1939 17.0614 16.1403 17.3868 16.0564L20.0982 15.357C20.4237 15.2731 20.6325 15.2188 20.7891 15.1672C20.9399 15.1175 20.9895 15.0863 21.0089 15.072C21.1459 14.9708 21.2281 14.8275 21.2486 14.6781C21.2505 14.6637 21.255 14.6148 21.2252 14.4683C21.1939 14.3149 21.1391 14.1166 21.0517 13.8023C20.9642 13.4881 20.9086 13.2899 20.8559 13.1418C20.8058 13.0009 20.7758 12.9584 20.7639 12.9434C20.6639 12.8179 20.5112 12.7287 20.3346 12.7041C20.3314 12.7043 20.3027 12.7042 20.2387 12.712C20.1581 12.7218 20.0536 12.7401 19.9256 12.767C19.6684 12.821 19.3646 12.8992 19.0441 12.9818C18.6484 13.0839 18.2439 12.8504 18.1343 12.4567L16.4542 6.42096C16.4002 6.22695 16.4265 6.01937 16.5272 5.84494C16.6278 5.67052 16.7944 5.54391 16.9894 5.49361C17.3099 5.41095 17.6136 5.33245 17.8643 5.25544C17.9891 5.21712 18.0889 5.18271 18.1634 5.15258C18.2186 5.13028 18.2431 5.11694 18.2476 5.11473C18.3794 5.014 18.4587 4.87357 18.4787 4.72728C18.4807 4.71286 18.4851 4.66401 18.4553 4.51748C18.424 4.36412 18.3693 4.16576 18.2818 3.85148C18.1943 3.53727 18.1387 3.33903 18.0861 3.19101C18.0359 3.05006 18.006 3.00753 17.994 2.99254C17.8923 2.86496 17.7362 2.77492 17.5559 2.75207C17.5277 2.7485 17.4664 2.74592 17.3103 2.77541ZM17.032 1.30145C17.2608 1.25824 17.4959 1.23247 17.7445 1.26397C18.3023 1.33467 18.8155 1.61659 19.167 2.05756C19.325 2.25578 19.4223 2.47187 19.4993 2.68827C19.5718 2.89206 19.6413 3.14184 19.7204 3.4261L19.7333 3.47248C19.8124 3.75663 19.882 4.00646 19.9251 4.218C19.9708 4.44212 19.9993 4.6785 19.9649 4.93053C19.8881 5.49162 19.584 5.99257 19.1303 6.3277C18.9979 6.42547 18.8455 6.4948 18.7255 6.5433C18.5952 6.59594 18.4503 6.64462 18.3047 6.68933C18.2396 6.70935 18.1719 6.72929 18.1026 6.74908L19.3835 11.351C19.4634 11.3324 19.5418 11.3148 19.6174 11.299C19.8767 11.2445 20.2314 11.1789 20.5143 11.2148C21.0722 11.2855 21.5853 11.5674 21.9368 12.0084C22.0948 12.2066 22.1922 12.4227 22.2692 12.6391C22.3417 12.8429 22.4112 13.0927 22.4903 13.377L22.5032 13.4233C22.5823 13.7075 22.6519 13.9573 22.695 14.1688C22.7406 14.393 22.7692 14.6293 22.7347 14.8814C22.658 15.4425 22.3538 15.9434 21.9001 16.2785C21.6981 16.4278 21.479 16.5192 21.2587 16.5918C21.0493 16.6608 20.792 16.7272 20.4953 16.8037L17.7392 17.5146C17.4423 17.5912 17.1851 17.6575 16.968 17.6985C16.7392 17.7417 16.5041 17.7675 16.2555 17.736C15.6977 17.6653 15.1845 17.3834 14.833 16.9424C14.675 16.7442 14.5777 16.5281 14.5007 16.3117C14.4282 16.1079 14.3587 15.8581 14.2796 15.5738L14.2667 15.5275C14.1876 15.2433 14.118 14.9935 14.0749 14.782C14.0292 14.5578 14.0007 14.3215 14.0351 14.0694C14.1119 13.5083 14.416 13.0074 14.8697 12.6723C15.0021 12.5745 15.1545 12.5052 15.2745 12.4567C15.4048 12.404 15.5497 12.3553 15.6952 12.3106C15.7604 12.2906 15.8281 12.2707 15.8974 12.2509L14.6165 7.64899C14.5365 7.6676 14.4582 7.68511 14.3826 7.70099C14.1233 7.75541 13.7686 7.82101 13.4856 7.78515C12.9278 7.71446 12.4147 7.43254 12.0632 6.99157C11.9052 6.79334 11.8078 6.57726 11.7308 6.36086C11.6583 6.15705 11.5888 5.90726 11.5097 5.62298L11.4968 5.57666C11.4177 5.29251 11.3481 5.04266 11.305 4.83112C11.2594 4.607 11.2308 4.37062 11.2653 4.11859C11.342 3.5575 11.6461 3.05656 12.0999 2.72143C12.3019 2.57218 12.521 2.48078 12.7413 2.40815C12.9507 2.33914 13.208 2.27277 13.5048 2.19624L16.2608 1.48537C16.5577 1.40879 16.8149 1.34243 17.032 1.30145ZM6.1117 6.34163L9.09706 6.70083C9.42044 6.73973 9.6974 6.77304 9.92421 6.81504C10.1617 6.859 10.3962 6.92095 10.6208 7.04059C11.1293 7.3114 11.5184 7.76826 11.6807 8.3255C11.7538 8.57644 11.7582 8.82022 11.7428 9.05334C11.7283 9.27273 11.6917 9.53403 11.6501 9.83007L11.6432 9.87949C11.6017 10.1757 11.565 10.4369 11.5186 10.6523C11.469 10.8817 11.3979 11.1136 11.2606 11.3348C10.9558 11.8256 10.4639 12.1687 9.90614 12.308C9.62747 12.3777 9.2582 12.3589 8.9775 12.3375C8.88373 12.3303 8.7858 12.3214 8.68565 12.3114L8.00923 17.1337C8.09866 17.1465 8.18592 17.1597 8.26953 17.1735C8.54539 17.219 8.91029 17.2883 9.16441 17.4237C9.67286 17.6945 10.0619 18.1514 10.2243 18.7086C10.2974 18.9595 10.3018 19.2033 10.2864 19.4364C10.2719 19.6558 10.2353 19.9171 10.1937 20.2132L10.1868 20.2625C10.1453 20.5587 10.1086 20.82 10.0621 21.0354C10.0126 21.2648 9.94149 21.4967 9.80415 21.7179C9.49938 22.2087 9.00743 22.5518 8.44971 22.6911C8.20323 22.7527 7.96148 22.7574 7.71945 22.7436C7.48869 22.7306 7.21176 22.6973 6.88825 22.6583L3.90304 22.2991C3.57961 22.2602 3.30262 22.2269 3.07578 22.1849C2.83833 22.141 2.60378 22.079 2.37916 21.9594C1.8707 21.6886 1.48163 21.2317 1.31931 20.6745C1.24621 20.4235 1.24178 20.1797 1.25717 19.9466C1.27165 19.7272 1.30832 19.4659 1.34986 19.1698L1.35678 19.1205C1.39832 18.8243 1.43495 18.563 1.48144 18.3476C1.53095 18.1183 1.60207 17.8863 1.73941 17.6651C2.04418 17.1743 2.53614 16.8313 3.09386 16.6919C3.37253 16.6223 3.7418 16.6411 4.02249 16.6625C4.11627 16.6696 4.2142 16.6785 4.31434 16.6885L4.99076 11.8662C4.90134 11.8535 4.81407 11.8403 4.73047 11.8265C4.4546 11.781 4.08971 11.7116 3.83559 11.5763C3.32713 11.3055 2.93806 10.8486 2.77574 10.2914C2.70264 10.0404 2.69821 9.79664 2.7136 9.56352C2.72808 9.34412 2.76475 9.08281 2.80629 8.78675L2.81321 8.73737C2.85475 8.44118 2.89138 8.17993 2.93787 7.96454C2.98738 7.73517 3.0585 7.50323 3.19584 7.28204C3.50061 6.79121 3.99257 6.44818 4.55029 6.30882C4.79676 6.24724 5.03852 6.24261 5.28055 6.25631C5.5113 6.26938 5.78821 6.3027 6.1117 6.34163ZM5.19574 7.75391C5.02405 7.74419 4.95216 7.75452 4.9139 7.76408C4.71232 7.81445 4.55746 7.93272 4.47017 8.0733C4.46049 8.08889 4.43585 8.13396 4.40411 8.28103C4.37063 8.43613 4.34125 8.64222 4.29522 8.97035C4.24918 9.29857 4.22075 9.50466 4.21034 9.66233C4.20043 9.81238 4.21216 9.85908 4.21588 9.87185C4.25795 10.0163 4.36505 10.1569 4.53507 10.2493C4.53507 10.2493 4.53507 10.2493 4.53507 10.2493C4.53523 10.2489 4.56457 10.2612 4.64035 10.2803C4.7256 10.3017 4.83734 10.3238 4.97461 10.3465C5.25027 10.3919 5.58147 10.4319 5.92858 10.4737C6.1286 10.4978 6.31052 10.6013 6.43338 10.761C6.55624 10.9206 6.6097 11.123 6.58171 11.3225L5.6983 17.6205C5.64156 18.025 5.27154 18.3097 4.86598 18.2609C4.51891 18.2191 4.18763 18.1794 3.9085 18.1582C3.76953 18.1476 3.65516 18.1425 3.56645 18.143C3.48544 18.1435 3.45293 18.1488 3.45287 18.1484C3.45274 18.1484 3.45287 18.1484 3.45287 18.1484C3.25344 18.1994 3.10039 18.3169 3.01374 18.4564C3.00406 18.472 2.97942 18.5171 2.94767 18.6641C2.9142 18.8192 2.88481 19.0253 2.83879 19.3535C2.79275 19.6817 2.76432 19.8878 2.75391 20.0454C2.744 20.1955 2.75573 20.2422 2.75945 20.255C2.80198 20.4009 2.91099 20.5431 3.08429 20.6354C3.11532 20.652 3.17987 20.6787 3.34886 20.71C3.52327 20.7423 3.75254 20.7702 4.10457 20.8126L7.04515 21.1664C7.39712 21.2087 7.62658 21.236 7.80426 21.246C7.97594 21.2558 8.04783 21.2454 8.08609 21.2359C8.28767 21.1855 8.44253 21.0672 8.52982 20.9267C8.5395 20.9111 8.56414 20.866 8.59589 20.7189C8.62937 20.5638 8.65875 20.3577 8.70478 20.0296C8.75081 19.7014 8.77925 19.4953 8.78965 19.3376C8.79956 19.1876 8.78783 19.1409 8.78411 19.1281C8.74205 18.9837 8.63494 18.843 8.46493 18.7507C8.46477 18.751 8.43543 18.7387 8.35964 18.7197C8.27439 18.6983 8.16265 18.6761 8.02538 18.6535C7.74972 18.608 7.41852 18.568 7.07142 18.5263C6.8714 18.5022 6.68947 18.3987 6.56661 18.239C6.44375 18.0793 6.3903 17.877 6.41828 17.6774L7.30169 11.3795C7.35843 10.975 7.72846 10.6903 8.13401 10.7391C8.48109 10.7808 8.81237 10.8205 9.0915 10.8418C9.23047 10.8524 9.34483 10.8574 9.43354 10.8569C9.51455 10.8564 9.54706 10.8512 9.54712 10.8516C9.54713 10.8516 9.54726 10.8515 9.54712 10.8516C9.74656 10.8006 9.8996 10.6831 9.98625 10.5436C9.99594 10.528 10.0206 10.4829 10.0523 10.3358C10.0858 10.1807 10.1152 9.97463 10.1612 9.6465C10.2072 9.31829 10.2357 9.1122 10.2461 8.95453C10.256 8.80447 10.2443 8.75778 10.2405 8.745C10.198 8.59901 10.089 8.45682 9.91571 8.36452C9.88468 8.348 9.82013 8.32126 9.65113 8.28997C9.47672 8.25768 9.24744 8.22974 8.89542 8.18738L5.95484 7.83358C5.60288 7.79123 5.37342 7.76397 5.19574 7.75391ZM9.54252 10.8528C9.54491 10.8522 9.54661 10.8517 9.54712 10.8516L9.54252 10.8528Z" fill="currentColors"/>
</svg>
