<svg width="24" height="24" viewBox="0 0 24 24" fill="currentColors" xmlns="http://www.w3.org/2000/svg">
<path fill-rule="evenodd" clip-rule="evenodd" d="M6.85926 1.25001C6.88901 1.25001 6.91916 1.25002 6.94973 1.25002L6.98672 1.25001C7.33815 1.24999 7.5643 1.24998 7.78539 1.27065C8.73667 1.35961 9.63902 1.73337 10.3746 2.34313C10.5455 2.48485 10.7054 2.64477 10.9539 2.89329L11.5303 3.46969C12.376 4.3154 12.7012 4.6311 13.0767 4.84005C13.2948 4.96134 13.526 5.05713 13.7659 5.12552C14.1792 5.24333 14.6324 5.25002 15.8284 5.25002L16.253 5.25002C17.5259 5.25 18.5521 5.24998 19.364 5.35206C20.2054 5.45784 20.9203 5.68358 21.5077 6.21185C21.6061 6.30032 21.6997 6.39394 21.7882 6.49231C22.3164 7.07965 22.5422 7.79459 22.6479 8.63601C22.75 9.4479 22.75 10.4741 22.75 11.747V14.0564C22.75 15.8942 22.75 17.3498 22.5969 18.489C22.4392 19.6615 22.1071 20.6104 21.3587 21.3588C20.6104 22.1071 19.6614 22.4393 18.489 22.5969C17.3498 22.75 15.8942 22.75 14.0564 22.75H9.94357C8.10581 22.75 6.65018 22.75 5.51096 22.5969C4.33854 22.4393 3.38959 22.1071 2.64123 21.3588C1.89287 20.6104 1.56075 19.6615 1.40312 18.489C1.24996 17.3498 1.24997 15.8942 1.24999 14.0564L1.24999 6.94976C1.24999 6.91919 1.24998 6.88904 1.24998 6.85929C1.24987 6.06338 1.24979 5.55685 1.33234 5.11935C1.69487 3.19788 3.19785 1.6949 5.11932 1.33237C5.55682 1.24982 6.06335 1.2499 6.85926 1.25001ZM6.94973 2.75002C6.03309 2.75002 5.6787 2.75329 5.39742 2.80636C4.08274 3.05441 3.05438 4.08277 2.80633 5.39746C2.75326 5.67873 2.74999 6.03312 2.74999 6.94976V14C2.74999 15.9068 2.75158 17.2615 2.88974 18.2892C3.02501 19.2953 3.27868 19.8749 3.70189 20.2981C4.1251 20.7213 4.70475 20.975 5.71083 21.1103C6.7385 21.2484 8.09317 21.25 9.99999 21.25H14C15.9068 21.25 17.2615 21.2484 18.2891 21.1103C19.2952 20.975 19.8749 20.7213 20.2981 20.2981C20.7213 19.8749 20.975 19.2953 21.1102 18.2892C21.2484 17.2615 21.25 15.9068 21.25 14V11.7979C21.25 10.4621 21.2486 9.5305 21.1597 8.82312C21.0731 8.13448 20.9141 7.76356 20.6729 7.49539C20.6198 7.43637 20.5636 7.3802 20.5046 7.32712C20.2364 7.08592 19.8655 6.92692 19.1769 6.84034C18.4695 6.75141 17.5379 6.75002 16.2021 6.75002H15.8284C15.7912 6.75002 15.7545 6.75002 15.7182 6.75003C14.6702 6.75025 13.9944 6.75038 13.3547 6.56806C13.0041 6.46811 12.6661 6.32811 12.3475 6.15083C11.7663 5.82747 11.2885 5.3495 10.5476 4.60833C10.5219 4.58265 10.496 4.55666 10.4697 4.53035L9.9194 3.98009C9.63613 3.69682 9.52775 3.58951 9.41728 3.49793C8.914 3.08073 8.29661 2.825 7.64573 2.76413C7.50286 2.75077 7.35035 2.75002 6.94973 2.75002ZM12 11.0345C11.9419 11.1352 11.8772 11.251 11.801 11.3877L11.7027 11.5641C11.6958 11.5765 11.6883 11.5901 11.6804 11.6047C11.6018 11.7483 11.4718 11.9861 11.255 12.1507C11.0336 12.3188 10.7673 12.3766 10.6116 12.4104C10.596 12.4138 10.5815 12.4169 10.5683 12.4199L10.3774 12.4631C10.2022 12.5028 10.0595 12.5351 9.93748 12.5658C10.0168 12.6635 10.1199 12.7848 10.254 12.9416L10.3842 13.0937C10.3934 13.1045 10.4034 13.1161 10.4141 13.1284C10.5221 13.2527 10.6963 13.4535 10.7769 13.7126C10.8566 13.9687 10.8291 14.2324 10.8118 14.3988C10.81 14.4154 10.8084 14.4311 10.807 14.4456L10.7873 14.6487C10.7691 14.8369 10.7549 14.9872 10.7454 15.1094C10.8496 15.0635 10.9682 15.009 11.109 14.9441L11.2878 14.8618C11.3001 14.8561 11.3135 14.8498 11.3281 14.8429C11.4716 14.7752 11.7213 14.6575 12 14.6575C12.2787 14.6575 12.5283 14.7752 12.6718 14.8429C12.6864 14.8498 12.6999 14.8561 12.7122 14.8618L12.891 14.9441C13.0318 15.009 13.1503 15.0635 13.2545 15.1094C13.2451 14.9872 13.2309 14.8369 13.2127 14.6487L13.193 14.4456C13.1916 14.4311 13.1899 14.4154 13.1882 14.3988C13.1709 14.2324 13.1434 13.9687 13.2231 13.7126C13.3036 13.4535 13.4779 13.2527 13.5858 13.1284C13.5965 13.1161 13.6066 13.1045 13.6158 13.0937L13.746 12.9416C13.88 12.7848 13.9831 12.6635 14.0625 12.5658C13.9405 12.5351 13.7978 12.5028 13.6226 12.4631L13.4317 12.4199C13.4185 12.4169 13.404 12.4138 13.3884 12.4104C13.2327 12.3766 12.9664 12.3188 12.745 12.1507C12.5282 11.9861 12.3981 11.7483 12.3196 11.6047C12.3116 11.5901 12.3042 11.5765 12.2973 11.5641L12.1989 11.3877C12.1228 11.251 12.0581 11.1352 12 11.0345ZM11.0135 9.79965C11.1856 9.57483 11.4983 9.25002 12 9.25002C12.5017 9.25002 12.8143 9.57483 12.9865 9.79965C13.1508 10.0142 13.3163 10.3113 13.486 10.6158C13.4937 10.6296 13.5014 10.6435 13.5091 10.6574L13.6074 10.8337C13.6302 10.8746 13.6482 10.9068 13.6639 10.9343C13.6912 10.9407 13.723 10.9479 13.7627 10.9569L13.9536 11.0001C13.9693 11.0037 13.9849 11.0072 14.0006 11.0107C14.3284 11.0848 14.6541 11.1584 14.9042 11.257C15.1804 11.3658 15.5547 11.5777 15.6989 12.0416C15.8406 12.4974 15.6618 12.8834 15.5056 13.1315C15.3611 13.3611 15.1414 13.6179 14.9165 13.8808C14.9063 13.8926 14.8961 13.9045 14.886 13.9164L14.7558 14.0686C14.7213 14.109 14.6953 14.1394 14.6734 14.1657C14.6764 14.202 14.6805 14.2443 14.686 14.3009L14.7057 14.504C14.7072 14.5195 14.7087 14.535 14.7102 14.5504C14.7444 14.9023 14.7774 15.2424 14.7653 15.5145C14.7526 15.7997 14.6841 16.2315 14.2969 16.5255C13.8975 16.8287 13.4564 16.7626 13.1767 16.6824C12.9189 16.6086 12.6144 16.4683 12.3077 16.3269C12.293 16.3202 12.2783 16.3134 12.2636 16.3066L12.0849 16.2243C12.0514 16.2089 12.0239 16.1963 12 16.1854C11.976 16.1963 11.9486 16.2089 11.9151 16.2243L11.7364 16.3066C11.7217 16.3134 11.707 16.3202 11.6923 16.3269C11.3856 16.4683 11.081 16.6086 10.8233 16.6824C10.5436 16.7626 10.1025 16.8287 9.70305 16.5255C9.31588 16.2315 9.24742 15.7997 9.23471 15.5145C9.22259 15.2424 9.25562 14.9023 9.2898 14.5504C9.2913 14.535 9.2928 14.5195 9.2943 14.504L9.31398 14.3009C9.31946 14.2443 9.32355 14.202 9.32653 14.1657C9.30464 14.1394 9.27865 14.109 9.24416 14.0686L9.11402 13.9164C9.10383 13.9045 9.09366 13.8926 9.08349 13.8808C8.85858 13.6179 8.63889 13.3611 8.49434 13.1315C8.33816 12.8834 8.15932 12.4974 8.30104 12.0416C8.4453 11.5777 8.81961 11.3658 9.09575 11.257C9.34583 11.1584 9.67161 11.0848 9.99942 11.0107C10.0151 11.0072 10.0307 11.0037 10.0463 11.0001L10.2372 10.9569C10.277 10.9479 10.3088 10.9407 10.3361 10.9343C10.3518 10.9068 10.3697 10.8746 10.3925 10.8337L10.4908 10.6574C10.4986 10.6435 10.5063 10.6296 10.514 10.6158C10.6837 10.3113 10.8492 10.0142 11.0135 9.79965Z" fill="currentColors"/>
</svg>
