<svg width="24" height="24" viewBox="0 0 24 24" fill="currentColors" xmlns="http://www.w3.org/2000/svg">
<path fill-rule="evenodd" clip-rule="evenodd" d="M7.87875 1.25001C7.90538 1.25001 7.93239 1.25002 7.95979 1.25002C7.97097 1.25002 7.982 1.25002 7.99289 1.25002C8.27061 1.24999 8.45614 1.24998 8.63795 1.26592C9.41874 1.33437 10.1645 1.62224 10.777 2.09821C10.9197 2.20917 11.053 2.33408 11.2481 2.51709L11.2727 2.54018L11.7129 2.95287C12.395 3.59227 12.6378 3.81125 12.9165 3.95661C13.082 4.0429 13.2582 4.11144 13.4419 4.16053C13.7546 4.24409 14.0998 4.25002 15.0627 4.25002L15.4086 4.25002C16.4216 4.25 17.2481 4.24998 17.9041 4.32731C18.5851 4.40757 19.1866 4.58062 19.6884 5.00374C19.7714 5.07373 19.8506 5.14796 19.9256 5.22617C20.3856 5.70563 20.5781 6.28918 20.6664 6.9475C20.75 7.57129 20.75 8.35367 20.75 9.29669V11.3288C20.9638 11.5453 21.1506 11.7879 21.3063 12.051C21.7052 12.7249 21.7874 13.4837 21.7365 14.3501C21.6869 15.1947 21.5018 16.2485 21.2702 17.5665L21.2551 17.6526C21.0892 18.5972 20.9549 19.3614 20.7844 19.9677C20.6079 20.5956 20.374 21.1273 19.9656 21.5725C19.7721 21.7835 19.5551 21.971 19.3188 22.1311C18.8173 22.4708 18.2616 22.6162 17.6254 22.6845C17.0148 22.75 16.261 22.75 15.3361 22.75H8.66384C7.73896 22.75 6.98523 22.75 6.37462 22.6845C5.73838 22.6162 5.18268 22.4708 4.68119 22.1311C4.44487 21.971 4.22787 21.7835 4.03435 21.5725C3.62601 21.1273 3.39212 20.5956 3.21555 19.9677C3.04505 19.3613 2.91081 18.5972 2.74486 17.6525L2.72973 17.5664C2.49819 16.2485 2.31305 15.1947 2.26347 14.3501C2.21261 13.4837 2.2948 12.7249 2.69364 12.051C2.84935 11.7879 3.03616 11.5453 3.24999 11.3288V5.71233C3.24999 5.68337 3.24998 5.65484 3.24997 5.62672C3.24981 5.04761 3.2497 4.6462 3.32021 4.29584C3.63014 2.75585 4.90255 1.59182 6.47607 1.3135C6.83603 1.24982 7.25059 1.2499 7.87875 1.25001ZM4.74999 10.4912C4.99043 10.4287 5.24367 10.384 5.50909 10.3511C6.32527 10.25 7.36391 10.25 8.6544 10.25H15.3456C16.6361 10.25 17.6747 10.25 18.4909 10.3511C18.7563 10.384 19.0095 10.4287 19.25 10.4912V9.34845C19.25 8.34037 19.2484 7.65926 19.1797 7.14687C19.1141 6.65764 18.9988 6.42679 18.8432 6.26461C18.805 6.22478 18.7644 6.18667 18.7215 6.15049C18.5388 5.99652 18.2716 5.88101 17.7286 5.817C17.1707 5.75124 16.4331 5.75002 15.3617 5.75002H15.0627C15.0292 5.75002 14.9961 5.75003 14.9634 5.75004C14.1359 5.75025 13.5812 5.75039 13.0546 5.60967C12.7658 5.5325 12.4867 5.4242 12.2228 5.28657C11.7396 5.03451 11.3423 4.66182 10.7589 4.11455C10.7352 4.09238 10.7113 4.06992 10.687 4.04717L10.2468 3.63448C10.0181 3.42006 9.9377 3.34569 9.85652 3.2826C9.4779 2.98835 9.00788 2.8041 8.50695 2.76018C8.3986 2.75069 8.28221 2.75002 7.95979 2.75002C7.2217 2.75002 6.95022 2.75291 6.73733 2.79057C5.72193 2.97017 4.96927 3.70465 4.79073 4.59178C4.7537 4.77576 4.74999 5.01416 4.74999 5.71233V10.4912ZM5.69356 11.8397C4.99599 11.9262 4.63633 12.0845 4.3884 12.3139C4.23164 12.4589 4.09541 12.6276 3.9845 12.815C3.80526 13.1179 3.7177 13.5265 3.7609 14.2622C3.80479 15.0099 3.97367 15.978 4.21542 17.3541C4.38981 18.3468 4.51186 19.0364 4.65955 19.5616C4.80349 20.0735 4.95302 20.355 5.13975 20.5585C5.25502 20.6842 5.38351 20.7951 5.52245 20.8892C5.74413 21.0394 6.03007 21.1389 6.53472 21.1931C7.05591 21.249 7.72894 21.25 8.7053 21.25H15.2947C16.271 21.25 16.9441 21.249 17.4653 21.1931C17.9699 21.1389 18.2559 21.0394 18.4775 20.8892C18.6165 20.7951 18.745 20.6842 18.8602 20.5585C19.047 20.355 19.1965 20.0735 19.3404 19.5616C19.4881 19.0364 19.6102 18.3468 19.7846 17.3541C20.0263 15.978 20.1952 15.0099 20.2391 14.2622C20.2823 13.5265 20.1947 13.1179 20.0155 12.815C19.9046 12.6276 19.7683 12.4589 19.6116 12.3139C19.3636 12.0845 19.004 11.9262 18.3064 11.8397C17.5933 11.7514 16.648 11.75 15.2947 11.75H8.7053C7.35199 11.75 6.40666 11.7514 5.69356 11.8397ZM9.24999 17C9.24999 16.5858 9.58578 16.25 9.99999 16.25H14C14.4142 16.25 14.75 16.5858 14.75 17C14.75 17.4142 14.4142 17.75 14 17.75H9.99999C9.58578 17.75 9.24999 17.4142 9.24999 17Z" fill="currentColors"/>
</svg>
