<svg width="24" height="24" viewBox="0 0 24 24" fill="currentColors" xmlns="http://www.w3.org/2000/svg">
<path fill-rule="evenodd" clip-rule="evenodd" d="M14.9999 2.25C15.4142 2.25 15.7499 2.58579 15.7499 3V4C15.7499 4.9665 14.9664 5.75 13.9999 5.75H12.9999C12.8619 5.75 12.7499 5.86193 12.7499 6V6.25H13.2828C14.5961 6.24999 15.6371 6.24998 16.4769 6.33283C17.3393 6.41791 18.0597 6.59536 18.7111 6.99393C19.0193 7.1825 19.3058 7.40357 19.5653 7.65336C20.1156 8.183 20.4601 8.83075 20.7435 9.63414C21.0185 10.4138 21.256 11.4025 21.5544 12.6449L22.6489 17.2015C23.1319 19.2123 21.8437 21.1948 19.8219 21.6539C18.1199 22.0404 16.3543 21.2355 15.5734 19.6838L15.4454 19.4294C15.0057 18.5559 14.0853 17.9899 13.0636 17.9899H10.9363C9.91459 17.9899 8.99418 18.5559 8.55452 19.4294L8.42652 19.6838C7.64558 21.2355 5.88003 22.0404 4.178 21.6539C2.15624 21.1948 0.867959 19.2123 1.35098 17.2015L2.44546 12.645C2.74389 11.4026 2.98139 10.4138 3.25638 9.63413C3.53975 8.83075 3.88431 8.183 4.43457 7.65336C4.69408 7.40357 4.98055 7.1825 5.28875 6.99393C5.94014 6.59536 6.66055 6.41791 7.52298 6.33283C8.36281 6.24998 9.40375 6.24999 10.7171 6.25H11.2499V6C11.2499 5.0335 12.0334 4.25 12.9999 4.25H13.9999C14.138 4.25 14.2499 4.13807 14.2499 4V3C14.2499 2.58579 14.5857 2.25 14.9999 2.25ZM10.7568 7.75C9.39492 7.75 8.42788 7.75085 7.67024 7.82559C6.92678 7.89893 6.45587 8.03831 6.07162 8.27342C5.85562 8.40558 5.65553 8.56011 5.4748 8.73407C5.15529 9.04161 4.91166 9.45069 4.67097 10.1331C4.42486 10.8308 4.20459 11.7438 3.89433 13.0355L2.80949 17.5518C2.52981 18.7162 3.26895 19.9093 4.51016 20.1911C5.55978 20.4295 6.62471 19.9273 7.08664 19.0094L7.21464 18.7551C7.91614 17.3613 9.36371 16.4899 10.9363 16.4899H13.0636C14.6362 16.4899 16.0838 17.3613 16.7852 18.7551L16.9132 19.0094C17.3752 19.9273 18.4401 20.4295 19.4897 20.1911C20.7309 19.9093 21.4701 18.7162 21.1904 17.5518L20.1056 13.0355C19.7953 11.7439 19.575 10.8308 19.3289 10.1331C19.0882 9.45069 18.8446 9.04161 18.5251 8.73407C18.3444 8.56011 18.1443 8.40558 17.9283 8.27342C17.544 8.03831 17.0731 7.89893 16.3296 7.82559C15.572 7.75085 14.605 7.75 13.2431 7.75H10.7568ZM8.49994 10.25C8.91416 10.25 9.24994 10.5858 9.24994 11V11.75H9.99994C10.4142 11.75 10.7499 12.0858 10.7499 12.5C10.7499 12.9142 10.4142 13.25 9.99994 13.25H9.24994V14C9.24994 14.4142 8.91416 14.75 8.49994 14.75C8.08573 14.75 7.74994 14.4142 7.74994 14V13.25H6.99994C6.58573 13.25 6.24994 12.9142 6.24994 12.5C6.24994 12.0858 6.58573 11.75 6.99994 11.75H7.74994V11C7.74994 10.5858 8.08573 10.25 8.49994 10.25Z" fill="currentColors"/>
<path d="M15.9999 11C15.9999 11.5523 15.5522 12 14.9999 12C14.4477 12 13.9999 11.5523 13.9999 11C13.9999 10.4477 14.4477 10 14.9999 10C15.5522 10 15.9999 10.4477 15.9999 11Z" fill="currentColors"/>
<path d="M17.9999 14C17.9999 14.5523 17.5522 15 16.9999 15C16.4477 15 15.9999 14.5523 15.9999 14C15.9999 13.4477 16.4477 13 16.9999 13C17.5522 13 17.9999 13.4477 17.9999 14Z" fill="currentColors"/>
</svg>
