<svg width="24" height="24" viewBox="0 0 24 24" fill="currentColors" xmlns="http://www.w3.org/2000/svg">
<path fill-rule="evenodd" clip-rule="evenodd" d="M10.2859 3.90909C10.2859 3.34219 10.8238 2.75 11.6599 2.75C12.496 2.75 13.0339 3.34219 13.0339 3.90909C13.0339 4.22136 12.9225 4.49112 12.7404 4.68925C12.6275 4.81206 12.503 4.93485 12.3612 5.07483L12.2799 5.15509C12.1114 5.32181 11.9234 5.51074 11.7515 5.71278C11.4862 6.02479 11.1987 6.43649 11.0932 6.94251C10.4658 7.04826 9.85597 7.28792 9.3195 7.66529L2.22381 12.6566C1.2968 13.3086 1.05829 14.3591 1.3959 15.2392C1.72801 16.105 2.58987 16.75 3.70254 16.75H5.259C5.24997 17.114 5.24999 17.5136 5.25 17.948V18.052C5.24997 18.9505 5.24995 19.6997 5.32991 20.2945C5.41432 20.9223 5.59999 21.4891 6.05546 21.9445C6.51093 22.4 7.07773 22.5857 7.70552 22.6701C8.3003 22.7501 9.04951 22.75 9.94798 22.75H14.052C14.9505 22.75 15.6997 22.7501 16.2945 22.6701C16.9223 22.5857 17.4891 22.4 17.9445 21.9445C18.4 21.4891 18.5857 20.9223 18.6701 20.2945C18.7501 19.6997 18.75 18.9505 18.75 18.052V17.948C18.75 17.5136 18.75 17.114 18.741 16.75H20.2975C21.4221 16.75 22.2877 16.0928 22.6127 15.2165C22.9431 14.3256 22.6859 13.2692 21.7362 12.629L14.3037 7.61866C13.8097 7.2856 13.2576 7.06682 12.6891 6.95888C12.7398 6.87796 12.8069 6.78721 12.8942 6.68456C13.0204 6.53616 13.1678 6.38672 13.3349 6.22141L13.4087 6.14851C13.5498 6.00942 13.7047 5.85668 13.8447 5.7044C14.2867 5.22354 14.5339 4.58928 14.5339 3.90909C14.5339 2.36727 13.1699 1.25 11.6599 1.25C10.1499 1.25 8.78589 2.36727 8.78589 3.90909C8.78589 4.3233 9.12168 4.65909 9.53589 4.65909C9.9501 4.65909 10.2859 4.3233 10.2859 3.90909ZM18.5859 15.25H20.2975C20.8058 15.25 21.1032 14.9729 21.2063 14.6949C21.304 14.4314 21.2545 14.1133 20.8978 13.8728L13.4653 8.86245C12.9827 8.53714 12.3995 8.373 11.8102 8.37985C11.2258 8.38665 10.6527 8.56138 10.1825 8.89216L3.08681 13.8834C2.74173 14.1262 2.6962 14.4407 2.79639 14.7019C2.90208 14.9775 3.19988 15.25 3.70254 15.25H5.41408C5.52314 14.8032 5.71306 14.3979 6.05546 14.0555C6.51093 13.6 7.07773 13.4143 7.70552 13.3299C8.3003 13.2499 9.04952 13.25 9.948 13.25H14.052C14.9505 13.25 15.6997 13.2499 16.2945 13.3299C16.9223 13.4143 17.4891 13.6 17.9445 14.0555C18.2869 14.3979 18.4769 14.8032 18.5859 15.25ZM7.11612 15.1161C7.24644 14.9858 7.44393 14.8786 7.90539 14.8165C8.38843 14.7516 9.03599 14.75 10 14.75H14C14.964 14.75 15.6116 14.7516 16.0946 14.8165C16.5561 14.8786 16.7536 14.9858 16.8839 15.1161C17.0142 15.2464 17.1214 15.4439 17.1835 15.9054C17.2484 16.3884 17.25 17.036 17.25 18C17.25 18.964 17.2484 19.6116 17.1835 20.0946C17.1214 20.5561 17.0142 20.7536 16.8839 20.8839C16.7536 21.0142 16.5561 21.1214 16.0946 21.1835C15.6116 21.2484 14.964 21.25 14 21.25H10C9.03599 21.25 8.38843 21.2484 7.90539 21.1835C7.44393 21.1214 7.24644 21.0142 7.11612 20.8839C6.9858 20.7536 6.87858 20.5561 6.81654 20.0946C6.7516 19.6116 6.75 18.964 6.75 18C6.75 17.036 6.7516 16.3884 6.81654 15.9054C6.87858 15.4439 6.9858 15.2464 7.11612 15.1161Z" fill="currentColors"/>
</svg>
