<svg width="24" height="24" viewBox="0 0 24 24" fill="currentColors" xmlns="http://www.w3.org/2000/svg">
<path fill-rule="evenodd" clip-rule="evenodd" d="M11.5 3.75C10.5335 3.75 9.75001 4.5335 9.75001 5.5C9.75001 6.4665 10.5335 7.25 11.5 7.25C12.4665 7.25 13.25 6.4665 13.25 5.5C13.25 4.5335 12.4665 3.75 11.5 3.75ZM8.25001 5.5C8.25001 3.70507 9.70508 2.25 11.5 2.25C13.2949 2.25 14.75 3.70507 14.75 5.5C14.75 7.29493 13.2949 8.75 11.5 8.75C9.70508 8.75 8.25001 7.29493 8.25001 5.5ZM19 6.25C19.4142 6.25 19.75 6.58579 19.75 7V21C19.75 21.4142 19.4142 21.75 19 21.75C18.5858 21.75 18.25 21.4142 18.25 21V10.9941C16.5565 11.9799 14.456 12.0665 12.6646 11.1708C12.6474 11.1622 12.6306 11.153 12.6141 11.1431C11.9234 10.7287 11.0363 11.1741 10.9562 11.9756L10.8875 12.6617C10.8294 13.243 11.1062 13.807 11.6016 14.1166L11.9349 14.3249C13.6852 15.4188 14.8215 17.2701 15.0044 19.3261L15.1474 20.9335C15.1841 21.3461 14.8794 21.7103 14.4668 21.747C14.0543 21.7838 13.69 21.4791 13.6533 21.0665L13.5103 19.4591C13.369 17.8713 12.4916 16.4417 11.1399 15.5969L10.8066 15.3886C9.82724 14.7765 9.28007 13.6616 9.39499 12.5125L9.4636 11.8264C9.65215 9.9409 11.7281 8.88835 13.3581 9.84044C14.9095 10.605 16.7667 10.3848 18.0965 9.27658L18.25 9.14869V7C18.25 6.58579 18.5858 6.25 19 6.25ZM9.19066 15.7746C9.59126 15.8799 9.83066 16.29 9.72537 16.6906L9.00001 16.5C9.72537 16.6906 9.72539 16.6906 9.72537 16.6906L9.72476 16.693L9.72353 16.6976L9.7192 16.7137L9.70331 16.7718C9.68956 16.8213 9.66956 16.892 9.64385 16.9791C9.59252 17.153 9.51788 17.3942 9.42417 17.665C9.24253 18.1898 8.96837 18.8881 8.62821 19.4097C8.27083 19.9577 7.70975 20.5113 7.27707 20.903C7.05382 21.1051 6.85088 21.2763 6.70352 21.3973C6.62968 21.4579 6.5694 21.5062 6.527 21.5398L6.47727 21.579L6.46341 21.5897L6.45941 21.5928L6.45816 21.5938C6.45809 21.5939 6.45742 21.5944 6.00001 21L6.45816 21.5938C6.1299 21.8464 5.65826 21.7857 5.40564 21.4574C5.15307 21.1292 5.21431 20.6584 5.54239 20.4058C5.54236 20.4058 5.54242 20.4058 5.54239 20.4058L5.54465 20.404L5.55441 20.3964L5.59539 20.3642C5.63173 20.3354 5.68527 20.2925 5.75179 20.2379C5.88515 20.1284 6.06907 19.9732 6.2704 19.7909C6.68687 19.4139 7.12579 18.9675 7.3718 18.5903C7.60605 18.2311 7.83189 17.6794 8.00666 17.1744C8.09114 16.9303 8.1588 16.7117 8.20522 16.5544C8.22838 16.476 8.24611 16.4133 8.25789 16.3708L8.27097 16.3231L8.27401 16.3117L8.27463 16.3094C8.27462 16.3094 8.27464 16.3094 8.27463 16.3094C8.38002 15.9089 8.79012 15.6694 9.19066 15.7746Z" fill="currentColors"/>
</svg>
