<svg width="24" height="24" viewBox="0 0 24 24" fill="currentColors" xmlns="http://www.w3.org/2000/svg">
<path fill-rule="evenodd" clip-rule="evenodd" d="M11.5 2.75C10.5335 2.75 9.74999 3.5335 9.74999 4.5C9.74999 5.4665 10.5335 6.25 11.5 6.25C12.4665 6.25 13.25 5.4665 13.25 4.5C13.25 3.5335 12.4665 2.75 11.5 2.75ZM8.24999 4.5C8.24999 2.70507 9.70506 1.25 11.5 1.25C13.2949 1.25 14.75 2.70507 14.75 4.5C14.75 6.29493 13.2949 7.75 11.5 7.75C9.70506 7.75 8.24999 6.29493 8.24999 4.5ZM19 7.25C19.4142 7.25 19.75 7.58579 19.75 8V10.4943C19.75 10.4978 19.75 10.5014 19.75 10.5049V22C19.75 22.4142 19.4142 22.75 19 22.75C18.5858 22.75 18.25 22.4142 18.25 22V11.9941C16.5564 12.9799 14.456 13.0665 12.6646 12.1708C12.6474 12.1622 12.6306 12.153 12.6141 12.1431C11.9234 11.7287 11.0363 12.1741 10.9562 12.9756L10.8876 13.6617C10.8294 14.243 11.1062 14.807 11.6016 15.1166L11.9349 15.3249C13.6852 16.4188 14.8215 18.2701 15.0044 20.3261L15.1474 21.9335C15.1841 22.3461 14.8794 22.7103 14.4668 22.747C14.0543 22.7838 13.69 22.4791 13.6533 22.0665L13.5103 20.4591C13.369 18.8713 12.4916 17.4417 11.1399 16.5969L10.8066 16.3886C9.82725 15.7765 9.28008 14.6616 9.395 13.5125L9.46361 12.8264C9.65216 10.9409 11.7282 9.88835 13.3581 10.8404C14.9095 11.605 16.7667 11.3848 18.0965 10.2766L18.25 10.1487V8C18.25 7.58579 18.5858 7.25 19 7.25ZM9.74863 9.95495C9.77351 10.3684 9.4585 10.7238 9.04504 10.7486L6.65644 10.8924C6.24341 10.9172 5.89085 11.2045 5.78302 11.608C5.68808 11.9632 5.80169 12.3411 6.07518 12.5843L8.16197 14.4395C8.47154 14.7147 8.49939 15.1887 8.22418 15.4983C7.94897 15.8079 7.47491 15.8357 7.16535 15.5605L5.07856 13.7053C4.38054 13.0848 4.09275 12.1229 4.33388 11.2207C4.60795 10.1952 5.50646 9.45887 6.56634 9.39509L8.95494 9.25135C9.3684 9.22647 9.72375 9.54148 9.74863 9.95495ZM9.19064 16.7746C9.59125 16.8799 9.83064 17.29 9.72535 17.6907L8.99999 17.5C9.72535 17.6907 9.72537 17.6906 9.72535 17.6907L9.72474 17.693L9.72351 17.6976L9.71918 17.7137L9.70329 17.7718C9.68954 17.8213 9.66954 17.892 9.64383 17.9791C9.5925 18.153 9.51786 18.3942 9.42415 18.665C9.24251 19.1898 8.96835 19.8881 8.6282 20.4097C8.27081 20.9577 7.70974 21.5113 7.27705 21.903C7.0538 22.1051 6.85086 22.2763 6.7035 22.3973C6.62966 22.4579 6.56938 22.5062 6.52698 22.5398L6.47725 22.579L6.46339 22.5897L6.45939 22.5928L6.45814 22.5938C6.45807 22.5939 6.4574 22.5944 6.01311 22.0171L6.45814 22.5938C6.12988 22.8464 5.65824 22.7857 5.40562 22.4574C5.15305 22.1292 5.21429 21.6584 5.54237 21.4058C5.54235 21.4058 5.5424 21.4058 5.54237 21.4058L5.54463 21.404L5.55439 21.3964L5.59537 21.3642C5.63171 21.3354 5.68525 21.2925 5.75177 21.2379C5.88513 21.1284 6.06905 20.9732 6.27038 20.7909C6.68685 20.4139 7.12577 19.9675 7.37178 19.5903C7.60603 19.2311 7.83187 18.6794 8.00664 18.1744C8.09113 17.9303 8.15878 17.7117 8.2052 17.5544C8.22836 17.476 8.2461 17.4133 8.25787 17.3708L8.27095 17.3231L8.27399 17.3117L8.27461 17.3094C8.2746 17.3094 8.27462 17.3094 8.27461 17.3094C8.38 16.9089 8.79011 16.6694 9.19064 16.7746Z" fill="currentColors"/>
</svg>
