<svg width="24" height="24" viewBox="0 0 24 24" fill="currentColors" xmlns="http://www.w3.org/2000/svg">
<path d="M6.55017 12.1923C9.56706 8.93595 14.4329 8.93595 17.4498 12.1923C17.7313 12.4961 18.2059 12.5142 18.5097 12.2327C18.8136 11.9512 18.8317 11.4767 18.5502 11.1728C14.9396 7.27576 9.06036 7.27576 5.44983 11.1728C5.16832 11.4767 5.18643 11.9512 5.49029 12.2327C5.79414 12.5142 6.26866 12.4961 6.55017 12.1923Z" fill="currentColors"/>
<path d="M8.55019 14.3508C10.4625 12.2867 13.5375 12.2867 15.4499 14.3508C15.7314 14.6546 16.2059 14.6727 16.5097 14.3912C16.8136 14.1097 16.8317 13.6352 16.5502 13.3313C14.0442 10.6265 9.95581 10.6265 7.44985 13.3313C7.16834 13.6352 7.18645 14.1097 7.4903 14.3912C7.79415 14.6727 8.26868 14.6546 8.55019 14.3508Z" fill="currentColors"/>
<path d="M10.5502 16.5097C11.358 15.6379 12.6421 15.6379 13.4499 16.5097C13.7314 16.8136 14.2059 16.8317 14.5098 16.5502C14.8136 16.2687 14.8317 15.7942 14.5502 15.4903C13.1488 13.9777 10.8513 13.9777 9.44987 15.4903C9.16836 15.7942 9.18647 16.2687 9.49032 16.5502C9.79417 16.8317 10.2687 16.8136 10.5502 16.5097Z" fill="currentColors"/>
<path fill-rule="evenodd" clip-rule="evenodd" d="M11.9999 1.25024C11.2748 1.25024 10.6133 1.44936 9.88917 1.78735C9.18821 2.11453 8.37762 2.5974 7.36173 3.20257L5.90611 4.06967C4.787 4.73631 3.89524 5.26751 3.22004 5.77549C2.52303 6.29987 1.99988 6.83985 1.65896 7.55096C1.31788 8.26243 1.22543 9.00704 1.25509 9.87609C1.28379 10.7173 1.43094 11.7399 1.61546 13.0221L1.90781 15.0539C2.1452 16.7038 2.33358 18.0131 2.61501 19.0324C2.90512 20.0832 3.31675 20.9172 4.05954 21.5568C4.80173 22.1958 5.68973 22.4817 6.77624 22.6179C7.83144 22.7503 9.1627 22.7503 10.8422 22.7502H13.1576C14.8371 22.7503 16.1684 22.7503 17.2236 22.6179C18.3101 22.4817 19.1981 22.1958 19.9402 21.5568C20.683 20.9172 21.0947 20.0832 21.3848 19.0324C21.6662 18.0131 21.8546 16.7038 22.092 15.054L22.3843 13.0221C22.5688 11.7399 22.716 10.7173 22.7447 9.87609C22.7744 9.00704 22.6819 8.26243 22.3408 7.55096C21.9999 6.83985 21.4768 6.29987 20.7797 5.77549C20.1045 5.26751 19.2128 4.73631 18.0937 4.06967L16.6381 3.20257C15.6222 2.5974 14.8116 2.11453 14.1106 1.78735C13.3865 1.44936 12.725 1.25024 11.9999 1.25024ZM8.09548 4.51146C9.15298 3.88151 9.89913 3.43805 10.5236 3.14658C11.1327 2.86228 11.5706 2.75024 11.9999 2.75024C12.4291 2.75024 12.8671 2.86228 13.4762 3.14658C14.1007 3.43805 14.8468 3.8815 15.9043 4.51145L17.2892 5.33639C18.4535 6.02997 19.2751 6.52058 19.878 6.97415C20.4664 7.41686 20.7887 7.78319 20.9882 8.19941C21.1876 8.61529 21.2705 9.09361 21.2456 9.82493C21.22 10.5748 21.0855 11.5166 20.8935 12.8513L20.6147 14.7887C20.3682 16.5018 20.192 17.7165 19.9389 18.6332C19.6915 19.5291 19.3938 20.0479 18.9615 20.4201C18.5286 20.7928 17.9674 21.0129 17.0369 21.1296C16.0858 21.2489 14.8487 21.2502 13.106 21.2502H10.8938C9.15114 21.2502 7.91395 21.2489 6.96289 21.1296C6.03235 21.0129 5.47118 20.7928 5.0383 20.4201C4.60603 20.0479 4.30827 19.5291 4.06091 18.6332C3.8078 17.7165 3.6316 16.5018 3.38509 14.7886L3.10632 12.8513C2.91427 11.5165 2.7798 10.5748 2.75421 9.82493C2.72926 9.09361 2.81218 8.61529 3.01156 8.19941C3.2111 7.78319 3.53337 7.41686 4.12183 6.97415C4.72471 6.52058 5.54632 6.02997 6.71064 5.33639L8.09548 4.51146Z" fill="currentColors"/>
</svg>
