<svg width="24" height="24" viewBox="0 0 24 24" fill="currentColors" xmlns="http://www.w3.org/2000/svg">
<path d="M15.7284 3.88384C17.1627 2.44395 19.2608 2.41371 20.4222 3.57968C21.5859 4.74786 21.5546 6.8591 20.1193 8.29997L17.6954 10.7332C17.4031 11.0267 17.404 11.5015 17.6975 11.7939C17.9909 12.0862 18.4658 12.0853 18.7581 11.7918L21.182 9.35857C23.0933 7.43986 23.3332 4.37653 21.485 2.52108C19.6345 0.663429 16.5779 0.905542 14.6657 2.82524L9.81802 7.6917C7.90672 9.61041 7.66677 12.6738 9.51503 14.5292C9.80736 14.8227 10.2822 14.8236 10.5757 14.5313C10.8692 14.2389 10.8701 13.7641 10.5777 13.4706C9.41409 12.3024 9.44543 10.1912 10.8807 8.7503L15.7284 3.88384Z" fill="currentColors"/>
<path d="M14.4849 9.47062C14.1926 9.17716 13.7177 9.17624 13.4243 9.46856C13.1308 9.76089 13.1299 10.2358 13.4222 10.5292C14.5859 11.6974 14.5546 13.8086 13.1192 15.2495L8.27162 20.116C6.8373 21.5559 4.73922 21.5861 3.57775 20.4202C2.41409 19.252 2.44543 17.1407 3.88074 15.6998L6.30458 13.2666C6.5969 12.9731 6.59598 12.4982 6.30252 12.2059C6.00906 11.9136 5.53419 11.9145 5.24187 12.208L2.81802 14.6412C0.906723 16.5599 0.666764 19.6233 2.51504 21.4788C4.36551 23.3364 7.42206 23.0943 9.33434 21.1746L14.182 16.3081C16.0933 14.3894 16.3332 11.3261 14.4849 9.47062Z" fill="currentColors"/>
</svg>
