<svg width="24" height="24" viewBox="0 0 24 24" fill="currentColors" xmlns="http://www.w3.org/2000/svg">
<path d="M19.9896 3.99115C18.4369 2.46996 16.3083 2.41193 15.225 3.4733L11.5249 7.09827C11.229 7.38815 10.7542 7.38328 10.4643 7.0874C10.1744 6.79152 10.1793 6.31667 10.4752 6.02679L14.1752 2.40182C16.0112 0.603153 19.0889 1.00883 21.0393 2.91967C22.9925 4.8332 23.4178 7.87522 21.5679 9.68753L18.6607 12.5357C18.3648 12.8256 17.89 12.8208 17.6001 12.5249C17.3102 12.229 17.3151 11.7542 17.611 11.4643L20.5182 8.61605C21.5876 7.56832 21.5396 5.50967 19.9896 3.99115Z" fill="currentColors"/>
<path d="M6.62406 3.58399C6.39429 3.23934 5.92864 3.14621 5.584 3.37597C5.23935 3.60574 5.14622 4.07139 5.37598 4.41604L7.37598 7.41604C7.60575 7.76068 8.0714 7.85381 8.41605 7.62405C8.76069 7.39429 8.85382 6.92863 8.62406 6.58399L6.62406 3.58399Z" fill="currentColors"/>
<path d="M2.23719 7.2885C1.84423 7.15751 1.41949 7.36988 1.28851 7.76284C1.15752 8.1558 1.36989 8.58054 1.76285 8.71152L7.76285 10.7115C8.15581 10.8425 8.58055 10.6301 8.71153 10.2372C8.84252 9.84422 8.63015 9.41949 8.23719 9.2885L2.23719 7.2885Z" fill="currentColors"/>
<path d="M6.72757 12.506C7.00702 12.2003 6.98571 11.7259 6.67997 11.4464C6.37422 11.167 5.89983 11.1883 5.62038 11.494L4.35952 12.8735C2.63268 14.7628 3.00985 17.9268 4.86386 19.9552C6.72902 21.9958 9.73431 22.4595 11.5189 20.507L15.5536 16.0926C15.8331 15.7869 15.8118 15.3125 15.506 15.033C15.2003 14.7536 14.7259 14.7749 14.4464 15.0806L10.4117 19.495C9.41081 20.59 7.4484 20.5596 5.97105 18.9432C4.48255 17.3147 4.40812 15.0437 5.46671 13.8855L6.72757 12.506Z" fill="currentColors"/>
</svg>
