<svg width="24" height="24" viewBox="0 0 24 24" fill="currentColors" xmlns="http://www.w3.org/2000/svg">
<path fill-rule="evenodd" clip-rule="evenodd" d="M13.0223 4.40984C14.1296 3.70282 14.8905 3.2193 15.4771 2.95382C16.0631 2.68862 16.2661 2.73954 16.3705 2.79329C16.4687 2.84385 16.6217 2.96748 16.7289 3.58298C16.8369 4.20282 16.8605 5.08676 16.892 6.38125L16.908 7.03779L16.9108 7.15733V7.15734C16.9245 7.75902 16.9364 8.27579 17.1558 8.73565C17.3767 9.1986 17.7712 9.52725 18.225 9.90535L18.3151 9.9805L18.8096 10.3938C19.7855 11.2094 20.4473 11.7654 20.8555 12.2292C21.2549 12.683 21.267 12.8878 21.2418 13.0207C21.2145 13.165 21.1122 13.3695 20.556 13.6846C19.9945 14.0027 19.1597 14.3303 17.9417 14.8054L17.3233 15.0466L17.2159 15.0883L17.2159 15.0883C16.6427 15.3111 16.1646 15.4969 15.7978 15.8555C15.4315 16.2137 15.2341 16.6878 14.9971 17.2573L14.9527 17.364L14.6961 17.9784C14.1908 19.1883 13.8422 20.0181 13.5103 20.5737C13.1808 21.1253 12.9747 21.2208 12.8336 21.2439C12.7052 21.2648 12.5039 21.2498 12.0622 20.8362C11.6114 20.414 11.0756 19.7346 10.2899 18.7332L9.89166 18.2257L9.81901 18.1329C9.45511 17.6676 9.13838 17.2626 8.68277 17.0282C8.22939 16.7948 7.71341 16.769 7.11539 16.7392L6.99604 16.7332L6.34294 16.6996C5.05495 16.6333 4.17656 16.5861 3.56329 16.4613C2.95587 16.3377 2.83733 16.1819 2.78905 16.0808C2.73668 15.971 2.69295 15.7624 2.97275 15.1809C3.25288 14.5986 3.75474 13.8474 4.48798 12.7547L4.86029 12.1999L4.92603 12.1021C5.27039 11.5903 5.55857 11.1621 5.65343 10.661C5.74908 10.1557 5.63309 9.65771 5.49653 9.07144L5.4705 8.95945L5.32345 8.3243C5.03356 7.0721 4.83765 6.21691 4.78795 5.58751C4.73919 4.97008 4.85007 4.77465 4.95985 4.66731C5.06861 4.56096 5.26353 4.45528 5.87499 4.52053C6.49931 4.58715 7.34455 4.80643 8.58355 5.13099L9.21185 5.29557L9.32328 5.32487C9.90242 5.47744 10.3969 5.60771 10.9045 5.52484C11.4074 5.44273 11.8425 5.16416 12.3603 4.83257L12.46 4.7688L13.0223 4.40984ZM17.0569 1.45957C16.326 1.08338 15.568 1.2662 14.8586 1.58725C14.1615 1.90273 13.3095 2.44676 12.2678 3.11191L11.6528 3.50451C10.9804 3.93386 10.8209 4.01862 10.6628 4.04444C10.5095 4.06947 10.3444 4.04164 9.59195 3.84453L8.90172 3.66372L8.90172 3.66372C7.74018 3.35942 6.78463 3.10908 6.03415 3.029C5.25753 2.94613 4.49767 3.02133 3.91116 3.59481C3.32566 4.16731 3.231 4.92556 3.2926 5.70561C3.35222 6.46046 3.57575 7.42589 3.84776 8.60068L4.00915 9.29777C4.18505 10.0576 4.20907 10.2263 4.17961 10.3819C4.14931 10.542 4.05964 10.7011 3.61474 11.364L3.20778 11.9705C2.51766 12.9989 1.95352 13.8395 1.62105 14.5305C1.2827 15.2338 1.08201 15.9864 1.43528 16.7267C1.79265 17.4757 2.50803 17.7774 3.26423 17.9312C4.00146 18.0812 4.99409 18.1322 6.20127 18.1943L6.91899 18.2312C7.70465 18.2716 7.8676 18.2956 7.99634 18.3619C8.12269 18.4269 8.23221 18.5407 8.71157 19.1516L9.15023 19.7107L9.15027 19.7107C9.88532 20.6476 10.4916 21.4204 11.0369 21.931C11.6013 22.4596 12.2578 22.8577 13.0753 22.7243C13.8803 22.5928 14.3951 22.0175 14.798 21.343C15.1919 20.6836 15.5808 19.7524 16.0564 18.6135L16.0564 18.6135L16.3368 17.942C16.6428 17.2095 16.7262 17.0457 16.8465 16.928C16.9665 16.8106 17.1308 16.7317 17.8683 16.444L18.4867 16.2029L18.5444 16.1803L18.5445 16.1803C19.6905 15.7334 20.6282 15.3677 21.2954 14.9897C21.9792 14.6023 22.5639 14.1009 22.7156 13.2997C22.8695 12.487 22.4932 11.8196 21.9816 11.2383C21.4878 10.6772 20.7347 10.0478 19.8218 9.28487L19.277 8.82955C18.6821 8.33229 18.5714 8.21915 18.5096 8.08967C18.4462 7.9569 18.4268 7.79041 18.4075 7.00127L18.39 6.28037C18.3604 5.06626 18.3362 4.069 18.2067 3.32558C18.0742 2.56472 17.794 1.83895 17.0569 1.45957ZM19.5303 18.4695C19.2374 18.1767 18.7626 18.1767 18.4697 18.4695C18.1768 18.7624 18.1768 19.2373 18.4697 19.5302L20.4697 21.5302C20.7626 21.8231 21.2374 21.8231 21.5303 21.5302C21.8232 21.2373 21.8232 20.7624 21.5303 20.4695L19.5303 18.4695Z" fill="currentColors"/>
</svg>
