<svg width="24" height="24" viewBox="0 0 24 24" fill="currentColors" xmlns="http://www.w3.org/2000/svg">
<path fill-rule="evenodd" clip-rule="evenodd" d="M17.861 3.16314C17.9137 3.18072 17.967 3.19853 18.0211 3.21655L19.2231 3.61724C19.6863 3.77158 20.0922 3.90686 20.4142 4.05667C20.7623 4.21862 21.0814 4.42723 21.3253 4.76563C21.5692 5.10404 21.6662 5.47268 21.7098 5.85416C21.7501 6.20705 21.75 6.63491 21.75 7.12307V15.3357C21.75 16.0341 21.75 16.6231 21.6959 17.0888C21.6397 17.5726 21.5136 18.0509 21.161 18.4367C20.9519 18.6655 20.6978 18.8487 20.4146 18.9747C19.9371 19.1871 19.4435 19.1555 18.9667 19.0559C18.5078 18.96 17.949 18.7737 17.2865 18.5528L17.2438 18.5386C16.1233 18.1651 15.7393 18.0487 15.3665 18.0614C15.218 18.0665 15.0703 18.0863 14.9257 18.1205C14.5627 18.2063 14.2229 18.4196 13.2401 19.0748L11.8577 19.9964C11.8103 20.028 11.7635 20.0592 11.7173 20.09C10.6558 20.7985 9.91754 21.2913 9.05448 21.4069C8.19141 21.5225 7.3495 21.2413 6.13896 20.837C6.08632 20.8195 6.03298 20.8017 5.97892 20.7836L4.77683 20.3829C4.31373 20.2286 3.90783 20.0933 3.5858 19.9435C3.23766 19.7816 2.91861 19.573 2.67471 19.2346C2.4308 18.8962 2.33379 18.5275 2.29024 18.146C2.24995 17.7931 2.24997 17.3653 2.25 16.8771L2.25 8.66454C2.24998 7.96609 2.24996 7.37705 2.3041 6.91139C2.36035 6.4276 2.48645 5.94933 2.83896 5.56352C3.04807 5.33467 3.30221 5.15149 3.58544 5.02549C4.06293 4.81307 4.55653 4.84469 5.03328 4.94431C5.49217 5.0402 6.05097 5.22649 6.71356 5.44738L6.75619 5.46159C7.87675 5.83511 8.26073 5.95148 8.63351 5.93875C8.78204 5.93368 8.9297 5.9139 9.07432 5.87971C9.43731 5.79391 9.77714 5.58061 10.7599 4.92541L12.1423 4.00382C12.1897 3.97221 12.2365 3.94099 12.2827 3.91018C13.3442 3.20165 14.0825 2.70889 14.9455 2.59331C15.8086 2.47773 16.6505 2.75888 17.861 3.16314ZM15.75 4.10553V16.5793C16.2857 16.6374 16.8498 16.8257 17.5931 17.0738C17.6342 17.0876 17.6759 17.1015 17.7182 17.1156C18.4348 17.3545 18.9103 17.5117 19.2735 17.5876C19.6287 17.6618 19.7505 17.6284 19.8049 17.6042C19.8993 17.5622 19.984 17.5011 20.0537 17.4249C20.0938 17.3809 20.164 17.276 20.2059 16.9156C20.2488 16.547 20.25 16.0461 20.25 15.2907V7.16237C20.25 6.62331 20.2489 6.28199 20.2195 6.02431C20.1922 5.7858 20.1477 5.69713 20.1084 5.6427C20.0692 5.58827 19.9992 5.51796 19.7815 5.4167C19.5464 5.30731 19.2229 5.1983 18.7115 5.02783L17.5467 4.63958C16.6604 4.34413 16.1345 4.17602 15.75 4.10553ZM14.25 16.7597V4.43346C13.9388 4.61329 13.5397 4.87503 12.9744 5.2519L11.592 6.17349C11.5549 6.1982 11.5184 6.22259 11.4823 6.24667C10.794 6.70595 10.281 7.04831 9.75 7.24048V19.5667C10.0612 19.3869 10.4603 19.1252 11.0256 18.7483L12.408 17.8267C12.4451 17.802 12.4816 17.7776 12.5177 17.7535C13.206 17.2942 13.719 16.9519 14.25 16.7597ZM8.25 19.8947V7.42084C7.71431 7.36277 7.15021 7.17447 6.40693 6.92634C6.36579 6.91261 6.32411 6.8987 6.28185 6.88461C5.5652 6.64573 5.08969 6.48849 4.72647 6.41259C4.37129 6.33838 4.2495 6.37181 4.19515 6.39598C4.10074 6.43799 4.01603 6.49904 3.94632 6.57533C3.9062 6.61924 3.83597 6.72422 3.79406 7.08463C3.75121 7.45322 3.75 7.95405 3.75 8.70946V16.8378C3.75 17.3769 3.75114 17.7182 3.78055 17.9759C3.80779 18.2144 3.85234 18.3031 3.89157 18.3575C3.9308 18.4119 4.00083 18.4822 4.21849 18.5835C4.45364 18.6929 4.77709 18.8019 5.28849 18.9724L6.45326 19.3606C7.33961 19.6561 7.86547 19.8242 8.25 19.8947Z" fill="currentColors"/>
</svg>
