<svg width="24" height="24" viewBox="0 0 24 24" fill="currentColors" xmlns="http://www.w3.org/2000/svg">
<path fill-rule="evenodd" clip-rule="evenodd" d="M12 2.75C11.0335 2.75 10.25 3.5335 10.25 4.5C10.25 5.4665 11.0335 6.25 12 6.25C12.9665 6.25 13.75 5.4665 13.75 4.5C13.75 3.5335 12.9665 2.75 12 2.75ZM8.75001 4.5C8.75001 2.70507 10.2051 1.25 12 1.25C13.7949 1.25 15.25 2.70507 15.25 4.5C15.25 6.29493 13.7949 7.75 12 7.75C10.2051 7.75 8.75001 6.29493 8.75001 4.5ZM12.8688 9.82208C12.2981 9.72597 11.7019 9.72597 11.1313 9.82208C8.62357 10.2445 6.75001 12.4461 6.75001 15.0196C6.75001 15.5842 6.43433 16.1049 5.92713 16.3612L3.33825 17.6694C2.96856 17.8562 2.51742 17.7079 2.33061 17.3382C2.14381 16.9685 2.29207 16.5174 2.66176 16.3306L5.24926 15.0231C5.24965 15.0224 5.25001 15.0213 5.25001 15.0196C5.25001 11.7143 7.65184 8.88701 10.8821 8.34292C11.6177 8.21903 12.3823 8.21903 13.1179 8.34292C16.3482 8.88701 18.75 11.7143 18.75 15.0196C18.75 15.0213 18.7504 15.0224 18.7508 15.0231L21.3383 16.3306C21.708 16.5174 21.8562 16.9685 21.6694 17.3382C21.4826 17.7079 21.0315 17.8562 20.6618 17.6694L18.0729 16.3612C17.5657 16.1049 17.25 15.5842 17.25 15.0196C17.25 12.4461 15.3764 10.2445 12.8688 9.82208ZM9.95001 15.4C10.2814 15.6485 10.3485 16.1186 10.1 16.45L9.05367 17.8451C9.02637 17.8815 9.00492 17.9101 8.98275 17.9381C8.62104 18.3954 8.12339 18.7258 7.56164 18.8817C7.52722 18.8913 7.4925 18.9 7.44839 18.911L7.44093 18.9129L5.95614 19.284C5.24729 19.4613 4.75001 20.0982 4.75001 20.8288C4.75001 21.0614 4.93857 21.25 5.17117 21.25H6.72728C7.3437 21.25 7.59231 21.2488 7.82946 21.2209C8.40764 21.153 8.9657 20.967 9.46902 20.6744C9.67545 20.5544 9.87507 20.4062 10.3682 20.0364L10.55 19.9L12.55 18.4C12.8814 18.1515 13.3515 18.2186 13.6 18.55C13.8485 18.8814 13.7814 19.3515 13.45 19.6L12.5453 20.2785L13.803 20.7501C14.4297 20.9851 14.6826 21.0784 14.9395 21.1385C15.078 21.1709 15.2181 21.1963 15.3592 21.2146C15.6208 21.2486 15.8903 21.25 16.5597 21.25H18.8288C19.0614 21.25 19.25 21.0614 19.25 20.8288C19.25 20.0982 18.7527 19.4613 18.0439 19.284L16.5512 18.9109C16.5073 18.8999 16.4727 18.8913 16.4384 18.8817C15.8766 18.7258 15.379 18.3954 15.0173 17.9381C14.9951 17.9102 14.9736 17.8814 14.9464 17.8451L14.9417 17.839L13.9 16.45C13.6515 16.1186 13.7186 15.6485 14.05 15.4C14.3814 15.1515 14.8515 15.2186 15.1 15.55L16.1417 16.939C16.1757 16.9843 16.1851 16.9966 16.1936 17.0075C16.3581 17.2153 16.5843 17.3655 16.8396 17.4364C16.853 17.4401 16.8678 17.4439 16.9229 17.4576L18.4077 17.8288C19.7843 18.173 20.75 19.4099 20.75 20.8288C20.75 21.8899 19.8899 22.75 18.8288 22.75L16.5079 22.75C15.9061 22.75 15.5352 22.7501 15.1659 22.7021C14.9751 22.6773 14.7856 22.6429 14.5982 22.5991C14.2355 22.5144 13.8882 22.3841 13.3248 22.1728L11.1213 21.3465C10.7409 21.6316 10.4898 21.8161 10.2228 21.9713C9.54182 22.3671 8.78681 22.6187 8.00456 22.7107C7.66965 22.7501 7.32895 22.75 6.77546 22.75H5.17117C4.11014 22.75 3.25001 21.8899 3.25001 20.8288C3.25001 19.4099 4.21573 18.173 5.59234 17.8288L7.07712 17.4576C7.13222 17.4439 7.14704 17.4401 7.16041 17.4364C7.41575 17.3655 7.64196 17.2153 7.80637 17.0075C7.81499 16.9966 7.8242 16.9844 7.85828 16.939L8.90001 15.55C9.14854 15.2186 9.61864 15.1515 9.95001 15.4Z" fill="currentColors"/>
</svg>
