<svg width="24" height="24" viewBox="0 0 24 24" fill="currentColors" xmlns="http://www.w3.org/2000/svg">
<path fill-rule="evenodd" clip-rule="evenodd" d="M12 2.75C11.0335 2.75 10.25 3.5335 10.25 4.5C10.25 5.4665 11.0335 6.25 12 6.25C12.9665 6.25 13.75 5.4665 13.75 4.5C13.75 3.5335 12.9665 2.75 12 2.75ZM8.74999 4.5C8.74999 2.70507 10.2051 1.25 12 1.25C13.7949 1.25 15.25 2.70507 15.25 4.5C15.25 6.29493 13.7949 7.75 12 7.75C10.2051 7.75 8.74999 6.29493 8.74999 4.5ZM12 9.7706C11.6438 9.77062 11.3209 9.7911 11.1389 9.82194L10.2474 9.97209C8.23485 10.311 6.74999 12.0736 6.74999 14.1502C6.74999 15.231 6.21548 16.2435 5.32046 16.8464L5.21923 16.9146C4.96446 17.0862 4.68799 17.2229 4.39709 17.3208L3.23939 17.7108C2.84684 17.843 2.42144 17.6319 2.28922 17.2394C2.15701 16.8469 2.36805 16.4214 2.76059 16.2892L3.91829 15.8993C4.08176 15.8442 4.23745 15.7673 4.38119 15.6705L4.48242 15.6023C4.96002 15.2806 5.24999 14.7364 5.24999 14.1502C5.24999 11.3526 7.25259 8.95532 9.99827 8.49292L10.8883 8.34304C10.8882 8.34305 10.8883 8.34302 10.8883 8.34304C11.1927 8.29147 11.6131 8.27062 12 8.2706C12.3867 8.27058 12.807 8.29133 13.1116 8.34301C13.1114 8.34299 13.1117 8.34303 13.1116 8.34301L14.0017 8.49292C16.7474 8.95532 18.75 11.3526 18.75 14.1502C18.75 14.7364 19.04 15.2806 19.5176 15.6023L19.6188 15.6705C19.7625 15.7673 19.9182 15.8442 20.0817 15.8993L21.2394 16.2892C21.6319 16.4214 21.843 16.8469 21.7108 17.2394C21.5785 17.6319 21.1531 17.843 20.7606 17.7108L19.6029 17.3208C19.312 17.2229 19.0355 17.0862 18.7808 16.9146L18.6795 16.8464C17.7845 16.2435 17.25 15.231 17.25 14.1502C17.25 12.0736 15.7651 10.311 13.7526 9.97209L12.8608 9.82191C12.6791 9.79104 12.3563 9.77058 12 9.7706ZM8.89999 15.55C9.14852 15.2186 9.61862 15.1515 9.94999 15.4C10.2814 15.6485 10.3485 16.1186 10.1 16.45L9.17548 17.6827C9.16814 17.6925 9.16088 17.7022 9.15372 17.7117C9.02729 17.8804 8.92788 18.013 8.81332 18.1328C8.53149 18.4274 8.18766 18.6557 7.80674 18.8011C7.65191 18.8602 7.49108 18.9004 7.28657 18.9514C7.27498 18.9543 7.26325 18.9573 7.25137 18.9602L5.45796 19.4086C5.04188 19.5126 4.74999 19.8865 4.74999 20.3153C4.74999 20.8315 5.16845 21.25 5.68465 21.25H6.36841C7.91432 21.25 9.41853 20.7486 10.6553 19.8211L12.55 18.4C12.8814 18.1515 13.3515 18.2186 13.6 18.55C13.8485 18.8814 13.7814 19.3515 13.45 19.6L12.5453 20.2785L13.0371 20.4629C13.571 20.6631 13.8118 20.7531 14.0537 20.8288C14.7819 21.0564 15.5355 21.193 16.2973 21.2356C16.5503 21.2497 16.8074 21.25 17.3776 21.25H18.3153C18.8315 21.25 19.25 20.8315 19.25 20.3153C19.25 19.8865 18.9581 19.5126 18.542 19.4086L17.0684 19.0402C17.0408 19.0333 17.0135 19.0265 16.9866 19.0198C16.5109 18.9012 16.1356 18.8076 15.8003 18.6143C15.7 18.5565 15.6035 18.4924 15.5113 18.4224C15.203 18.1884 14.9711 17.8788 14.6773 17.4864C14.6606 17.4642 14.6438 17.4417 14.6267 17.4189L13.9 16.45C13.6515 16.1186 13.7186 15.6485 14.05 15.4C14.3814 15.1515 14.8515 15.2186 15.1 15.55L15.8267 16.5189C16.1952 17.0103 16.2982 17.1365 16.4182 17.2276C16.4601 17.2594 16.504 17.2885 16.5496 17.3148C16.6801 17.3901 16.8364 17.436 17.4322 17.585L18.9058 17.9534C19.9897 18.2243 20.75 19.1982 20.75 20.3153C20.75 21.66 19.66 22.75 18.3153 22.75H17.3523C16.8139 22.75 16.5133 22.75 16.2136 22.7333C15.3283 22.6838 14.4525 22.525 13.6062 22.2605C13.3197 22.1709 13.0383 22.0654 12.5342 21.8763L11.1016 21.3391C9.69804 22.2575 8.05371 22.75 6.36841 22.75H5.68465C4.34002 22.75 3.24999 21.66 3.24999 20.3153C3.24999 19.1982 4.01033 18.2243 5.09416 17.9534L6.88757 17.505C7.14325 17.4411 7.21156 17.4227 7.27181 17.3997C7.44496 17.3337 7.60125 17.2299 7.72935 17.096C7.77393 17.0493 7.81735 16.9935 7.97548 16.7827L8.89999 15.55Z" fill="currentColors"/>
</svg>
