<svg width="24" height="24" viewBox="0 0 24 24" fill="currentColors" xmlns="http://www.w3.org/2000/svg">
<path fill-rule="evenodd" clip-rule="evenodd" d="M6.85926 1.25001C6.88901 1.25001 6.91916 1.25002 6.94973 1.25002L6.98672 1.25001C7.33815 1.24999 7.5643 1.24998 7.78539 1.27065C8.73667 1.35961 9.63902 1.73337 10.3746 2.34313C10.5455 2.48484 10.7054 2.64477 10.9539 2.89329L11.5303 3.46969C12.376 4.3154 12.7012 4.6311 13.0767 4.84005C13.2948 4.96134 13.526 5.05713 13.7659 5.12552C14.1792 5.24333 14.6324 5.25002 15.8284 5.25002L16.253 5.25002C17.5259 5.25 18.5521 5.24998 19.364 5.35206C20.2054 5.45784 20.9203 5.68358 21.5077 6.21185C21.6061 6.30032 21.6997 6.39393 21.7882 6.49231C22.3164 7.07965 22.5422 7.79459 22.6479 8.63601C22.75 9.4479 22.75 10.4741 22.75 11.747V14.0564C22.75 15.8942 22.75 17.3498 22.5969 18.489C22.4392 19.6615 22.1071 20.6104 21.3587 21.3588C20.6104 22.1071 19.6614 22.4393 18.489 22.5969C17.3498 22.75 15.8942 22.75 14.0564 22.75H9.94357C8.10581 22.75 6.65018 22.75 5.51096 22.5969C4.33854 22.4393 3.38959 22.1071 2.64123 21.3588C1.80632 20.5239 1.48943 19.4393 1.35508 18.0734C1.31453 17.6612 1.61584 17.2942 2.02806 17.2536C2.44029 17.2131 2.80733 17.5144 2.84788 17.9266C2.96929 19.161 3.23044 19.8267 3.70189 20.2981C4.1251 20.7213 4.70475 20.975 5.71083 21.1103C6.7385 21.2484 8.09317 21.25 9.99999 21.25H14C15.9068 21.25 17.2615 21.2484 18.2891 21.1103C19.2952 20.975 19.8749 20.7213 20.2981 20.2981C20.7213 19.8749 20.975 19.2953 21.1102 18.2892C21.2484 17.2615 21.25 15.9068 21.25 14V11.7979C21.25 10.4621 21.2486 9.5305 21.1597 8.82312C21.0731 8.13448 20.9141 7.76356 20.6729 7.49539C20.6198 7.43637 20.5636 7.3802 20.5046 7.32712C20.2364 7.08592 19.8655 6.92692 19.1769 6.84034C18.4695 6.75141 17.5379 6.75002 16.2021 6.75002H15.8284C15.7912 6.75002 15.7545 6.75002 15.7182 6.75003C14.6702 6.75025 13.9944 6.75038 13.3547 6.56806C13.0041 6.46811 12.6661 6.32811 12.3475 6.15083C11.7663 5.82747 11.2885 5.34949 10.5476 4.60832C10.5219 4.58264 10.496 4.55666 10.4697 4.53035L9.9194 3.98009C9.63613 3.69682 9.52775 3.58951 9.41728 3.49794C8.914 3.08073 8.29661 2.825 7.64573 2.76413C7.50286 2.75077 7.35035 2.75002 6.94973 2.75002C6.03309 2.75002 5.6787 2.75329 5.39742 2.80636C4.08274 3.05441 3.05438 4.08277 2.80633 5.39746C2.75326 5.67873 2.74999 6.03312 2.74999 6.94976V12C2.74999 12.4142 2.4142 12.75 1.99999 12.75C1.58577 12.75 1.24999 12.4142 1.24999 12V6.94976C1.24999 6.91919 1.24998 6.88904 1.24998 6.85929C1.24987 6.06338 1.24979 5.55685 1.33234 5.11935C1.69487 3.19788 3.19785 1.6949 5.11932 1.33237C5.55682 1.24982 6.06335 1.2499 6.85926 1.25001ZM8.26843 11.5589C8.51206 11.2239 8.98112 11.1498 9.31611 11.3935L13.4411 14.3935C13.6352 14.5346 13.75 14.7601 13.75 15C13.75 15.24 13.6352 15.4654 13.4411 15.6066L9.31611 18.6066C8.98112 18.8502 8.51206 18.7761 8.26843 18.4411C8.02481 18.1062 8.09887 17.6371 8.43386 17.3935L10.6936 15.75H1.99999C1.58577 15.75 1.24999 15.4142 1.24999 15C1.24999 14.5858 1.58577 14.25 1.99999 14.25H10.6936L8.43386 12.6066C8.09887 12.3629 8.02481 11.8939 8.26843 11.5589Z" fill="currentColors"/>
</svg>
