<svg width="24" height="24" viewBox="0 0 24 24" fill="currentColors" xmlns="http://www.w3.org/2000/svg">
<path fill-rule="evenodd" clip-rule="evenodd" d="M9.01092 3.98966C9.29277 4.2932 9.2752 4.76775 8.97166 5.0496L3.75546 9.89322C3.11417 10.4887 2.74979 11.3243 2.74979 12.1994C2.74979 13.122 3.15455 13.998 3.85704 14.596L8.94746 18.9289C9.26288 19.1974 9.30093 19.6707 9.03244 19.9861C8.76396 20.3016 8.29061 20.3396 7.97519 20.0711L2.88477 15.7382C1.84746 14.8553 1.24979 13.5616 1.24979 12.1994C1.24979 10.9072 1.78784 9.67333 2.73478 8.79403L7.95099 3.95041C8.25452 3.66856 8.72907 3.68613 9.01092 3.98966ZM12.2469 5.67696C12.1339 5.77386 11.9989 5.89337 11.8339 6.03999L7.86163 9.57092C7.06053 10.283 6.52001 10.7658 6.16984 11.1773C5.83354 11.5725 5.76041 11.8033 5.76041 12C5.76041 12.1967 5.83354 12.4275 6.16984 12.8227C6.52001 13.2342 7.06053 13.717 7.86163 14.4291L11.8339 17.96C11.9989 18.1066 12.1339 18.2261 12.2469 18.323C12.2496 18.1742 12.25 17.9939 12.25 17.7732V15.4286C12.25 15.0144 12.5858 14.6786 13 14.6786C14.9126 14.6786 16.9001 15.1325 18.616 15.9686C19.5349 16.4163 20.3902 16.981 21.1161 17.6568C20.7473 14.6098 19.6576 12.6439 18.3565 11.399C16.7365 9.84897 14.6896 9.32143 13 9.32143C12.5858 9.32143 12.25 8.98565 12.25 8.57143V6.22685C12.25 6.00615 12.2496 5.82585 12.2469 5.67696ZM11.7648 4.1541C12.0217 3.9845 12.4888 3.73814 13.0121 3.97312C13.5354 4.20811 13.6615 4.7209 13.7054 5.02557C13.7502 5.33582 13.7501 5.741 13.75 6.17513C13.75 6.19233 13.75 6.20957 13.75 6.22685V7.85061C15.5737 7.99207 17.6719 8.668 19.3935 10.3152C21.3686 12.2051 22.75 15.279 22.75 20C22.75 20.3451 22.5146 20.6456 22.1795 20.7282C21.8445 20.8108 21.4964 20.6541 21.336 20.3486C20.6802 19.0996 19.4719 18.0543 17.959 17.3171C16.6724 16.6902 15.2015 16.3047 13.75 16.2046V17.7732C13.75 17.7904 13.75 17.8077 13.75 17.8249C13.7501 18.259 13.7502 18.6642 13.7054 18.9744C13.6615 19.2791 13.5354 19.7919 13.0121 20.0269C12.4888 20.2619 12.0217 20.0155 11.7648 19.8459C11.5032 19.6732 11.2005 19.404 10.876 19.1155C10.8632 19.1041 10.8503 19.0926 10.8374 19.0811L6.82355 15.5133C6.0746 14.8476 5.45374 14.2958 5.02746 13.7948C4.57943 13.2683 4.26041 12.7014 4.26041 12C4.26041 11.2986 4.57944 10.7317 5.02746 10.2052C5.45374 9.70426 6.0746 9.15242 6.82354 8.48673L10.8374 4.91888C10.8503 4.9074 10.8632 4.89594 10.876 4.88452C11.2005 4.59604 11.5032 4.32681 11.7648 4.1541Z" fill="currentColors"/>
</svg>
