<svg width="24" height="24" viewBox="0 0 24 24" fill="currentColors" xmlns="http://www.w3.org/2000/svg">
<path d="M11.2241 6.8069C12.4234 5.9719 13.2598 5.39156 13.9182 5.05384C14.576 4.71643 14.878 4.71732 15.0744 4.78809C15.1946 4.8314 15.3137 4.89519 15.4199 4.974C15.6067 5.11258 15.7902 5.39034 15.9202 6.12996C15.992 6.53792 16.3808 6.81049 16.7888 6.73876C17.1967 6.66703 17.4693 6.27817 17.3976 5.87022C17.2471 5.01417 16.9707 4.25694 16.3138 3.76944C16.0915 3.60444 15.8427 3.47055 15.5829 3.37691C14.7882 3.09054 14.0043 3.32387 13.2336 3.71918C12.4743 4.1087 11.5549 4.74877 10.4153 5.54223L10.1637 5.71742C9.74579 6.00837 9.60776 6.10134 9.46629 6.16727C9.31351 6.23847 9.15371 6.28899 8.99053 6.31809C8.84055 6.34483 8.67989 6.34751 8.17866 6.34751L8.01889 6.34744C6.89957 6.34669 6.09436 6.34615 5.37924 6.69551C4.71961 7.01777 4.09472 7.64247 3.75773 8.3029C3.39426 9.01521 3.35173 9.75816 3.29088 10.8208L3.28355 10.9485C3.26273 11.3092 3.25 11.6658 3.25 12.0001C3.25 12.3344 3.26273 12.6909 3.28355 13.0517L3.29088 13.1794C3.35173 14.242 3.39426 14.985 3.75773 15.6973C4.09472 16.3577 4.71961 16.9824 5.37924 17.3047C6.09436 17.654 6.89957 17.6535 8.0189 17.6527L8.17865 17.6527C8.67989 17.6527 8.84055 17.6553 8.99053 17.6821C9.1537 17.7112 9.31351 17.7617 9.46629 17.8329C9.60777 17.8988 9.74578 17.9918 10.1637 18.2828L10.4153 18.4579C11.5549 19.2514 12.4743 19.8915 13.2336 20.281C14.0043 20.6763 14.7882 20.9096 15.5829 20.6233C15.8427 20.5296 16.0915 20.3957 16.3138 20.2307C16.9707 19.7432 17.2471 18.986 17.3976 18.13C17.4693 17.722 17.1967 17.3331 16.7888 17.2614C16.3808 17.1897 15.992 17.4623 15.9202 17.8702C15.7902 18.6098 15.6067 18.8876 15.4199 19.0262C15.3137 19.105 15.1946 19.1688 15.0744 19.2121C14.878 19.2829 14.576 19.2837 13.9182 18.9463C13.2598 18.6086 12.4234 18.0283 11.2241 17.1933L10.9719 17.0177C10.6219 16.7739 10.3732 16.6007 10.0999 16.4733C9.83021 16.3476 9.546 16.2575 9.25385 16.2054C8.95709 16.1525 8.65648 16.1525 8.23805 16.1527L8.17865 16.1527C6.83037 16.1527 6.40203 16.1349 6.03768 15.9569C5.68038 15.7823 5.28835 15.3967 5.09384 15.0155C4.88997 14.616 4.85258 14.2043 4.78106 12.9652C4.7614 12.6247 4.75 12.298 4.75 12.0001C4.75 11.7021 4.7614 11.3755 4.78106 11.0349C4.85258 9.79587 4.88997 9.3842 5.09384 8.98466C5.28835 8.60348 5.68038 8.21783 6.03768 8.04327C6.40203 7.86527 6.83037 7.84751 8.17865 7.84751L8.23806 7.84752C8.65648 7.84763 8.95709 7.84771 9.25385 7.7948C9.546 7.7427 9.83021 7.65257 10.0999 7.52688C10.3732 7.39951 10.6219 7.22625 10.9719 6.98247L11.2241 6.8069Z" fill="currentColors"/>
<path d="M14.5303 8.46976C14.2374 8.17687 13.7625 8.17687 13.4696 8.46976C13.1768 8.76265 13.1768 9.23753 13.4696 9.53042L15.9393 12.0001L13.4697 14.4698C13.1768 14.7627 13.1768 15.2375 13.4697 15.5304C13.7626 15.8233 14.2374 15.8233 14.5303 15.5304L17 13.0608L19.4696 15.5304C19.7625 15.8233 20.2374 15.8233 20.5303 15.5304C20.8232 15.2375 20.8232 14.7626 20.5303 14.4697L18.0606 12.0001L20.5303 9.53044C20.8232 9.23755 20.8232 8.76268 20.5303 8.46978C20.2374 8.17689 19.7625 8.17689 19.4696 8.46978L17 10.9394L14.5303 8.46976Z" fill="currentColors"/>
</svg>
