<svg width="24" height="24" viewBox="0 0 24 24" fill="currentColors" xmlns="http://www.w3.org/2000/svg">
<path fill-rule="evenodd" clip-rule="evenodd" d="M19.3742 2.82937C18.3816 3.00593 17.0399 3.45106 15.1431 4.08329L5.81192 7.19358C4.7512 7.54714 4.02485 7.79077 3.51787 8.03423C3.01455 8.27592 2.88061 8.44852 2.82904 8.5731C2.78557 8.67814 2.75928 8.78949 2.75119 8.90288C2.7416 9.03736 2.7842 9.25162 3.12629 9.69288C3.47086 10.1374 4.01157 10.6801 4.80218 11.4707L5.08481 11.7533C5.09832 11.7668 5.11169 11.7801 5.1249 11.7933C5.34052 12.0087 5.5161 12.1841 5.65325 12.386C5.92182 12.7815 6.07427 13.2443 6.09332 13.7219C6.10305 13.9659 6.06607 14.2113 6.02067 14.5126C6.01789 14.5311 6.01508 14.5498 6.01224 14.5687C5.91302 15.2297 5.8439 15.6924 5.81187 16.0531C5.78001 16.4119 5.79158 16.6089 5.82323 16.7466C5.84551 16.8436 5.87485 16.9377 5.9107 17.0285L20.1893 2.74988C19.9752 2.74632 19.7091 2.76979 19.3742 2.82937ZM22.0425 1.95737C22.8079 2.72274 22.8468 3.76669 22.6473 4.88831C22.4491 6.00229 21.967 7.44852 21.3609 9.26662L18.1928 18.7708C17.8689 19.7425 17.6035 20.5385 17.3229 21.1274C17.0362 21.7292 16.6674 22.2631 16.0523 22.5338C15.7661 22.6597 15.4592 22.7322 15.1469 22.7475C14.4757 22.7805 13.907 22.4678 13.3815 22.0579C12.8671 21.6566 12.2738 21.0633 11.5495 20.339L11.262 20.0515C10.9779 19.7674 10.9054 19.6996 10.8335 19.6515C10.6771 19.5467 10.4956 19.4855 10.3077 19.4742C10.2214 19.469 10.1226 19.479 9.72448 19.533L9.62905 19.546C8.9962 19.6319 8.48759 19.7009 8.07575 19.7316C7.65672 19.7629 7.27699 19.7604 6.91432 19.6717C5.64238 19.3605 4.65458 18.3588 4.36133 17.0826C4.27772 16.7187 4.28058 16.339 4.31775 15.9204C4.35428 15.5091 4.43046 15.0015 4.52526 14.37L4.52886 14.346C4.58665 13.9609 4.59784 13.8653 4.59451 13.7817C4.58662 13.584 4.52353 13.3925 4.41236 13.2288C4.36538 13.1596 4.29952 13.0893 4.02417 12.814L3.70428 12.4941C2.96011 11.75 2.35057 11.1405 1.9408 10.6119C1.52174 10.0714 1.20581 9.48569 1.25499 8.79615C1.27453 8.5222 1.33804 8.25318 1.44308 7.99942C1.70747 7.36068 2.25197 6.97814 2.86855 6.68205C3.47144 6.39254 4.2892 6.11998 5.28759 5.78722L14.7331 2.63885C16.5512 2.0328 17.9975 1.55072 19.1115 1.35255C20.2331 1.15303 21.2771 1.192 22.0425 1.95737ZM21.25 3.81054L6.95302 18.1075C7.05464 18.1518 7.16084 18.1878 7.27077 18.2147C7.40809 18.2483 7.60496 18.2626 7.96414 18.2358C8.32532 18.2088 8.78889 18.1463 9.45132 18.0564L9.52276 18.0467C9.54226 18.044 9.56153 18.0414 9.58059 18.0388C9.89225 17.9963 10.1461 17.9617 10.398 17.9769C10.852 18.0043 11.2905 18.1522 11.6684 18.4053C11.878 18.5457 12.0591 18.727 12.2813 18.9495C12.2949 18.9631 12.3087 18.9769 12.3226 18.9908L12.5739 19.2421C13.3434 20.0115 13.8716 20.5378 14.3041 20.8751C14.7339 21.2105 14.9434 21.2557 15.0733 21.2493C15.2026 21.243 15.3296 21.213 15.4481 21.1609C15.5672 21.1084 15.7343 20.9743 15.9688 20.4822C16.2048 19.987 16.4418 19.2801 16.786 18.2478L19.9165 8.85644C20.5488 6.95973 20.9939 5.61813 21.1705 4.62559C21.2301 4.29069 21.2535 4.02465 21.25 3.81054Z" fill="currentColors"/>
</svg>
