<svg width="24" height="24" viewBox="0 0 24 24" fill="currentColors" xmlns="http://www.w3.org/2000/svg">
<path d="M2.81493 16.2498C2.94069 15.8551 2.72271 15.4332 2.32805 15.3075C1.93339 15.1817 1.5115 15.3997 1.38574 15.7943C1.19404 16.3959 1.17366 17.057 1.53501 17.6345C1.98787 18.3584 2.84166 18.641 3.6892 18.7221C4.10152 18.7615 4.46778 18.4593 4.50724 18.047C4.5467 17.6346 4.24444 17.2684 3.83211 17.2289C3.13776 17.1625 2.88367 16.9621 2.80663 16.8389C2.75691 16.7595 2.70491 16.595 2.81493 16.2498Z" fill="currentColors"/>
<path d="M6.4854 18.5088C6.99783 18.4074 7.53831 18.2749 8.1004 18.113C7.57976 17.7802 7.10445 17.3827 6.68583 16.9318C6.51844 16.9705 6.35451 17.0056 6.19429 17.0373C5.78795 17.1177 5.52372 17.5123 5.60411 17.9186C5.60894 17.9431 5.6149 17.967 5.62193 17.9903C5.78661 18.1656 5.95844 18.3341 6.13694 18.4953C6.24691 18.5263 6.36565 18.5325 6.4854 18.5088Z" fill="currentColors"/>
<path fill-rule="evenodd" clip-rule="evenodd" d="M19.0825 10.4435C18.4993 10.9735 17.8133 11.5232 17.0389 12.075C16.7015 12.3153 16.6229 12.7836 16.8633 13.121C17.1036 13.4583 17.5719 13.537 17.9093 13.2966C18.3827 12.9593 18.8291 12.6197 19.2446 12.281C19.2482 12.1878 19.25 12.0941 19.25 12C19.25 11.4657 19.1922 10.9449 19.0825 10.4435ZM8.1004 18.113C8.73673 17.9297 9.40075 17.7087 10.0831 17.4526C10.4709 17.307 10.6673 16.8746 10.5217 16.4868C10.3761 16.099 9.94371 15.9027 9.55593 16.0483C8.52811 16.4341 7.55977 16.7301 6.68583 16.9318C7.10445 17.3827 7.57976 17.7802 8.1004 18.113ZM15.7506 14.7037C16.1061 14.4911 16.222 14.0306 16.0094 13.6751C15.7968 13.3196 15.3363 13.2037 14.9808 13.4162C14.4992 13.7042 13.9975 13.9878 13.4782 14.2645C12.9446 14.5487 12.4134 14.8146 11.8884 15.0612C11.5135 15.2373 11.3523 15.684 11.5284 16.0589C11.7045 16.4338 12.1512 16.5949 12.5261 16.4188C13.074 16.1615 13.6278 15.8844 14.1835 15.5883C14.7244 15.3002 15.2476 15.0044 15.7506 14.7037Z" fill="currentColors"/>
<path d="M4.74997 12C4.74997 7.99594 7.9959 4.75 12 4.75C15.4697 4.75 18.3702 7.18746 19.0825 10.4435C19.2832 10.2611 19.4717 10.081 19.6475 9.90396C19.8648 9.68506 20.1837 9.62822 20.4537 9.734C20.1648 8.65332 19.6741 7.65506 19.0246 6.78204C19.429 6.73635 19.7244 6.37527 19.6869 5.96807C19.6489 5.5556 19.2838 5.252 18.8713 5.28997C18.5272 5.32164 18.1656 5.37181 17.7897 5.43925C16.247 4.07679 14.22 3.25 12 3.25C7.16747 3.25 3.24997 7.16751 3.24997 12C3.24997 12.3435 3.27298 12.6824 3.31149 13.0156C2.97664 13.3513 2.67608 13.6843 2.41512 14.0109C2.15659 14.3346 2.20936 14.8065 2.53299 15.065C2.85662 15.3236 3.32855 15.2708 3.58708 14.9472C3.62595 14.8985 3.66609 14.8494 3.7075 14.7998C4.11306 16.0015 4.77247 17.0862 5.62193 17.9903C5.6149 17.967 5.60894 17.9431 5.60411 17.9186C5.52372 17.5123 5.78795 17.1177 6.19429 17.0373C6.35451 17.0056 6.51844 16.9705 6.68583 16.9318C5.48453 15.638 4.74997 13.9048 4.74997 12Z" fill="currentColors"/>
<path d="M12 20.75C16.8325 20.75 20.75 16.8325 20.75 12C20.75 11.6555 20.7301 11.3157 20.6913 10.9815C20.2658 11.4084 19.7809 11.8439 19.2446 12.281C19.097 16.1548 15.9099 19.25 12 19.25C10.5645 19.25 9.22639 18.8328 8.1004 18.113C7.53831 18.2749 6.99783 18.4074 6.4854 18.5088C6.36565 18.5325 6.24691 18.5263 6.13694 18.4953C7.68849 19.8967 9.74458 20.75 12 20.75Z" fill="currentColors"/>
<path d="M19.6475 9.90396C19.4717 10.081 19.2832 10.2611 19.0825 10.4435C19.1922 10.9449 19.25 11.4657 19.25 12C19.25 12.0941 19.2482 12.1878 19.2446 12.281C19.7809 11.8439 20.2658 11.4084 20.6913 10.9815C20.642 10.5556 20.562 10.139 20.4537 9.734C20.1837 9.62822 19.8648 9.68506 19.6475 9.90396Z" fill="currentColors"/>
<path d="M20.9368 5.37889C20.5337 5.28343 20.1296 5.53278 20.0341 5.93584C19.9386 6.3389 20.188 6.74304 20.591 6.83851C20.9851 6.93184 21.1369 7.0709 21.1933 7.16107C21.2567 7.26234 21.3264 7.52697 21.0364 8.10903C20.8517 8.47979 21.0026 8.93007 21.3734 9.11475C21.7441 9.29944 22.1944 9.14859 22.3791 8.77783C22.7567 8.01968 22.9423 7.12851 22.4649 6.36547C22.1208 5.81539 21.5417 5.52217 20.9368 5.37889Z" fill="currentColors"/>
<path d="M20.712 10.9608C21.0038 10.6668 21.0021 10.192 20.7082 9.90014C20.6331 9.82564 20.5463 9.77026 20.4537 9.734C20.562 10.139 20.642 10.5556 20.6913 10.9815L20.712 10.9608Z" fill="currentColors"/>
</svg>
