<svg width="24" height="24" viewBox="0 0 24 24" fill="currentColors" xmlns="http://www.w3.org/2000/svg">
<path fill-rule="evenodd" clip-rule="evenodd" d="M14.3941 3.06526C11.9587 2.4127 9.49125 2.79487 7.45537 3.94346C7.09461 4.14699 6.63716 4.01953 6.43363 3.65877C6.2301 3.29801 6.35755 2.84057 6.71831 2.63703C9.08232 1.30332 11.9525 0.858136 14.7823 1.61637C20.517 3.153 23.9203 9.04762 22.3837 14.7824C20.8471 20.5171 14.9524 23.9204 9.21768 22.3838C3.48292 20.8472 0.0796552 14.9525 1.61628 9.21777C1.92054 8.08225 2.39631 7.03682 3.00873 6.10279C3.58273 5.22733 4.74051 5.15953 5.47376 5.75301L12.4718 11.4171C12.7938 11.6777 12.8436 12.15 12.583 12.4719C12.3224 12.7939 11.8501 12.8436 11.5281 12.583L7.48843 9.31339C7.01928 10.0992 6.74998 11.0176 6.74998 12.0001C6.74998 14.8996 9.10049 17.2501 12 17.2501C14.8995 17.2501 17.25 14.8996 17.25 12.0001C17.25 9.10058 14.8995 6.75008 12 6.75008C11.4185 6.75008 10.8606 6.84432 10.3398 7.01778C9.94678 7.14866 9.5221 6.93618 9.39122 6.54318C9.26034 6.15019 9.47282 5.72551 9.86581 5.59463C10.5375 5.37091 11.2554 5.25008 12 5.25008C15.7279 5.25008 18.75 8.27215 18.75 12.0001C18.75 15.728 15.7279 18.7501 12 18.7501C8.27206 18.7501 5.24998 15.728 5.24998 12.0001C5.24998 10.6612 5.64044 9.41216 6.31328 8.36225L4.53007 6.91895C4.47423 6.87376 4.41139 6.86018 4.3615 6.86621C4.31608 6.8717 4.28531 6.89143 4.26313 6.92526C3.73714 7.72749 3.32761 8.62657 3.06517 9.606C1.74296 14.5406 4.67134 19.6127 9.60591 20.9349C14.5405 22.2571 19.6126 19.3287 20.9348 14.3942C22.257 9.45959 19.3286 4.38747 14.3941 3.06526Z" fill="currentColors"/>
</svg>
