<svg width="24" height="24" viewBox="0 0 24 24" fill="currentColors" xmlns="http://www.w3.org/2000/svg">
<path fill-rule="evenodd" clip-rule="evenodd" d="M14.3941 3.06526C11.9587 2.4127 9.49125 2.79487 7.45537 3.94346C7.09461 4.14699 6.63716 4.01953 6.43363 3.65877C6.2301 3.29801 6.35755 2.84057 6.71831 2.63703C9.08232 1.30332 11.9525 0.858136 14.7823 1.61637C20.517 3.153 23.9203 9.04762 22.3837 14.7824C20.8471 20.5171 14.9524 23.9204 9.21768 22.3838C3.48292 20.8472 0.0796552 14.9525 1.61628 9.21777C1.92054 8.08225 2.39631 7.03682 3.00873 6.10279C3.58274 5.22733 4.74051 5.15953 5.47376 5.75301L12.4718 11.4171C12.7938 11.6777 12.8436 12.15 12.583 12.4719C12.3224 12.7939 11.8501 12.8436 11.5281 12.583L4.53007 6.91895C4.47423 6.87376 4.41139 6.86018 4.3615 6.86621C4.31608 6.8717 4.28531 6.89143 4.26313 6.92526C3.73714 7.72749 3.32761 8.62657 3.06517 9.606C1.74296 14.5406 4.67134 19.6127 9.60591 20.9349C14.5405 22.2571 19.6126 19.3287 20.9348 14.3942C22.257 9.45959 19.3286 4.38747 14.3941 3.06526Z" fill="currentColors"/>
</svg>
