<svg width="24" height="24" viewBox="0 0 24 24" fill="currentColors" xmlns="http://www.w3.org/2000/svg">
<path fill-rule="evenodd" clip-rule="evenodd" d="M15.6786 1.68059C15.855 2.05537 15.6941 2.50218 15.3193 2.67855L9.85515 5.24993C9.88453 5.24993 9.91401 5.24993 9.94358 5.24993H14.0564C15.8942 5.24992 17.3498 5.2499 18.489 5.40307C19.6614 5.5607 20.6104 5.89281 21.3588 6.64118C22.1071 7.38954 22.4392 8.33849 22.5969 9.51091C22.75 10.6501 22.75 12.1058 22.75 13.9435V14.0563C22.75 15.8941 22.75 17.3497 22.5969 18.489C22.4392 19.6614 22.1071 20.6103 21.3588 21.3587C20.6104 22.1071 19.6614 22.4392 18.489 22.5968C17.3498 22.75 15.8942 22.7499 14.0564 22.7499H9.94359C8.10583 22.7499 6.65019 22.75 5.51098 22.5968C4.33856 22.4392 3.38961 22.1071 2.64124 21.3587C1.89288 20.6103 1.56076 19.6614 1.40314 18.489C1.24997 17.3497 1.24998 15.8941 1.25 14.0563V13.9435C1.24998 12.1058 1.24997 10.6501 1.40314 9.51091C1.56076 8.33849 1.89288 7.38954 2.64124 6.64118C3.38961 5.89281 4.33856 5.5607 5.51098 5.40307C5.71495 5.37564 5.92907 5.35313 6.15372 5.33465C6.16257 5.33005 6.17155 5.3256 6.18065 5.32132L14.6807 1.32132C15.0554 1.14495 15.5022 1.3058 15.6786 1.68059ZM5.71085 6.88969C4.70476 7.02496 4.12511 7.27863 3.7019 7.70184C3.27869 8.12505 3.02502 8.70469 2.88976 9.71078C2.75159 10.7384 2.75 12.0931 2.75 13.9999C2.75 15.9068 2.75159 17.2614 2.88976 18.2891C3.02502 19.2952 3.27869 19.8748 3.7019 20.298C4.12511 20.7212 4.70476 20.9749 5.71085 21.1102C6.73851 21.2483 8.09318 21.2499 10 21.2499H14C15.9068 21.2499 17.2615 21.2483 18.2892 21.1102C19.2952 20.9749 19.8749 20.7212 20.2981 20.298C20.7213 19.8748 20.975 19.2952 21.1102 18.2891C21.2484 17.2614 21.25 15.9068 21.25 13.9999C21.25 12.0931 21.2484 10.7384 21.1102 9.71078C20.975 8.70469 20.7213 8.12505 20.2981 7.70184C19.8749 7.27863 19.2952 7.02496 18.2892 6.88969C17.2615 6.75153 15.9068 6.74993 14 6.74993H10C8.09318 6.74993 6.73851 6.75153 5.71085 6.88969ZM8 11.7499C6.75736 11.7499 5.75 12.7573 5.75 13.9999C5.75 15.2426 6.75736 16.2499 8 16.2499C9.24264 16.2499 10.25 15.2426 10.25 13.9999C10.25 12.7573 9.24264 11.7499 8 11.7499ZM4.25 13.9999C4.25 11.9289 5.92893 10.2499 8 10.2499C10.0711 10.2499 11.75 11.9289 11.75 13.9999C11.75 16.071 10.0711 17.7499 8 17.7499C5.92893 17.7499 4.25 16.071 4.25 13.9999ZM12.75 10.9999C12.75 10.5857 13.0858 10.2499 13.5 10.2499H19C19.4142 10.2499 19.75 10.5857 19.75 10.9999C19.75 11.4141 19.4142 11.7499 19 11.7499H13.5C13.0858 11.7499 12.75 11.4141 12.75 10.9999ZM12.75 13.9999C12.75 13.5857 13.0858 13.2499 13.5 13.2499H19C19.4142 13.2499 19.75 13.5857 19.75 13.9999C19.75 14.4141 19.4142 14.7499 19 14.7499H13.5C13.0858 14.7499 12.75 14.4141 12.75 13.9999ZM12.75 16.9999C12.75 16.5857 13.0858 16.2499 13.5 16.2499H19C19.4142 16.2499 19.75 16.5857 19.75 16.9999C19.75 17.4141 19.4142 17.7499 19 17.7499H13.5C13.0858 17.7499 12.75 17.4141 12.75 16.9999Z" fill="currentColors"/>
</svg>
