<svg width="24" height="24" viewBox="0 0 24 24" fill="currentColors" xmlns="http://www.w3.org/2000/svg">
<path d="M10.6847 1.52655C10.9754 1.23145 10.9718 0.756589 10.6767 0.465919C10.3816 0.175249 9.90675 0.17884 9.61609 0.473939L7.86568 2.25102C7.5781 2.54298 7.57811 3.0117 7.86569 3.30365L9.6161 5.08062C9.90678 5.37571 10.3816 5.37928 10.6767 5.0886C10.9718 4.79792 10.9754 4.32306 10.6847 4.02797L10.1472 3.48225C10.7108 3.47703 11.3258 3.47698 12 3.47698C14.1428 3.47698 15.6734 3.47862 16.8363 3.63735C17.9765 3.79296 18.6508 4.08688 19.1477 4.59132C19.6461 5.09734 19.9377 5.78649 20.0917 6.94937C20.2485 8.13268 20.25 9.68914 20.25 11.8635C20.25 14.0379 20.2485 15.5944 20.0917 16.7777C19.9377 17.9406 19.6461 18.6297 19.1477 19.1357C18.6508 19.6402 17.9765 19.9341 16.8363 20.0897C15.6734 20.2484 14.1428 20.2501 12 20.2501C9.85717 20.2501 8.32662 20.2484 7.1637 20.0897C6.02354 19.9341 5.34923 19.6402 4.85233 19.1357C4.35388 18.6297 4.06227 17.9406 3.90826 16.7777C3.75155 15.5944 3.75 14.0379 3.75 11.8635C3.75 9.68914 3.75155 8.13268 3.90826 6.94937C4.06227 5.78649 4.35388 5.09734 4.85233 4.59132C5.14301 4.29623 5.13943 3.82137 4.84434 3.53069C4.54925 3.24001 4.07439 3.24359 3.78371 3.53868C2.96414 4.37068 2.59674 5.4273 2.42124 6.75243C2.24998 8.04564 2.24999 9.70147 2.25 11.8073V11.9198C2.24999 14.0256 2.24998 15.6814 2.42124 16.9746C2.59674 18.2998 2.96414 19.3564 3.78371 20.1884C4.60483 21.022 5.65019 21.3971 6.96085 21.5759C8.23694 21.7501 9.86991 21.7501 11.9423 21.7501H12.0577C14.1301 21.7501 15.7631 21.7501 17.0391 21.5759C18.3498 21.3971 19.3952 21.022 20.2163 20.1884C21.0359 19.3564 21.4033 18.2998 21.5788 16.9746C21.75 15.6814 21.75 14.0256 21.75 11.9198V11.8073C21.75 9.70148 21.75 8.04563 21.5788 6.75243C21.4033 5.4273 21.0359 4.37068 20.2163 3.53868C19.3952 2.70511 18.3498 2.33001 17.0391 2.15113C15.7631 1.97696 14.1301 1.97697 12.0577 1.97698L11.9829 1.97698C11.3608 1.97698 10.7794 1.97698 10.2367 1.98141L10.6847 1.52655Z" fill="currentColors"/>
<path d="M16.0303 10.0304C16.3232 9.73753 16.3232 9.26265 16.0303 8.96976C15.7374 8.67687 15.2626 8.67687 14.9697 8.96976L10.5 13.4394L9.03033 11.9698C8.73744 11.6769 8.26256 11.6769 7.96967 11.9698C7.67678 12.2627 7.67678 12.7375 7.96967 13.0304L9.96967 15.0304C10.2626 15.3233 10.7374 15.3233 11.0303 15.0304L16.0303 10.0304Z" fill="currentColors"/>
</svg>
