<svg width="24" height="24" viewBox="0 0 24 24" fill="currentColors" xmlns="http://www.w3.org/2000/svg">
<path fill-rule="evenodd" clip-rule="evenodd" d="M17.3462 1.63232C17.5492 1.27127 18.0065 1.14313 18.3676 1.34613C18.7286 1.54913 18.8568 2.00639 18.6538 2.36745L12.8604 12.6716L15.5677 17.4869C16.1494 16.1694 17.4673 15.2499 19 15.2499C21.0711 15.2499 22.75 16.9288 22.75 18.9999C22.75 21.071 21.0711 22.7499 19 22.7499C17.5771 22.7499 16.3394 21.9574 15.7039 20.7898L12 14.2019L8.29606 20.7898C7.66064 21.9574 6.42286 22.7499 5 22.7499C2.92893 22.7499 1.25 21.071 1.25 18.9999C1.25 16.9288 2.92893 15.2499 5 15.2499C6.5327 15.2499 7.85064 16.1694 8.43226 17.4869L11.1396 12.6716L5.34624 2.36745C5.14324 2.00639 5.27138 1.54913 5.63244 1.34613C5.99349 1.14313 6.45076 1.27127 6.65376 1.63232L12 11.1412L17.3462 1.63232ZM5 21.2499C5.83538 21.2499 6.56442 20.7946 6.95257 20.1187L6.97252 20.0832C7.14938 19.7618 7.25 19.3926 7.25 18.9999C7.25 17.7572 6.24264 16.7499 5 16.7499C3.75736 16.7499 2.75 17.7572 2.75 18.9999C2.75 20.2425 3.75736 21.2499 5 21.2499ZM19 21.2499C18.1646 21.2499 17.4356 20.7946 17.0474 20.1187L17.0275 20.0832C16.8506 19.7618 16.75 19.3926 16.75 18.9999C16.75 17.7572 17.7574 16.7499 19 16.7499C20.2426 16.7499 21.25 17.7572 21.25 18.9999C21.25 20.2425 20.2426 21.2499 19 21.2499Z" fill="currentColors"/>
</svg>
