<svg width="24" height="24" viewBox="0 0 24 24" fill="currentColors" xmlns="http://www.w3.org/2000/svg">
<path fill-rule="evenodd" clip-rule="evenodd" d="M2.62404 6.58398L3.43657 7.80279C4.03933 8.70693 5.05409 9.25001 6.14073 9.25001H17.8593C18.9459 9.25001 19.9607 8.70693 20.5634 7.80278L21.376 6.58398L22.624 7.41603L21.8115 8.63483C20.9305 9.95628 19.4474 10.75 17.8593 10.75H6.14073C4.55256 10.75 3.06946 9.95628 2.1885 8.63484L1.37596 7.41603L2.62404 6.58398ZM7 13.75C6.30964 13.75 5.75 14.3097 5.75 15C5.75 15.6904 6.30964 16.25 7 16.25C7.69035 16.25 8.25 15.6904 8.25 15C8.25 14.3097 7.69035 13.75 7 13.75ZM4.25 15C4.25 13.4812 5.48122 12.25 7 12.25C8.51878 12.25 9.75 13.4812 9.75 15C9.75 16.5188 8.51878 17.75 7 17.75C5.48122 17.75 4.25 16.5188 4.25 15ZM17 13.75C16.3096 13.75 15.75 14.3097 15.75 15C15.75 15.6904 16.3096 16.25 17 16.25C17.6904 16.25 18.25 15.6904 18.25 15C18.25 14.3097 17.6904 13.75 17 13.75ZM14.25 15C14.25 13.4812 15.4812 12.25 17 12.25C18.5188 12.25 19.75 13.4812 19.75 15C19.75 16.5188 18.5188 17.75 17 17.75C15.4812 17.75 14.25 16.5188 14.25 15Z" fill="currentColors"/>
</svg>
