<svg width="24" height="24" viewBox="0 0 24 24" fill="currentColors" xmlns="http://www.w3.org/2000/svg">
<path d="M22 12C22 16.714 22 19.0711 20.5355 20.5355C19.0711 22 16.714 22 12 22C7.28595 22 4.92893 22 3.46447 20.5355C2 19.0711 2 16.714 2 12C2 7.28595 2 4.92893 3.46447 3.46447C4.92893 2 7.28595 2 12 2M18.5122 5.47724L16.1549 3.43427C15.4414 2.81588 15.0846 2.50668 14.7923 2.64016C14.5 2.77363 14.5 3.24574 14.5 4.18996V5.71429C11.4444 5.71429 7 7.57143 7 15C8.25 12.6786 11.5 11.2857 14.5 11.2857V12.81C14.5 13.7543 14.5 14.2264 14.7923 14.3598C15.0846 14.4933 15.4414 14.1841 16.1549 13.5657L18.5122 11.5228C20.1349 10.1164 20.9462 9.41326 20.9462 8.5C20.9462 7.58674 20.1349 6.88358 18.5122 5.47724Z" stroke="#454545" stroke-width="1.5" stroke-linecap="round" stroke-linejoin="round"/>
</svg>
