<svg width="24" height="24" viewBox="0 0 24 24" fill="currentColors" xmlns="http://www.w3.org/2000/svg">
<path d="M21.9953 13.5202L22.7424 13.4549V13.4549L21.9953 13.5202ZM21.9393 13.2383L22.656 13.0173L22.656 13.0173L21.9393 13.2383ZM20.6439 11.7496L20.2162 12.3656V12.3656L20.6439 11.7496ZM11.6958 9.11988L11.7644 8.37303L11.6958 9.11988ZM2.00006 11.5644L1.2501 11.5569L2.00006 11.5644ZM2.00378 11.6727L2.75149 11.6141L2.75149 11.6141L2.00378 11.6727ZM2.00472 11.684L2.75187 11.6187V11.6187L2.00472 11.684ZM19.2388 14.9481C18.8402 15.0607 18.6082 15.475 18.7207 15.8737C18.8333 16.2723 19.2476 16.5042 19.6463 16.3917L19.2388 14.9481ZM20.4128 15.3303L20.1143 14.6422L20.4128 15.3303ZM21.7428 14.381L22.3514 14.8194V14.8194L21.7428 14.381ZM2.04786 11.9218L2.77112 11.7233V11.7233L2.04786 11.9218ZM2.09486 12.0645L2.795 11.7956L2.795 11.7956L2.09486 12.0645ZM2.52818 12.7426L3.0878 12.2432L2.52818 12.7426ZM4.07073 13.8946L3.70888 14.5515L3.70888 14.5515L4.07073 13.8946ZM4.55688 14.1461L4.88514 13.4717L4.88514 13.4717L4.55688 14.1461ZM4.983 14.3437L5.28638 13.6578H5.28638L4.983 14.3437ZM4.76127 10.2561C5.1599 10.1436 5.39184 9.72919 5.27932 9.33056C5.16679 8.93192 4.75242 8.69998 4.35378 8.81251L4.76127 10.2561ZM4.25488 9.62529L4.02628 8.91097L4.02628 8.91097L4.25488 9.62529ZM2.00783 11.4399L1.26277 11.3539L2.00783 11.4399ZM19.2077 10.1253C18.8275 9.96089 18.386 10.1358 18.2216 10.516C18.0572 10.8962 18.2322 11.3377 18.6124 11.5021L19.2077 10.1253ZM4.74565 14.236L5.06245 13.5562H5.06245L4.74565 14.236ZM2.25716 10.8233L2.86569 11.2617L2.86569 11.2617L2.25716 10.8233ZM21.9051 13.1397L21.205 13.4086V13.4086L21.9051 13.1397ZM21.4718 12.4617L22.0314 11.9623V11.9623L21.4718 12.4617ZM19.9293 11.3096L19.5674 11.9666L19.9293 11.3096ZM18.2614 11.356C18.6459 11.5102 19.0825 11.3235 19.2367 10.9391C19.3909 10.5546 19.2043 10.118 18.8198 9.96378L18.2614 11.356ZM8.33087 16.2098C8.73441 16.3032 9.13727 16.0518 9.23068 15.6483C9.32409 15.2447 9.07268 14.8419 8.66913 14.7484L8.33087 16.2098ZM18.396 15.1476C17.9896 15.2274 17.7248 15.6217 17.8047 16.0281C17.8846 16.4346 18.2788 16.6993 18.6853 16.6194L18.396 15.1476ZM20.5739 16.0762C20.9573 15.9196 21.1412 15.4817 20.9846 15.0983C20.8279 14.7148 20.3901 14.5309 20.0066 14.6876L20.5739 16.0762ZM18.2019 4.13627L18.5284 3.46106L18.5284 3.46106L18.2019 4.13627ZM16.0274 4.42706L16.3566 5.10098L16.3566 5.10098L16.0274 4.42706ZM15.2744 4.85061L15.6747 5.48487L15.6747 5.48486L15.2744 4.85061ZM15.0169 5.01865L14.5979 4.39661V4.39661L15.0169 5.01865ZM9.38191 10.9923L8.76222 10.5698H8.76222L9.38191 10.9923ZM6.78798 20.8588L6.45528 21.531L6.45852 21.5325L6.78798 20.8588ZM6.79811 20.8637L6.46864 21.5375L6.47162 21.5389L6.79811 20.8637ZM18.0496 7.31035C17.9511 7.71269 18.1974 8.11868 18.5998 8.21716C19.0021 8.31564 19.4081 8.06931 19.5066 7.66698L18.0496 7.31035ZM18.9835 6.27515L18.2359 6.21551V6.21551L18.9835 6.27515ZM18.9998 5.84181L18.2499 5.84832V5.84832L18.9998 5.84181ZM18.8114 4.79847L18.1235 5.09716L18.1235 5.09716L18.8114 4.79847ZM7.16684 20.9782L7.04545 21.7183H7.04545L7.16684 20.9782ZM7.95811 20.9412L7.80015 20.2081L7.80015 20.2081L7.95811 20.9412ZM9.69933 20.1659L9.3011 19.5304H9.3011L9.69933 20.1659ZM10.153 19.8646L10.5832 20.479L10.153 19.8646ZM10.9367 19.2703L10.4637 18.6882L10.4632 18.6887L10.9367 19.2703ZM6.9505 17.6896C7.04898 17.2873 6.80266 16.8813 6.40032 16.7828C5.99799 16.6843 5.592 16.9307 5.49352 17.333L6.9505 17.6896ZM13.5899 5.14805C13.2687 5.40957 13.2203 5.88197 13.4818 6.20319C13.7433 6.52441 14.2157 6.57281 14.5369 6.31129L13.5899 5.14805ZM17.5803 8.78725C17.4325 9.17423 17.6265 9.60769 18.0134 9.75543C18.4004 9.90317 18.8339 9.70923 18.9816 9.32226L17.5803 8.78725ZM12.5845 18.8977C12.906 18.6365 12.9548 18.1642 12.6936 17.8427C12.4324 17.5212 11.96 17.4724 11.6386 17.7336L12.5845 18.8977ZM11.4022 15.3876L11.9113 15.9384V15.9384L11.4022 15.3876ZM11.7682 14.5168L12.5181 14.5055V14.5055L11.7682 14.5168ZM11.6914 17.5655L11.4414 18.2726L11.6914 17.5655ZM11.2345 15.5426L10.7254 14.9919V14.9919L11.2345 15.5426ZM12.6226 18.3L11.9399 18.6106L11.9399 18.6106L12.6226 18.3ZM11.9116 17.6433L12.1615 16.9362L11.9116 17.6433ZM14.7293 18.7704L15.3415 19.2036L15.3415 19.2035L14.7293 18.7704ZM12.7211 18.5166L13.4038 18.206L13.4038 18.206L12.7211 18.5166ZM15.6672 18.118L15.5982 17.3712H15.5982L15.6672 18.118ZM14.8619 18.583L14.2496 18.1498L14.2496 18.1498L14.8619 18.583ZM16.6801 16.2309L17.2904 15.795L17.2904 15.795L16.6801 16.2309ZM15.8958 18.0969L15.9648 18.8437H15.9648L15.8958 18.0969ZM16.3286 15.0932L17.0659 15.2304L17.0659 15.2304L16.3286 15.0932ZM16.5418 16.0372L15.9314 16.4731L15.9314 16.4731L16.5418 16.0372ZM14.8479 13.4565L14.6254 12.7402L14.8479 13.4565ZM16.3713 14.8635L15.6339 14.7264L15.6339 14.7264L16.3713 14.8635ZM13.6927 13.4058L13.3079 14.0495L13.3079 14.0495L13.6927 13.4058ZM14.6298 13.5242L14.8522 14.2405L14.6298 13.5242ZM13.4905 13.2849L13.8752 12.6411L13.8752 12.6411L13.4905 13.2849ZM11.7647 14.2813L11.0147 14.2926V14.2926L11.7647 14.2813ZM22.7424 13.4549C22.7293 13.305 22.6996 13.1588 22.656 13.0173L21.2226 13.4594C21.2369 13.5057 21.2448 13.5476 21.2481 13.5855L22.7424 13.4549ZM22.656 13.0173C22.4261 12.2718 21.8084 11.645 21.0716 11.1335L20.2162 12.3656C20.8504 12.806 21.1396 13.1901 21.2226 13.4594L22.656 13.0173ZM21.0716 11.1335C20.8234 10.9611 20.5522 10.7953 20.2617 10.6365L19.5421 11.9526C19.7925 12.0895 20.0175 12.2277 20.2162 12.3656L21.0716 11.1335ZM20.2617 10.6365C18.2507 9.53705 15.1506 8.68406 11.7644 8.37303L11.6272 9.86674C14.8826 10.1658 17.7661 10.9817 19.5421 11.9526L20.2617 10.6365ZM11.7644 8.37303C9.00481 8.11955 6.49568 8.26627 4.6441 8.73481C3.72266 8.96798 2.91633 9.29264 2.3216 9.7253C1.72456 10.1596 1.25799 10.7707 1.2501 11.5569L2.75002 11.5719C2.75142 11.4326 2.82586 11.2134 3.20402 10.9383C3.58448 10.6615 4.18751 10.3976 5.01208 10.189C6.65252 9.77387 8.98198 9.62376 11.6272 9.86674L11.7644 8.37303ZM1.2501 11.5569C1.24952 11.615 1.25152 11.6731 1.25607 11.7312L2.75149 11.6141C2.75035 11.5995 2.74989 11.5854 2.75002 11.5719L1.2501 11.5569ZM1.25607 11.7312C1.25654 11.7372 1.25704 11.7432 1.25756 11.7493L2.75187 11.6187C2.75174 11.6172 2.75161 11.6156 2.75149 11.6141L1.25607 11.7312ZM19.6463 16.3917C20.029 16.2837 20.386 16.1594 20.7112 16.0184L20.1143 14.6422C19.8605 14.7523 19.5681 14.8552 19.2388 14.9481L19.6463 16.3917ZM20.7112 16.0184C21.3845 15.7263 21.9777 15.338 22.3514 14.8194L21.1343 13.9426C20.9834 14.1521 20.6662 14.4029 20.1143 14.6422L20.7112 16.0184ZM22.3514 14.8194C22.6343 14.4267 22.7868 13.9627 22.7424 13.4549L21.2481 13.5855C21.2576 13.6937 21.2327 13.806 21.1343 13.9426L22.3514 14.8194ZM1.25756 11.7493C1.26861 11.8757 1.29147 11.9996 1.32461 12.1203L2.77112 11.7233C2.76074 11.6855 2.75467 11.6507 2.75187 11.6187L1.25756 11.7493ZM1.32461 12.1203C1.34446 12.1927 1.36796 12.2637 1.39472 12.3334L2.795 11.7956C2.78524 11.7702 2.77738 11.7461 2.77112 11.7233L1.32461 12.1203ZM1.39472 12.3334C1.52223 12.6654 1.72455 12.9684 1.96856 13.2419L3.0878 12.2432C2.93277 12.0695 2.8423 11.9188 2.795 11.7956L1.39472 12.3334ZM1.96856 13.2419C2.40103 13.7266 3.00495 14.1638 3.70888 14.5515L4.43259 13.2377C3.81414 12.897 3.36749 12.5567 3.0878 12.2432L1.96856 13.2419ZM3.70888 14.5515C3.8754 14.6433 4.04884 14.7329 4.22863 14.8204L4.88514 13.4717C4.7265 13.3945 4.57556 13.3164 4.43259 13.2377L3.70888 14.5515ZM4.22863 14.8204C4.37472 14.8916 4.52514 14.9613 4.67961 15.0296L5.28638 13.6578C5.14782 13.5965 5.01401 13.5345 4.88514 13.4717L4.22863 14.8204ZM4.67961 15.0296C4.84201 15.1015 5.009 15.1718 5.18026 15.2405L5.73861 13.8482C5.58287 13.7858 5.43205 13.7223 5.28638 13.6578L4.67961 15.0296ZM4.35378 8.81251C4.24226 8.84399 4.13305 8.87681 4.02628 8.91097L4.48348 10.3396C4.57304 10.3109 4.66565 10.2831 4.76127 10.2561L4.35378 8.81251ZM4.02628 8.91097C3.31026 9.14012 2.67822 9.43801 2.1982 9.8191C1.7157 10.2022 1.33678 10.7126 1.26277 11.3539L2.75288 11.5259C2.7669 11.4044 2.84508 11.2208 3.13088 10.9939C3.41916 10.765 3.86664 10.537 4.48348 10.3396L4.02628 8.91097ZM1.26277 11.3539C1.24835 11.4789 1.24618 11.6049 1.25607 11.7312L2.75149 11.6141C2.74902 11.5826 2.74971 11.5534 2.75288 11.5259L1.26277 11.3539ZM20.2617 10.6365C20.05 10.5208 19.8274 10.4084 19.5948 10.2994L18.9586 11.6578C19.1654 11.7547 19.3601 11.8531 19.5421 11.9526L20.2617 10.6365ZM19.5948 10.2994C19.4687 10.2404 19.3396 10.1823 19.2077 10.1253L18.6124 11.5021C18.7311 11.5534 18.8466 11.6054 18.9586 11.6578L19.5948 10.2994ZM4.22862 14.8204C4.29448 14.8525 4.36123 14.8843 4.42884 14.9158L5.06245 13.5562C5.00237 13.5282 4.94326 13.5 4.88514 13.4717L4.22862 14.8204ZM4.42884 14.9158C4.53083 14.9633 4.63477 15.0102 4.74059 15.0564L5.34113 13.6819C5.24604 13.6404 5.15313 13.5984 5.06245 13.5562L4.42884 14.9158ZM4.74059 15.0564C5.54754 15.409 6.46901 15.7257 7.4702 15.9948L7.85955 14.5462C6.91811 14.2932 6.0688 13.9998 5.34113 13.6819L4.74059 15.0564ZM1.3246 12.1203C1.53758 12.8964 2.17215 13.5457 2.92837 14.0708L3.78382 12.8386C3.12934 12.3842 2.84472 11.9915 2.77113 11.7233L1.3246 12.1203ZM4.02628 8.91097C3.0231 9.23202 2.14065 9.7019 1.64863 10.3849L2.86569 11.2617C3.07402 10.9725 3.57988 10.6288 4.48348 10.3396L4.02628 8.91097ZM1.64863 10.3849C1.44457 10.6681 1.30439 10.9933 1.26277 11.3539L2.75288 11.5259C2.76139 11.4521 2.79099 11.3653 2.86569 11.2617L1.64863 10.3849ZM1.26277 11.3539C1.25501 11.4212 1.25078 11.4889 1.2501 11.5569L2.75002 11.5719C2.75018 11.5561 2.75116 11.5408 2.75288 11.5259L1.26277 11.3539ZM22.656 13.0172C22.6407 12.9676 22.6237 12.9188 22.6053 12.8708L21.205 13.4086C21.2118 13.4264 21.2177 13.4433 21.2226 13.4594L22.656 13.0172ZM22.6053 12.8708C22.4778 12.5388 22.2754 12.2358 22.0314 11.9623L20.9122 12.961C21.0672 13.1348 21.1577 13.2855 21.205 13.4086L22.6053 12.8708ZM22.0314 11.9623C21.599 11.4776 20.995 11.0404 20.2911 10.6527L19.5674 11.9666C20.1859 12.3072 20.6325 12.6475 20.9122 12.961L22.0314 11.9623ZM20.2911 10.6527C20.0708 10.5313 19.8382 10.4135 19.5948 10.2994L18.9585 11.6578C19.1749 11.7592 19.3781 11.8623 19.5674 11.9666L20.2911 10.6527ZM2.92837 14.0708C3.36233 14.372 3.86838 14.6546 4.42886 14.9158L5.06243 13.5562C4.56122 13.3226 4.13282 13.0809 3.78381 12.8386L2.92837 14.0708ZM4.7406 15.0565C4.88375 15.119 5.03037 15.1803 5.18026 15.2405L5.73861 13.8482C5.60229 13.7936 5.46974 13.7381 5.34112 13.6819L4.7406 15.0565ZM18.8198 9.96378C18.1238 9.68464 17.3541 9.43097 16.5298 9.20941L16.1404 10.658C16.9148 10.8661 17.6274 11.1017 18.2614 11.356L18.8198 9.96378ZM2.92837 14.0708C4.19478 14.95 6.11586 15.6971 8.33087 16.2098L8.66913 14.7484C6.54758 14.2574 4.83166 13.5661 3.78382 12.8386L2.92837 14.0708ZM18.6853 16.6194C19.387 16.4815 20.0244 16.3006 20.5739 16.0762L20.0066 14.6876C19.5675 14.867 19.0272 15.0235 18.396 15.1476L18.6853 16.6194ZM18.5284 3.46106C17.6652 3.0437 16.6293 3.29844 15.6983 3.75315L16.3566 5.10098C17.187 4.6954 17.6623 4.70841 17.8754 4.81148L18.5284 3.46106ZM15.6983 3.75315C15.4284 3.88497 15.153 4.04038 14.8741 4.21636L15.6747 5.48486C15.9142 5.33368 16.1421 5.20574 16.3566 5.10098L15.6983 3.75315ZM14.8741 4.21636C14.7825 4.27416 14.6904 4.33428 14.5979 4.39661L15.4359 5.64069C15.5166 5.58635 15.5962 5.5344 15.6747 5.48487L14.8741 4.21636ZM14.5979 4.39661C12.7356 5.65103 10.6037 7.86862 8.76222 10.5698L10.0016 11.4148C11.7712 8.81906 13.7763 6.75858 15.4359 5.64069L14.5979 4.39661ZM8.76222 10.5698C7.15841 12.9223 6.03766 15.2559 5.54072 17.1468C5.29361 18.087 5.18689 18.9693 5.28788 19.7102C5.38979 20.4579 5.7258 21.1699 6.45529 21.531L7.12068 20.1866C6.99647 20.1251 6.83701 19.9688 6.77414 19.5076C6.71035 19.0397 6.76953 18.3725 6.99146 17.528C7.43261 15.8495 8.46252 13.6723 10.0016 11.4148L8.76222 10.5698ZM6.45852 21.5325L6.46864 21.5375L7.12757 20.19L7.11745 20.185L6.45852 21.5325ZM19.5066 7.66698C19.621 7.19949 19.6978 6.75255 19.7312 6.33479L18.2359 6.21551C18.2102 6.53799 18.1489 6.90439 18.0496 7.31035L19.5066 7.66698ZM19.7312 6.3348C19.7448 6.16435 19.7512 5.99759 19.7498 5.83531L18.2499 5.84832C18.2509 5.96223 18.2464 6.08466 18.2359 6.21551L19.7312 6.3348ZM19.7498 5.83531C19.7457 5.36119 19.6743 4.90277 19.4994 4.49978L18.1235 5.09716C18.1946 5.26104 18.2469 5.50575 18.2499 5.84832L19.7498 5.83531ZM19.4994 4.49978C19.3068 4.05619 18.9885 3.68354 18.5284 3.46106L17.8754 4.81147C17.9669 4.85572 18.0525 4.93381 18.1235 5.09716L19.4994 4.49978ZM6.47162 21.5389C6.65541 21.6278 6.84845 21.686 7.04545 21.7183L7.28822 20.2381C7.22121 20.2271 7.16785 20.2094 7.12459 20.1885L6.47162 21.5389ZM7.04545 21.7183C7.39693 21.776 7.7597 21.7512 8.11606 21.6744L7.80015 20.2081C7.57889 20.2557 7.4108 20.2582 7.28822 20.2381L7.04545 21.7183ZM8.11606 21.6744C8.74718 21.5384 9.42003 21.226 10.0976 20.8015L9.3011 19.5304C8.7069 19.9027 8.19991 20.1219 7.80015 20.2081L8.11606 21.6744ZM10.0976 20.8015C10.258 20.7009 10.42 20.5933 10.5832 20.479L9.72274 19.2503C9.57901 19.351 9.43834 19.4444 9.3011 19.5304L10.0976 20.8015ZM10.5832 20.479C10.8552 20.2885 11.1315 20.0789 11.4102 19.8519L10.4632 18.6887C10.2097 18.895 9.96237 19.0825 9.72274 19.2503L10.5832 20.479ZM5.49352 17.333C5.27395 18.23 5.18708 19.0735 5.29877 19.7842C5.41191 20.5041 5.75073 21.1822 6.45528 21.531L7.12069 20.1866C6.99951 20.1266 6.84779 19.979 6.78059 19.5513C6.71194 19.1145 6.75494 18.4886 6.9505 17.6896L5.49352 17.333ZM14.5979 4.39662C14.2675 4.61913 13.9305 4.87073 13.5899 5.14805L14.5369 6.31129C14.8468 6.05899 15.1475 5.83496 15.4359 5.64068L14.5979 4.39662ZM18.9816 9.32226C19.3976 8.23257 19.6612 7.21268 19.7312 6.33478L18.2359 6.21553C18.181 6.90431 17.9654 7.7786 17.5803 8.78725L18.9816 9.32226ZM11.4096 19.8524L12.5845 18.8977L11.6386 17.7336L10.4637 18.6882L11.4096 19.8524ZM13.1057 13.9287L13.3079 14.0495L14.0774 12.762L13.8752 12.6411L13.1057 13.9287ZM14.8522 14.2405L15.0703 14.1727L14.6254 12.7402L14.4074 12.8079L14.8522 14.2405ZM15.6339 14.7264L15.5912 14.9561L17.0659 15.2304L17.1087 15.0007L15.6339 14.7264ZM15.9314 16.4731L16.0698 16.6668L17.2904 15.795L17.1521 15.6013L15.9314 16.4731ZM15.8268 17.3501L15.5982 17.3712L15.7362 18.8648L15.9648 18.8437L15.8268 17.3501ZM14.2496 18.1498L14.117 18.3373L15.3415 19.2035L15.4741 19.0161L14.2496 18.1498ZM13.4038 18.206L13.3052 17.9894L11.9399 18.6106L12.0385 18.8272L13.4038 18.206ZM12.1615 16.9362L11.9413 16.8584L11.4414 18.2726L11.6617 18.3505L12.1615 16.9362ZM11.7436 16.0934L11.9113 15.9384L10.8931 14.8369L10.7254 14.9919L11.7436 16.0934ZM12.5181 14.5055L12.5146 14.27L11.0147 14.2926L11.0183 14.5281L12.5181 14.5055ZM11.9113 15.9384C12.047 15.813 12.2924 15.6073 12.4177 15.3092L11.0349 14.728C11.0553 14.6793 11.079 14.6571 11.0624 14.6752C11.0525 14.6861 11.0356 14.7033 11.0058 14.7318C10.9759 14.7604 10.9405 14.7931 10.8931 14.8369L11.9113 15.9384ZM11.0183 14.5281C11.0193 14.5945 11.02 14.6448 11.02 14.6882C11.02 14.7313 11.0192 14.7577 11.0181 14.7747C11.0162 14.8052 11.0149 14.7754 11.0349 14.728L12.4177 15.3092C12.5407 15.0165 12.521 14.6973 12.5181 14.5055L11.0183 14.5281ZM11.9413 16.8584C11.4922 16.6996 11.236 16.607 11.0739 16.5215C10.9203 16.4405 11.0352 16.4594 11.0698 16.6125L9.60668 16.943C9.71724 17.4325 10.083 17.6948 10.3741 17.8483C10.6567 17.9974 11.0391 18.1304 11.4414 18.2726L11.9413 16.8584ZM10.7254 14.9919C10.4205 15.2737 10.1249 15.5441 9.92781 15.7919C9.72129 16.0516 9.49424 16.445 9.60668 16.943L11.0698 16.6125C11.1063 16.774 11.0033 16.8495 11.1019 16.7255C11.2099 16.5897 11.4004 16.4107 11.7436 16.0934L10.7254 14.9919ZM13.3052 17.9894C13.223 17.8086 13.1061 17.5187 12.8762 17.3064L11.8585 18.4083C11.8256 18.3779 11.8165 18.3549 11.8322 18.3834C11.841 18.3993 11.8534 18.4237 11.8721 18.4633C11.891 18.5031 11.9122 18.5496 11.9399 18.6106L13.3052 17.9894ZM11.6617 18.3505C11.7238 18.3724 11.7707 18.389 11.8109 18.4039C11.8509 18.4188 11.875 18.4286 11.8904 18.4354C11.9169 18.4472 11.892 18.4392 11.8585 18.4083L12.8762 17.3064C12.6438 17.0917 12.3447 17.0009 12.1615 16.9362L11.6617 18.3505ZM14.117 18.3373C13.8455 18.721 13.6918 18.9345 13.5716 19.059C13.4583 19.1763 13.5332 19.0471 13.7206 19.0708L13.5325 20.5589C14.0539 20.6248 14.4239 20.3356 14.6504 20.1012C14.8698 19.874 15.1005 19.5443 15.3415 19.2036L14.117 18.3373ZM12.0385 18.8272C12.2189 19.2239 12.3868 19.5972 12.5593 19.8674C12.7325 20.1388 13.0264 20.495 13.5325 20.5589L13.7206 19.0708C13.8928 19.0925 13.9245 19.2183 13.8237 19.0604C13.7222 18.9014 13.6043 18.6467 13.4038 18.206L12.0385 18.8272ZM15.5982 17.3712C15.4161 17.388 15.0913 17.4018 14.8104 17.564L15.5604 18.863C15.5113 18.8914 15.4766 18.8947 15.5018 18.8903C15.5165 18.8877 15.5406 18.8843 15.5819 18.8798C15.6233 18.8753 15.6717 18.8708 15.7362 18.8648L15.5982 17.3712ZM15.4741 19.0161C15.5115 18.9632 15.5396 18.9236 15.5643 18.8899C15.5888 18.8564 15.6038 18.8373 15.6134 18.8259C15.6298 18.8063 15.6096 18.8347 15.5604 18.863L14.8104 17.564C14.5296 17.7261 14.3552 18.0005 14.2496 18.1498L15.4741 19.0161ZM16.0698 16.6668C16.3512 17.0608 16.5128 17.2903 16.5997 17.4576C16.6861 17.6238 16.593 17.5335 16.6603 17.3736L18.0431 17.9547C18.2408 17.4845 18.0793 17.0518 17.9309 16.7662C17.7831 16.4816 17.5437 16.1496 17.2904 15.795L16.0698 16.6668ZM15.9648 18.8437C16.3804 18.8053 16.7813 18.7704 17.0878 18.694C17.404 18.6151 17.8395 18.4392 18.0431 17.9547L16.6603 17.3736C16.7335 17.1994 16.8828 17.1991 16.7246 17.2386C16.5567 17.2805 16.2949 17.3068 15.8268 17.3501L15.9648 18.8437ZM15.5912 14.9561C15.5557 15.1471 15.4848 15.4515 15.5545 15.7601L17.0176 15.4297C17.0276 15.4741 17.0221 15.4997 17.0252 15.4709C17.0269 15.4541 17.0305 15.4284 17.0376 15.3863C17.0448 15.344 17.0539 15.2951 17.0659 15.2304L15.5912 14.9561ZM17.1521 15.6013C17.1132 15.5468 17.0835 15.5052 17.0584 15.469C17.0335 15.4329 17.0186 15.41 17.0092 15.3945C16.9924 15.3666 17.0077 15.3859 17.0176 15.4297L15.5545 15.7601C15.6234 16.0654 15.816 16.3115 15.9314 16.4731L17.1521 15.6013ZM15.0703 14.1727C15.5167 14.0341 15.7669 13.9587 15.9386 13.933C16.0952 13.9096 15.9784 13.9611 15.8568 13.8488L16.8745 12.7469C16.4995 12.4005 16.0453 12.4005 15.7171 12.4495C15.4039 12.4962 15.022 12.6171 14.6254 12.7402L15.0703 14.1727ZM17.1087 15.0007C17.1867 14.5811 17.2626 14.1834 17.2748 13.8642C17.2874 13.5353 17.2432 13.0874 16.8745 12.7469L15.8568 13.8488C15.7414 13.7423 15.7826 13.6333 15.7759 13.8068C15.7689 13.99 15.721 14.2581 15.6339 14.7264L17.1087 15.0007ZM13.3079 14.0495C13.4726 14.1479 13.7391 14.3246 14.0541 14.3644L14.2422 12.8762C14.2932 12.8827 14.3184 12.8986 14.291 12.8851C14.2757 12.8775 14.2525 12.865 14.2151 12.8435C14.1776 12.8218 14.1343 12.796 14.0774 12.762L13.3079 14.0495ZM14.4074 12.8079C14.3458 12.827 14.2997 12.8413 14.26 12.853C14.2205 12.8645 14.1971 12.8705 14.1827 12.8737C14.1587 12.879 14.1898 12.8696 14.2422 12.8762L14.0541 14.3644C14.3749 14.4049 14.6758 14.2952 14.8522 14.2405L14.4074 12.8079ZM13.8752 12.6411C13.5059 12.4204 13.157 12.2096 12.863 12.0875C12.5684 11.9652 12.1111 11.8378 11.6561 12.1005L12.4061 13.3995C12.2381 13.4965 12.1196 13.403 12.2876 13.4728C12.4562 13.5428 12.6934 13.6823 13.1057 13.9287L13.8752 12.6411ZM12.5146 14.27C12.5073 13.7897 12.5051 13.5145 12.5288 13.3336C12.5524 13.1532 12.5741 13.3025 12.4061 13.3995L11.6561 12.1005C11.2011 12.3632 11.0828 12.823 11.0414 13.1392C11.0002 13.4549 11.0083 13.8625 11.0147 14.2926L12.5146 14.27Z" fill="currentColors"/>
</svg>
