<svg width="24" height="24" viewBox="0 0 24 24" fill="currentColors" xmlns="http://www.w3.org/2000/svg">
<path d="M12.7071 12.7071C12.3165 13.0977 11.6834 13.0977 11.2929 12.7071C10.9023 12.3166 10.9023 11.6834 11.2929 11.2929C11.6834 10.9024 12.3165 10.9024 12.7071 11.2929C13.0976 11.6834 13.0976 12.3166 12.7071 12.7071Z" fill="currentColors"/>
<path d="M9.87864 8.4645C9.48811 8.85502 8.85495 8.85502 8.46442 8.4645C8.0739 8.07397 8.0739 7.44081 8.46442 7.05028C8.85495 6.65976 9.48811 6.65976 9.87864 7.05028C10.2692 7.44081 10.2692 8.07397 9.87864 8.4645Z" fill="currentColors"/>
<path d="M16.9497 15.5356C16.5592 15.9261 15.926 15.9261 15.5355 15.5356C15.145 15.145 15.145 14.5119 15.5355 14.1214C15.926 13.7308 16.5592 13.7308 16.9497 14.1214C17.3402 14.5119 17.3402 15.145 16.9497 15.5356Z" fill="currentColors"/>
<path fill-rule="evenodd" clip-rule="evenodd" d="M8.10418 4.31696C7.15357 4.15448 6.58657 4.33195 6.28921 4.62931C6.06615 4.85237 5.91193 5.21872 5.9158 5.7984C5.91969 6.38185 6.08641 7.11932 6.4368 7.97172C7.13625 9.67325 8.50906 11.6909 10.4091 13.5909C12.3091 15.4909 14.3267 16.8637 16.0283 17.5632C16.8807 17.9136 17.6181 18.0803 18.2016 18.0842C18.7813 18.0881 19.1476 17.9338 19.3707 17.7108C19.668 17.4134 19.8455 16.8464 19.683 15.8958C19.5566 15.1561 19.2354 14.2749 18.7236 13.3126C18.5174 13.4193 18.2597 13.485 17.9626 13.4317C17.2418 13.3022 15.8859 12.704 13.591 10.409C11.296 8.11408 10.6978 6.75818 10.5683 6.03741C10.515 5.74031 10.5807 5.48262 10.6874 5.27643C9.72514 4.76463 8.84392 4.44341 8.10418 4.31696ZM11.8357 4.19751C10.6152 3.49737 9.42224 3.02051 8.35691 2.83841C7.1906 2.63905 6.02356 2.77364 5.22855 3.56865C4.63665 4.16054 4.41022 4.9663 4.41583 5.8084C4.42142 6.64674 4.65429 7.58073 5.04945 8.54202C5.84109 10.4678 7.34317 12.6463 9.34841 14.6516C11.3536 16.6568 13.5322 18.1589 15.458 18.9505C16.4193 19.3457 17.3533 19.5786 18.1916 19.5842C19.0337 19.5898 19.8394 19.3633 20.4313 18.7714C21.2264 17.9764 21.3609 16.8094 21.1616 15.6431C20.9795 14.5777 20.5026 13.3847 19.8025 12.1643C21.1906 10.0398 20.9518 7.16326 19.086 5.29754L18.7025 4.91395C16.8367 3.04822 13.9602 2.80941 11.8357 4.19751ZM12.0794 5.91162C12.2071 6.33133 12.7101 7.40683 14.6516 9.34838C16.5932 11.2899 17.6687 11.7929 18.0884 11.9206C19.5789 10.3624 19.5579 7.89071 18.0254 6.3582L17.6418 5.97461C16.1093 4.44209 13.6376 4.4211 12.0794 5.91162ZM4.75211 10.7626C5.04501 11.0555 5.04501 11.5304 4.75211 11.8233L2.63079 13.9446C2.3379 14.2375 1.86303 14.2375 1.57013 13.9446C1.27724 13.6517 1.27724 13.1768 1.57013 12.8839L3.69145 10.7626C3.98435 10.4697 4.45922 10.4697 4.75211 10.7626ZM8.28765 15.7123C8.58054 16.0052 8.58054 16.4801 8.28765 16.773L4.16633 20.8943C3.87344 21.1872 3.39856 21.1872 3.10567 20.8943C2.81277 20.6014 2.81277 20.1266 3.10567 19.8337L7.22699 15.7123C7.51988 15.4195 7.99475 15.4195 8.28765 15.7123ZM13.2374 19.2479C13.5303 19.5408 13.5303 20.0156 13.2374 20.3085L11.1161 22.4299C10.8232 22.7227 10.3483 22.7227 10.0554 22.4299C9.76252 22.137 9.76252 21.6621 10.0554 21.3692L12.1767 19.2479C12.4696 18.955 12.9445 18.955 13.2374 19.2479Z" fill="currentColors"/>
</svg>
