<svg width="24" height="24" viewBox="0 0 24 24" fill="currentColors" xmlns="http://www.w3.org/2000/svg">
<path fill-rule="evenodd" clip-rule="evenodd" d="M12.5 2.75C11.5335 2.75 10.75 3.5335 10.75 4.5C10.75 5.4665 11.5335 6.25 12.5 6.25C13.4665 6.25 14.25 5.4665 14.25 4.5C14.25 3.5335 13.4665 2.75 12.5 2.75ZM9.25001 4.5C9.25001 2.70507 10.7051 1.25 12.5 1.25C14.2949 1.25 15.75 2.70507 15.75 4.5C15.75 6.29493 14.2949 7.75 12.5 7.75C10.7051 7.75 9.25001 6.29493 9.25001 4.5ZM13.5278 10.7532C13.4898 10.7505 13.442 10.75 13.2699 10.75H12.1787L12.0876 11.6615C11.9136 13.4019 11.853 14.1013 12.0085 14.7631C12.164 15.4248 12.5296 16.024 13.4605 17.5048L16.0354 21.6008C16.2558 21.9515 16.1502 22.4145 15.7996 22.635C15.4489 22.8554 14.9859 22.7498 14.7654 22.3992L12.1906 18.3031C12.1661 18.2642 12.1418 18.2256 12.1179 18.1875C11.283 16.8599 10.7679 16.0407 10.5483 15.1061C10.3287 14.1715 10.4251 13.2086 10.5814 11.6482C10.5859 11.6034 10.5905 11.5581 10.595 11.5123L10.6712 10.7509C10.17 10.7535 9.79926 10.7632 9.49996 10.7995C9.12274 10.8453 8.94681 10.925 8.82219 11.0249C8.69757 11.1249 8.58163 11.2794 8.45511 11.6377C8.32179 12.0153 8.20697 12.526 8.03609 13.295L7.73215 14.6627C7.64229 15.067 7.24166 15.322 6.83731 15.2321C6.43296 15.1423 6.17801 14.7417 6.26787 14.3373L6.58157 12.9256C6.74007 12.2123 6.87349 11.6118 7.0407 11.1382C7.21813 10.6357 7.45981 10.1948 7.8836 9.85489C8.30739 9.51494 8.79023 9.37465 9.31924 9.31045C9.81776 9.24995 10.4329 9.24997 11.1637 9.25L13.2699 9.25C13.2782 9.25 13.2864 9.25 13.2945 9.25C13.4306 9.24997 13.5363 9.24995 13.6351 9.25704C14.7491 9.33691 15.7042 10.0826 16.0518 11.1439C16.0827 11.2381 16.1083 11.3407 16.1413 11.4726L16.1472 11.4966C16.2034 11.7211 16.2201 11.7848 16.2355 11.8293C16.4458 12.4354 17.0807 12.7839 17.7049 12.6359C17.7507 12.6251 17.8135 12.6049 18.033 12.5318L18.7628 12.2885C19.1558 12.1575 19.5805 12.3699 19.7115 12.7628C19.8425 13.1558 19.6301 13.5805 19.2372 13.7115L18.5073 13.9548C18.4964 13.9584 18.4856 13.9621 18.4749 13.9656C18.3029 14.023 18.1709 14.067 18.0509 14.0955C16.6777 14.4211 15.2809 13.6543 14.8184 12.321C14.778 12.2045 14.7442 12.0695 14.7003 11.8935C14.6976 11.8827 14.6948 11.8716 14.692 11.8604C14.6503 11.6934 14.6382 11.6472 14.6263 11.6109C14.4683 11.1285 14.0342 10.7895 13.5278 10.7532ZM10.416 16.876C10.7607 17.1057 10.8538 17.5714 10.624 17.916L7.62405 22.416C7.39428 22.7607 6.92863 22.8538 6.58398 22.624C6.23934 22.3943 6.14621 21.9286 6.37597 21.584L9.37597 17.084C9.60573 16.7393 10.0714 16.6462 10.416 16.876Z" fill="currentColors"/>
</svg>
