<svg width="24" height="24" viewBox="0 0 24 24" fill="currentColors" xmlns="http://www.w3.org/2000/svg">
<path fill-rule="evenodd" clip-rule="evenodd" d="M12.5 2.75C11.5335 2.75 10.75 3.5335 10.75 4.5C10.75 5.4665 11.5335 6.25 12.5 6.25C13.4665 6.25 14.25 5.4665 14.25 4.5C14.25 3.5335 13.4665 2.75 12.5 2.75ZM9.25 4.5C9.25 2.70507 10.7051 1.25 12.5 1.25C14.2949 1.25 15.75 2.70507 15.75 4.5C15.75 6.29493 14.2949 7.75 12.5 7.75C10.7051 7.75 9.25 6.29493 9.25 4.5ZM10.9292 9.2672C11.129 9.25637 11.3217 9.25 11.5 9.25C12.0541 9.25 12.6539 9.31157 13.1938 9.38913C14.7153 9.60766 15.8674 10.7305 16.3278 12.1117C16.4321 12.4245 16.7484 12.6149 17.0736 12.5607L18.8767 12.2602C19.2853 12.1921 19.6717 12.4681 19.7398 12.8767C19.8079 13.2853 19.5319 13.6717 19.1233 13.7398L17.3202 14.0403C16.2669 14.2159 15.2424 13.599 14.9048 12.586C14.5975 11.6642 13.8619 11.0005 12.9805 10.8739C12.7129 10.8354 12.4404 10.8029 12.1757 10.7809L11.9045 13.4923C11.8205 14.332 11.8107 14.5537 11.8674 14.7518C11.9241 14.9498 12.0497 15.1328 12.5652 15.8009L16.9942 21.5419C17.2472 21.8698 17.1865 22.3408 16.8585 22.5938C16.5306 22.8468 16.0596 22.7861 15.8066 22.4581L11.3775 16.7172C11.3536 16.6862 11.33 16.6556 11.3066 16.6254C10.896 16.0941 10.5711 15.6738 10.4253 15.1645C10.2796 14.6551 10.3329 14.1265 10.4003 13.4585C10.4042 13.4205 10.4081 13.382 10.4119 13.3431L10.666 10.8023C8.99271 11.076 7.75 12.6491 7.75 14.5C7.75 14.9142 7.41421 15.25 7 15.25C6.58578 15.25 6.25 14.9142 6.25 14.5C6.25 11.8593 8.1638 9.41707 10.9292 9.2672ZM10.1471 16.7646C10.5533 16.8458 10.8167 17.2409 10.7354 17.6471C10.3779 19.4349 9.40137 21.0394 7.97769 22.1783L7.46852 22.5857C7.14507 22.8444 6.6731 22.792 6.41435 22.4685C6.15559 22.1451 6.20803 21.6731 6.53148 21.4143L7.04064 21.007C8.18874 20.0885 8.97622 18.7946 9.26456 17.3529C9.3458 16.9467 9.74091 16.6833 10.1471 16.7646Z" fill="currentColors"/>
</svg>
