<svg width="24" height="24" viewBox="0 0 24 24" fill="currentColors" xmlns="http://www.w3.org/2000/svg">
<path fill-rule="evenodd" clip-rule="evenodd" d="M12 22C16.9705 22 21 17.9705 21 13C21 8.02942 16.9705 3.99998 12 3.99998C7.02942 3.99998 2.99998 8.02942 2.99998 13C2.99998 17.9705 7.02942 22 12 22ZM15 12.25C15.4142 12.25 15.75 12.5858 15.75 13C15.75 13.4142 15.4142 13.75 15 13.75L8.99998 13.75C8.58576 13.75 8.24998 13.4142 8.24998 13C8.24998 12.5858 8.58576 12.25 8.99998 12.25L15 12.25Z" fill="currentColors"/>
<path fill-rule="evenodd" clip-rule="evenodd" d="M8.136 1.60248C8.35553 1.95373 8.24875 2.41645 7.8975 2.63598L3.89748 5.13598C3.54622 5.35551 3.08351 5.24873 2.86398 4.89748C2.64445 4.54622 2.75123 4.08351 3.10248 3.86398L7.1025 1.36398C7.45376 1.14445 7.91647 1.25123 8.136 1.60248ZM15.864 1.60248C16.0835 1.25123 16.5462 1.14445 16.8975 1.36398L20.8975 3.86398C21.2487 4.08351 21.3555 4.54623 21.136 4.89748C20.9164 5.24873 20.4537 5.35551 20.1025 5.13598L16.1025 2.63598C15.7512 2.41644 15.6444 1.95373 15.864 1.60248Z" fill="currentColors"/>
</svg>
