<svg width="24" height="24" viewBox="0 0 24 24" fill="currentColors" xmlns="http://www.w3.org/2000/svg">
<path fill-rule="evenodd" clip-rule="evenodd" d="M8.136 1.60248C8.35553 1.95373 8.24875 2.41645 7.8975 2.63598L3.89748 5.13598C3.54622 5.35551 3.08351 5.24873 2.86398 4.89748C2.64445 4.54622 2.75123 4.08351 3.10248 3.86398L7.1025 1.36398C7.45376 1.14445 7.91647 1.25123 8.136 1.60248ZM15.864 1.60248C16.0835 1.25123 16.5462 1.14445 16.8975 1.36398L20.8975 3.86398C21.2487 4.08351 21.3555 4.54623 21.136 4.89748C20.9164 5.24873 20.4537 5.35551 20.1025 5.13598L16.1025 2.63598C15.7512 2.41644 15.6444 1.95373 15.864 1.60248Z" fill="currentColors"/>
<path fill-rule="evenodd" clip-rule="evenodd" d="M12 22C16.9705 22 21 17.9705 21 13C21 8.02942 16.9705 3.99998 12 3.99998C7.02942 3.99998 2.99998 8.02942 2.99998 13C2.99998 17.9705 7.02942 22 12 22ZM8.99998 10.75C8.58576 10.75 8.24998 10.4142 8.24998 9.99998C8.24998 9.58577 8.58576 9.24998 8.99998 9.24998H15C15.3033 9.24998 15.5768 9.43271 15.6929 9.71297C15.809 9.99322 15.7448 10.3158 15.5303 10.5303L10.8106 15.25H15C15.4142 15.25 15.75 15.5858 15.75 16C15.75 16.4142 15.4142 16.75 15 16.75H8.99998C8.69663 16.75 8.42315 16.5672 8.30707 16.287C8.19098 16.0067 8.25515 15.6841 8.46965 15.4696L13.1893 10.75H8.99998Z" fill="currentColors"/>
</svg>
