<svg width="24" height="24" viewBox="0 0 24 24" fill="currentColors" xmlns="http://www.w3.org/2000/svg">
<path fill-rule="evenodd" clip-rule="evenodd" d="M12.0001 22C16.9707 22 21.0001 17.9705 21.0001 13C21.0001 8.02942 16.9707 3.99998 12.0001 3.99998C7.02954 3.99998 3.0001 8.02942 3.0001 13C3.0001 17.9705 7.02954 22 12.0001 22ZM12.0001 9.24998C12.4143 9.24998 12.7501 9.58577 12.7501 9.99998V12.25H15.0001C15.4143 12.25 15.7501 12.5858 15.7501 13C15.7501 13.4142 15.4143 13.75 15.0001 13.75H12.7501L12.7501 16C12.7501 16.4142 12.4143 16.75 12.0001 16.75C11.5859 16.75 11.2501 16.4142 11.2501 16V13.75H9.0001C8.58589 13.75 8.2501 13.4142 8.2501 13C8.2501 12.5858 8.58589 12.25 9.0001 12.25H11.2501L11.2501 9.99998C11.2501 9.58577 11.5859 9.24998 12.0001 9.24998Z" fill="currentColors"/>
<path fill-rule="evenodd" clip-rule="evenodd" d="M8.13612 1.60248C8.35566 1.95373 8.24887 2.41645 7.89762 2.63598L3.8976 5.13598C3.54634 5.35551 3.08363 5.24873 2.8641 4.89748C2.64457 4.54622 2.75135 4.08351 3.1026 3.86398L7.10263 1.36398C7.45388 1.14445 7.91659 1.25123 8.13612 1.60248ZM15.8641 1.60248C16.0836 1.25123 16.5463 1.14445 16.8976 1.36398L20.8976 3.86398C21.2489 4.08351 21.3556 4.54623 21.1361 4.89748C20.9166 5.24873 20.4539 5.35551 20.1026 5.13598L16.1026 2.63598C15.7513 2.41644 15.6446 1.95373 15.8641 1.60248Z" fill="currentColors"/>
</svg>
