<svg width="24" height="24" viewBox="0 0 24 24" fill="currentColors" xmlns="http://www.w3.org/2000/svg">
<path fill-rule="evenodd" clip-rule="evenodd" d="M12 22C16.9705 22 21 17.9705 21 13C21 8.02942 16.9705 3.99998 12 3.99998C7.02942 3.99998 2.99998 8.02942 2.99998 13C2.99998 17.9705 7.02942 22 12 22ZM14.6516 10.3483C14.9445 10.6412 14.9445 11.1161 14.6516 11.409L13.0606 13L14.6516 14.591C14.9445 14.8839 14.9445 15.3588 14.6516 15.6516C14.3587 15.9445 13.8838 15.9445 13.591 15.6516L12 14.0607L10.409 15.6516C10.1161 15.9445 9.64122 15.9445 9.34833 15.6516C9.05543 15.3587 9.05543 14.8839 9.34833 14.591L10.9393 13L9.34831 11.409C9.05542 11.1161 9.05542 10.6412 9.34831 10.3483C9.6412 10.0555 10.1161 10.0555 10.409 10.3483L12 11.9393L13.591 10.3483C13.8839 10.0554 14.3587 10.0554 14.6516 10.3483Z" fill="currentColors"/>
<path fill-rule="evenodd" clip-rule="evenodd" d="M8.136 1.60248C8.35553 1.95373 8.24875 2.41645 7.8975 2.63598L3.89748 5.13598C3.54622 5.35551 3.08351 5.24873 2.86398 4.89748C2.64445 4.54622 2.75123 4.08351 3.10248 3.86398L7.1025 1.36398C7.45376 1.14445 7.91647 1.25123 8.136 1.60248ZM15.864 1.60248C16.0835 1.25123 16.5462 1.14445 16.8975 1.36398L20.8975 3.86398C21.2487 4.08351 21.3555 4.54623 21.136 4.89748C20.9164 5.24873 20.4537 5.35551 20.1025 5.13598L16.1025 2.63598C15.7512 2.41644 15.6444 1.95373 15.864 1.60248Z" fill="currentColors"/>
</svg>
