<svg width="24" height="24" viewBox="0 0 24 24" fill="currentColors" xmlns="http://www.w3.org/2000/svg">
<path fill-rule="evenodd" clip-rule="evenodd" d="M12 22C16.9705 22 21 17.9705 21 13C21 8.02942 16.9705 3.99998 12 3.99998C7.02942 3.99998 2.99998 8.02942 2.99998 13C2.99998 17.9705 7.02942 22 12 22ZM13.0261 10.2749C12.7888 10.1083 12.5201 9.93595 12.2419 9.76677C11.1695 9.11463 10.6333 8.78857 10.1524 9.14958C9.67148 9.51059 9.62777 10.2663 9.54036 11.7778C9.51564 12.2053 9.49998 12.6243 9.49998 13C9.49998 13.3756 9.51564 13.7947 9.54036 14.2221C9.62777 15.7336 9.67148 16.4894 10.1524 16.8504C10.6333 17.2114 11.1695 16.8853 12.2419 16.2332C12.5201 16.064 12.7888 15.8917 13.0261 15.7251C13.2965 15.5351 13.5909 15.3072 13.8876 15.0652C14.9625 14.1883 15.5 13.7499 15.5 13C15.5 12.2501 14.9625 11.8117 13.8876 10.9348C13.5909 10.6927 13.2965 10.4648 13.0261 10.2749Z" fill="currentColors"/>
<path fill-rule="evenodd" clip-rule="evenodd" d="M8.136 1.60248C8.35553 1.95373 8.24875 2.41645 7.8975 2.63598L3.89748 5.13598C3.54622 5.35551 3.08351 5.24873 2.86398 4.89748C2.64445 4.54622 2.75123 4.08351 3.10248 3.86398L7.1025 1.36398C7.45376 1.14445 7.91647 1.25123 8.136 1.60248ZM15.864 1.60248C16.0835 1.25123 16.5462 1.14445 16.8975 1.36398L20.8975 3.86398C21.2487 4.08351 21.3555 4.54623 21.136 4.89748C20.9164 5.24873 20.4537 5.35551 20.1025 5.13598L16.1025 2.63598C15.7512 2.41644 15.6444 1.95373 15.864 1.60248Z" fill="currentColors"/>
</svg>
