<svg width="24" height="24" viewBox="0 0 24 24" fill="currentColors" xmlns="http://www.w3.org/2000/svg">
<path fill-rule="evenodd" clip-rule="evenodd" d="M8.136 1.60248C8.35553 1.95373 8.24875 2.41645 7.8975 2.63598L3.89748 5.13598C3.54622 5.35551 3.08351 5.24873 2.86398 4.89748C2.64445 4.54622 2.75123 4.08351 3.10248 3.86398L7.1025 1.36398C7.45376 1.14445 7.91647 1.25123 8.136 1.60248ZM15.864 1.60248C16.0835 1.25123 16.5462 1.14445 16.8975 1.36398L20.8975 3.86398C21.2487 4.08351 21.3555 4.54623 21.136 4.89748C20.9164 5.24873 20.4537 5.35551 20.1025 5.13598L16.1025 2.63598C15.7512 2.41644 15.6444 1.95373 15.864 1.60248Z" fill="currentColors"/>
<path fill-rule="evenodd" clip-rule="evenodd" d="M21 13C21 17.9705 16.9705 22 12 22C7.02942 22 2.99998 17.9705 2.99998 13C2.99998 8.02942 7.02942 3.99998 12 3.99998C16.9705 3.99998 21 8.02942 21 13ZM16 15.5C16 15.9659 16 16.1989 15.9239 16.3827C15.8224 16.6277 15.6277 16.8224 15.3827 16.9239C15.1989 17 14.9659 17 14.5 17C14.034 17 13.8011 17 13.6173 16.9239C13.3723 16.8224 13.1776 16.6277 13.0761 16.3827C13 16.1989 13 15.9659 13 15.5V10.5C13 10.034 13 9.80107 13.0761 9.6173C13.1776 9.37227 13.3723 9.17759 13.6173 9.0761C13.8011 8.99998 14.034 8.99998 14.5 8.99998C14.9659 8.99998 15.1989 8.99998 15.3827 9.0761C15.6277 9.17759 15.8224 9.37227 15.9239 9.6173C16 9.80107 16 10.034 16 10.5V15.5ZM11 15.5V10.5C11 10.034 11 9.80107 10.9239 9.6173C10.8224 9.37227 10.6277 9.17759 10.3827 9.0761C10.1989 8.99998 9.96592 8.99998 9.49998 8.99998C9.03404 8.99998 8.80107 8.99998 8.6173 9.0761C8.37227 9.17759 8.17759 9.37227 8.0761 9.6173C7.99998 9.80107 7.99998 10.034 7.99998 10.5V15.5C7.99998 15.9659 7.99998 16.1989 8.0761 16.3827C8.17759 16.6277 8.37227 16.8224 8.6173 16.9239C8.80107 17 9.03404 17 9.49998 17C9.96592 17 10.1989 17 10.3827 16.9239C10.6277 16.8224 10.8224 16.6277 10.9239 16.3827C11 16.1989 11 15.9659 11 15.5Z" fill="currentColors"/>
</svg>
