<svg width="24" height="24" viewBox="0 0 24 24" fill="currentColors" xmlns="http://www.w3.org/2000/svg">
<path d="M15.6646 2.82922C16.0351 2.64398 16.4856 2.79415 16.6708 3.16463L17.1708 4.16463C17.3561 4.53512 17.2059 4.98562 16.8354 5.17086C16.4649 5.3561 16.0144 5.20594 15.8292 4.83545L15.3292 3.83545C15.1439 3.46497 15.2941 3.01446 15.6646 2.82922Z" fill="currentColors"/>
<path d="M18.8292 7.16463C19.0144 6.79415 19.4649 6.64398 19.8354 6.82922L20.8354 7.32922C21.2059 7.51446 21.3561 7.96497 21.1708 8.33545C20.9856 8.70594 20.5351 8.8561 20.1646 8.67086L19.1646 8.17086C18.7941 7.98562 18.6439 7.53512 18.8292 7.16463Z" fill="currentColors"/>
<path d="M20.5303 4.53037C20.8232 4.23748 20.8232 3.76261 20.5303 3.46971C20.2374 3.17682 19.7626 3.17682 19.4697 3.46971L18.4697 4.46971C18.1768 4.76261 18.1768 5.23748 18.4697 5.53037C18.7626 5.82327 19.2374 5.82327 19.5303 5.53037L20.5303 4.53037Z" fill="currentColors"/>
<path d="M17 14.5C17 18.6422 13.6421 22 9.5 22C5.35786 22 2 18.6422 2 14.5C2 10.3579 5.35786 7.00004 9.5 7.00004C13.6421 7.00004 17 10.3579 17 14.5Z" fill="currentColors"/>
<path d="M17.5302 7.53037L16.3722 8.68841C16.0486 8.30618 15.6938 7.95131 15.3115 7.62775L16.4696 6.46971C16.7625 6.17682 17.2373 6.17682 17.5302 6.46971C17.8231 6.76261 17.8231 7.23748 17.5302 7.53037Z" fill="currentColors"/>
</svg>
