<svg width="24" height="24" viewBox="0 0 24 24" fill="currentColors" xmlns="http://www.w3.org/2000/svg">
<path d="M2.16208 9.49968C2 10.6035 2 12.0495 2 14C2 17.7712 2 19.6569 3.17157 20.8284C4.34315 22 6.22876 22 10 22H14C17.7712 22 19.6569 22 20.8284 20.8284C22 19.6569 22 17.7712 22 14C22 12.0497 22 10.6036 21.8379 9.49988C19.5613 10.9797 18.1021 11.9235 16.75 12.5047V13C16.75 13.4142 16.4142 13.75 16 13.75C15.5913 13.75 15.259 13.4231 15.2502 13.0165C13.1199 13.5781 10.8801 13.5781 8.74982 13.0164C8.74109 13.4231 8.40872 13.75 8 13.75C7.58579 13.75 7.25 13.4142 7.25 13V12.5046C5.89798 11.9233 4.43876 10.9795 2.16208 9.49968Z" fill="currentColors"/>
<path d="M2.5802 8.00965C2.63777 8.02929 2.69387 8.05631 2.74721 8.09098C4.84744 9.45613 6.16701 10.31 7.26346 10.8578C7.3299 10.5116 7.6344 10.25 8 10.25C8.41421 10.25 8.75 10.5858 8.75 11V11.458C10.8694 12.0976 13.1306 12.0976 15.25 11.4581V11C15.25 10.5858 15.5858 10.25 16 10.25C16.3657 10.25 16.6702 10.5117 16.7366 10.858C17.8331 10.3102 19.1527 9.45626 21.2531 8.09098C21.3064 8.05637 21.3624 8.02939 21.4199 8.00975C21.2667 7.69209 21.0731 7.41626 20.8284 7.17157C19.6569 6 17.7712 6 14 6H10C6.22876 6 4.34315 6 3.17157 7.17157C2.92691 7.41623 2.73334 7.69204 2.5802 8.00965Z" fill="currentColors"/>
<path fill-rule="evenodd" clip-rule="evenodd" d="M11.9999 2.75C11.0214 2.75 10.187 3.37503 9.87774 4.24993C9.73971 4.64047 9.31122 4.84517 8.92068 4.70713C8.53014 4.56909 8.32545 4.1406 8.46348 3.75007C8.97792 2.29459 10.366 1.25 11.9999 1.25C13.6339 1.25 15.0219 2.29459 15.5363 3.75007C15.6744 4.1406 15.4697 4.56909 15.0791 4.70713C14.6886 4.84517 14.2601 4.64047 14.1221 4.24993C13.8128 3.37503 12.9784 2.75 11.9999 2.75Z" fill="currentColors"/>
</svg>
