<svg width="24" height="24" viewBox="0 0 24 24" fill="currentColors" xmlns="http://www.w3.org/2000/svg">
<path fill-rule="evenodd" clip-rule="evenodd" d="M12 22C17.5234 22 22 17.5229 22 12C22 6.47705 17.5234 2 12 2C6.47656 2 2 6.47705 2 12C2 17.5229 6.47656 22 12 22ZM12.5303 7.46973C12.3896 7.3291 12.1992 7.25 12 7.25C11.8008 7.25 11.6104 7.3291 11.4697 7.46973C11.3291 7.61035 11.25 7.80103 11.25 8V12C11.25 12.1987 11.3291 12.3894 11.4697 12.53L13.9697 15.03C14.0391 15.1038 14.1211 15.1628 14.2139 15.2039C14.3057 15.2449 14.4043 15.2668 14.5059 15.2686C14.585 15.27 14.6631 15.2588 14.7393 15.2356L14.7998 15.2141C14.8926 15.1765 14.9775 15.1204 15.0488 15.0491C15.1201 14.9778 15.1768 14.8931 15.2139 14.7996C15.252 14.7063 15.2705 14.6062 15.2686 14.5054C15.2676 14.4512 15.2607 14.3975 15.248 14.3447C15.2373 14.2998 15.2227 14.2559 15.2041 14.2134C15.1631 14.1216 15.1035 14.0386 15.0303 13.97L12.75 11.6899V8C12.75 7.80103 12.6709 7.61035 12.5303 7.46973Z" fill="currentColors"/>
</svg>
