<svg width="24" height="24" viewBox="0 0 24 24" fill="currentColors" xmlns="http://www.w3.org/2000/svg">
<path d="M16.3447 8.93014L16.6891 6.09006C16.7694 5.42841 16.8095 5.09757 16.7403 4.82257C16.6479 4.45589 16.4233 4.14353 16.116 3.95421C15.8855 3.81221 15.5766 3.76923 14.9589 3.68327C14.3412 3.59732 14.0323 3.55434 13.7756 3.62853C13.4332 3.72745 13.1416 3.96799 12.9649 4.29721C12.8323 4.54413 12.7491 5.22997 12.6689 5.89163L6.53735 5.03841C6.6176 4.37675 6.70078 3.69091 6.63151 3.41591C6.53916 3.04924 6.3146 2.73688 6.00724 2.54755C5.77672 2.40555 5.46786 2.36257 4.85014 2.27662C4.23242 2.19066 3.92357 2.14768 3.66682 2.22187C3.3245 2.3208 3.03289 2.56133 2.85613 2.89056C2.72357 3.13748 2.68344 3.4683 2.60319 4.12996L2.25874 6.97005C2.17849 7.6317 2.13836 7.96253 2.20763 8.23754C2.29998 8.60421 2.52454 8.91657 2.8319 9.1059C3.06242 9.24789 3.37128 9.29087 3.98899 9.37683C4.6067 9.46278 4.91557 9.50576 5.17232 9.43157C5.51464 9.33265 5.80625 9.09212 5.98301 8.76289C6.11557 8.51597 6.19876 7.83013 6.279 7.16847L12.4105 8.02169C12.3303 8.68335 12.2471 9.36919 12.3164 9.64419C12.4087 10.0109 12.6333 10.3232 12.9406 10.5126C13.1712 10.6546 13.48 10.6975 14.0977 10.7835C14.7154 10.8694 15.0243 10.9124 15.2811 10.8382C15.6234 10.7393 15.915 10.4988 16.0918 10.1695C16.2243 9.92263 16.2644 9.59179 16.3447 8.93014Z" fill="currentColors"/>
<path d="M7.7611 19.9249L7.06908 17.1586C6.90786 16.5141 6.82725 16.1919 6.86196 15.9095C6.90824 15.5329 7.09227 15.1915 7.37356 14.9603C7.58453 14.7869 7.88537 14.7006 8.48705 14.5279C9.08874 14.3552 9.38958 14.2688 9.65322 14.306C10.0048 14.3556 10.3235 14.5527 10.5393 14.854C10.7012 15.08 10.8683 15.748 11.0296 16.3925L17.0019 14.6784C16.8407 14.0339 16.6736 13.3659 16.7083 13.0835C16.7546 12.7069 16.9386 12.3655 17.2199 12.1343C17.4309 11.9609 17.7317 11.8746 18.3334 11.7019C18.9351 11.5292 19.2359 11.4428 19.4996 11.48C19.8511 11.5296 20.1698 11.7267 20.3857 12.028C20.5476 12.254 20.6282 12.5762 20.7894 13.2207L21.4814 15.9871C21.6426 16.6316 21.7233 16.9538 21.6885 17.2362C21.6423 17.6127 21.4582 17.9542 21.1769 18.1854C20.966 18.3588 20.6651 18.4451 20.0635 18.6178C19.4618 18.7905 19.1609 18.8768 18.8973 18.8396C18.5458 18.7901 18.227 18.593 18.0112 18.2917C17.8493 18.0657 17.6822 17.3976 17.5209 16.7532L11.5486 18.4673C11.7098 19.1118 11.8769 19.7798 11.8422 20.0622C11.7959 20.4387 11.6119 20.7802 11.3306 21.0114C11.1196 21.1848 10.8188 21.2711 10.2171 21.4438C9.61543 21.6165 9.31458 21.7028 9.05093 21.6656C8.6994 21.6161 8.38066 21.4189 8.16481 21.1176C8.00293 20.8917 7.92232 20.5694 7.7611 19.9249Z" fill="currentColors"/>
</svg>
