<svg width="24" height="24" viewBox="0 0 24 24" fill="currentColors" xmlns="http://www.w3.org/2000/svg">
<path d="M13.9548 5.18365L18.9327 9.60839C19.8632 10.4356 20.3285 10.8492 20.5 11.3375C20.6506 11.7664 20.6506 12.2338 20.5 12.6627C20.3285 13.151 19.8632 13.5646 18.9327 14.3918L13.9548 18.8166C13.5325 19.1919 13.3214 19.3796 13.142 19.3863C12.9862 19.3922 12.8366 19.325 12.7375 19.2047C12.6233 19.0662 12.6233 18.7836 12.6233 18.2186V15.4287C10.1952 15.4287 7.63068 16.2085 5.75807 17.5929C4.78317 18.3136 4.29571 18.674 4.11005 18.6597C3.92907 18.6459 3.81422 18.5752 3.72032 18.4199C3.62399 18.2605 3.70907 17.7626 3.87924 16.7668C4.98421 10.3007 9.43419 8.57153 12.6233 8.57153V5.78158C12.6233 5.21656 12.6233 4.93406 12.7375 4.79555C12.8366 4.67523 12.9862 4.60804 13.142 4.61388C13.3214 4.62059 13.5325 4.80828 13.9548 5.18365Z" fill="currentColors"/>
</svg>
