<svg width="24" height="24" viewBox="0 0 24 24" fill="currentColors" xmlns="http://www.w3.org/2000/svg">
<path d="M15.7284 3.88384C17.1627 2.44395 19.2608 2.41371 20.4223 3.57968C21.5859 4.74786 21.5546 6.8591 20.1193 8.29997L17.6955 10.7332C17.4031 11.0267 17.4041 11.5015 17.6975 11.7939C17.991 12.0862 18.4658 12.0853 18.7582 11.7918L21.182 9.35857C23.0933 7.43986 23.3333 4.37653 21.485 2.52108C19.6345 0.663429 16.578 0.905542 14.6657 2.82524L9.81805 7.6917C7.90675 9.61041 7.6668 12.6738 9.51506 14.5292C9.80739 14.8227 10.2823 14.8236 10.5757 14.5313C10.8692 14.2389 10.8701 13.7641 10.5778 13.4706C9.41412 12.3024 9.44547 10.1912 10.8808 8.7503L15.7284 3.88384Z" fill="currentColors"/>
<path d="M14.485 9.47062C14.1926 9.17716 13.7178 9.17624 13.4243 9.46856C13.1309 9.76089 13.1299 10.2358 13.4223 10.5292C14.5859 11.6974 14.5546 13.8086 13.1193 15.2495L8.27165 20.116C6.83733 21.5559 4.73925 21.5861 3.57778 20.4202C2.41412 19.252 2.44546 17.1407 3.88077 15.6998L6.30461 13.2666C6.59694 12.9731 6.59601 12.4982 6.30256 12.2059C6.00909 11.9136 5.53422 11.9145 5.2419 12.208L2.81805 14.6412C0.906754 16.5599 0.666794 19.6233 2.51507 21.4788C4.36554 23.3364 7.42209 23.0943 9.33437 21.1746L14.182 16.3081C16.0933 14.3894 16.3333 11.3261 14.485 9.47062Z" fill="currentColors"/>
</svg>
