<svg width="24" height="24" viewBox="0 0 24 24" fill="currentColors" xmlns="http://www.w3.org/2000/svg">
<path fill-rule="evenodd" clip-rule="evenodd" d="M6 8.10747C6 4.73441 8.68629 2 12 2C15.3137 2 18 4.73441 18 8.10747C18 11.4541 16.085 15.3593 13.0972 16.7558C12.4007 17.0814 11.5993 17.0814 10.9028 16.7558C7.91499 15.3593 6 11.4541 6 8.10747ZM12 10C13.1046 10 14 9.10457 14 8C14 6.89543 13.1046 6 12 6C10.8954 6 10 6.89543 10 8C10 9.10457 10.8954 10 12 10Z" fill="currentColors"/>
<path fill-rule="evenodd" clip-rule="evenodd" d="M3.62731 14.5342C3.88455 14.8589 3.82989 15.3306 3.50523 15.5878C2.93157 16.0424 2.75 16.443 2.75 16.75C2.75 16.993 2.86028 17.288 3.19064 17.6296C3.52438 17.9747 4.04582 18.3252 4.75556 18.6471C6.00981 19.2159 7.74351 19.6466 9.75 19.8343V19.375C9.75 19.0807 9.9221 18.8136 10.1901 18.692C10.4581 18.5704 10.7724 18.6168 10.9939 18.8106L12.4939 20.1231C12.6566 20.2655 12.75 20.4712 12.75 20.6875C12.75 20.9038 12.6566 21.1095 12.4939 21.2519L10.9939 22.5644C10.7724 22.7582 10.4581 22.8046 10.1901 22.683C9.9221 22.5614 9.75 22.2943 9.75 22V21.3404C7.56512 21.1487 5.60927 20.6813 4.13599 20.0131C3.32214 19.644 2.62069 19.1979 2.11244 18.6724C1.60081 18.1434 1.25 17.494 1.25 16.75C1.25 15.7998 1.81667 15.012 2.5737 14.4122C2.89836 14.1549 3.37008 14.2096 3.62731 14.5342ZM20.3727 14.5342C20.6299 14.2096 21.1016 14.1549 21.4263 14.4122C22.1833 15.012 22.75 15.7997 22.75 16.75C22.75 18.1281 21.5819 19.1606 20.2034 19.8514C18.7617 20.5738 16.791 21.0851 14.5756 21.3096C14.1635 21.3514 13.7956 21.0512 13.7538 20.6391C13.7121 20.227 14.0123 19.859 14.4244 19.8173C16.522 19.6047 18.3014 19.1266 19.5314 18.5103C20.8246 17.8623 21.25 17.2066 21.25 16.75C21.25 16.443 21.0684 16.0424 20.4948 15.5878C20.1701 15.3306 20.1155 14.8589 20.3727 14.5342Z" fill="currentColors"/>
</svg>
