<svg width="24" height="24" viewBox="0 0 24 24" fill="currentColors" xmlns="http://www.w3.org/2000/svg">
<path fill-rule="evenodd" clip-rule="evenodd" d="M19.6573 14.6652C20.1118 13.5368 20.3395 12.3294 20.3268 11.1122C20.3014 8.68661 19.325 6.36903 17.6089 4.66325C15.8938 2.95698 13.5776 2 11.1636 2C8.74972 2 6.43352 2.95698 4.71739 4.66325C3.00223 6.36903 2.02494 8.68661 2.0005 11.1122C1.9878 12.3294 2.21551 13.5368 2.66995 14.6652C3.1244 15.7935 3.79775 16.8202 4.64996 17.6854C5.50216 18.5506 6.51659 19.2375 7.63462 19.7064C8.75265 20.1748 9.95179 20.4164 11.1636 20.4164C12.3745 20.4164 13.5746 20.1748 14.6927 19.7064C15.8107 19.2375 16.8251 18.5506 17.6773 17.6854C18.5295 16.8202 19.2019 15.7935 19.6573 14.6652ZM11.8878 8.68857C11.8878 8.28741 11.5634 7.96138 11.1646 7.96138C10.8753 7.96138 10.6261 8.13078 10.5108 8.37678C10.4659 8.47154 10.4404 8.57711 10.4404 8.68857V10.386H8.75265C8.65492 10.3821 8.55817 10.3983 8.46728 10.4331C8.4018 10.4582 8.34023 10.493 8.2855 10.5358L8.22393 10.5888C8.15357 10.6565 8.09786 10.7381 8.05975 10.8279C8.02163 10.9178 8.00209 11.0145 8.00209 11.1122C8.00209 11.1598 8.00697 11.207 8.01577 11.2536C8.02554 11.3027 8.0402 11.3508 8.05975 11.397C8.09786 11.4868 8.15357 11.5684 8.22393 11.6361C8.29332 11.7039 8.37639 11.7569 8.46728 11.7918C8.55817 11.8266 8.65492 11.8423 8.75265 11.8389H10.4414V13.5344C10.4395 13.5923 10.4444 13.6502 10.4561 13.7067C10.4639 13.7455 10.4746 13.7833 10.4893 13.8206C10.502 13.854 10.5167 13.8859 10.5333 13.9169C10.5636 13.9709 10.6007 14.021 10.6437 14.0656C10.7112 14.1364 10.7923 14.1923 10.8822 14.2306C10.9711 14.2689 11.0679 14.2886 11.1646 14.2886C11.2623 14.2886 11.3581 14.2689 11.448 14.2306C11.5379 14.1923 11.6181 14.1364 11.6855 14.0656C11.753 13.9954 11.8057 13.912 11.8409 13.8206C11.8653 13.7558 11.881 13.6876 11.8859 13.6183C11.8878 13.5903 11.8888 13.5624 11.8878 13.5344V11.8389H13.5756C13.7672 11.8389 13.9509 11.7623 14.0867 11.6258C14.2226 11.4898 14.2988 11.3047 14.2988 11.1117C14.2988 10.9192 14.2226 10.7341 14.0867 10.5976C13.9509 10.4616 13.7672 10.385 13.5756 10.385H11.8878V8.68857Z" fill="currentColors"/>
<path d="M18.9332 18.7651C18.9038 18.7867 18.8765 18.8103 18.8511 18.8358C18.8081 18.879 18.7709 18.9272 18.7406 18.9792C18.723 19.0092 18.7074 19.0401 18.6937 19.072C18.68 19.1054 18.6683 19.1403 18.6595 19.1751C18.6527 19.2021 18.6478 19.2296 18.6448 19.2571C18.6409 19.2881 18.639 19.319 18.639 19.3504C18.639 19.4457 18.6576 19.5404 18.6937 19.6288C18.7309 19.7172 18.7836 19.7972 18.8511 19.8645L20.7802 21.8025C20.918 21.9322 21.0998 22.0029 21.2875 21.9999C21.3735 21.9984 21.4575 21.9817 21.5357 21.9513C21.5904 21.9307 21.6422 21.9032 21.6901 21.8698C21.7243 21.8452 21.7575 21.8177 21.7878 21.7868C21.8435 21.7308 21.8895 21.667 21.9237 21.5978C21.9452 21.5541 21.9628 21.5084 21.9755 21.4613C21.9901 21.4038 21.9989 21.3444 21.9999 21.284C22.0028 21.095 21.9325 20.9123 21.8035 20.7748L19.8753 18.8358C19.8078 18.7686 19.7277 18.7146 19.6397 18.6782C19.5528 18.6414 19.458 18.6227 19.3632 18.6227L19.2908 18.6262L19.2175 18.6375C19.1726 18.6468 19.1286 18.6605 19.0856 18.6782C19.0524 18.692 19.0211 18.7082 18.9898 18.7268L18.9332 18.7651Z" fill="currentColors"/>
</svg>
