<svg width="24" height="24" viewBox="0 0 24 24" fill="currentColors" xmlns="http://www.w3.org/2000/svg">
<path fill-rule="evenodd" clip-rule="evenodd" d="M19.6574 14.6653C20.1122 13.537 20.3399 12.3293 20.3273 11.112C20.302 8.68662 19.3255 6.3692 17.6098 4.66309C15.894 2.95699 13.5777 2 11.1639 2C8.75005 2 6.43371 2.95699 4.71798 4.66309C3.00226 6.3692 2.02572 8.68662 2.0005 11.112C1.98784 12.3293 2.21551 13.537 2.67033 14.6653C3.12516 15.7936 3.79811 16.82 4.65027 17.6853C5.50242 18.5506 6.51686 19.2375 7.63491 19.7063C8.75295 20.1751 9.9524 20.4164 11.1639 20.4164C12.3754 20.4164 13.5748 20.1751 14.6929 19.7063C15.8109 19.2375 16.8253 18.5506 17.6775 17.6853C18.5296 16.82 19.2026 15.7936 19.6574 14.6653ZM8.75248 10.385C8.35318 10.385 8.02894 10.7098 8.02894 11.1121C8.02894 11.2075 8.04765 11.3021 8.08402 11.3903C8.12038 11.4785 8.17367 11.5586 8.24086 11.6262C8.30805 11.6937 8.38781 11.7472 8.47559 11.7838C8.56338 11.8203 8.65747 11.8391 8.75248 11.8391H13.5761C13.768 11.8391 13.952 11.7625 14.0877 11.6262C14.2234 11.4898 14.2996 11.3049 14.2996 11.1121C14.2996 10.9192 14.2234 10.7343 14.0877 10.598C13.952 10.4616 13.768 10.385 13.5761 10.385H8.75248Z" fill="currentColors"/>
<path d="M19.0865 18.6781C18.9986 18.7147 18.9188 18.7683 18.8516 18.8359C18.7844 18.9035 18.731 18.9836 18.6946 19.0719C18.6582 19.1602 18.6394 19.2548 18.6394 19.3503C18.6394 19.4458 18.6582 19.5404 18.6946 19.6287C18.731 19.717 18.7844 19.7971 18.8516 19.8647L20.7811 21.8024C20.9181 21.9319 21.0998 22.0027 21.2879 21.9998C21.4759 21.997 21.6555 21.9206 21.7885 21.787C21.9215 21.6534 21.9974 21.4729 22.0003 21.284C22.0032 21.095 21.9327 20.9124 21.8038 20.7747L19.8754 18.8359C19.8082 18.7683 19.7284 18.7147 19.6406 18.6781C19.5527 18.6416 19.4586 18.6227 19.3635 18.6227C19.2684 18.6227 19.1743 18.6416 19.0865 18.6781Z" fill="currentColors"/>
</svg>
