<svg width="24" height="24" viewBox="0 0 24 24" fill="currentColors" xmlns="http://www.w3.org/2000/svg">
<path fill-rule="evenodd" clip-rule="evenodd" d="M6.419 8C6.419 5.172 6.419 3.757 7.236 2.879C8.053 2.001 9.369 2 12 2C14.631 2 15.947 2 16.764 2.879C17.581 3.757 17.581 5.172 17.581 8V16C17.581 18.828 17.581 20.243 16.764 21.121C15.947 21.999 14.631 22 12 22C9.369 22 8.053 22 7.236 21.121C6.419 20.243 6.419 18.828 6.419 16V8ZM5.023 7.901V16.1C5.023 17.082 5.023 17.965 5.069 18.729C5.08567 18.999 5.10867 19.2537 5.138 19.493C5.15133 19.5997 5.16667 19.7063 5.184 19.813C5.22 20.03 5.053 20.233 4.834 20.214C4.404 20.177 4.014 20.096 3.651 19.897C3.07228 19.5744 2.61003 19.0775 2.33 18.477C2.144 18.086 2.07 17.667 2.034 17.204C2 16.756 2 16.205 2 15.531V8.47C2 7.796 2 7.246 2.034 6.798C2.069 6.335 2.144 5.916 2.33 5.526C2.60977 4.92566 3.07166 4.42879 3.65 4.106C4.014 3.906 4.403 3.826 4.834 3.788C5.053 3.768 5.22 3.972 5.184 4.188C5.1665 4.29468 5.15116 4.4017 5.138 4.509C5.10867 4.749 5.08567 5.00367 5.069 5.273C5.023 6.037 5.023 6.919 5.023 7.903M18.977 7.903V16.1C18.977 17.082 18.977 17.965 18.93 18.729C18.9147 18.999 18.892 19.2537 18.862 19.493C18.8488 19.6 18.8335 19.7067 18.816 19.813C18.78 20.03 18.947 20.233 19.166 20.214C19.596 20.177 19.986 20.096 20.349 19.897C20.9281 19.5745 21.3907 19.0776 21.671 18.477C21.856 18.086 21.931 17.667 21.966 17.204C22 16.757 22 16.206 22 15.533V8.468C22 7.794 22 7.243 21.966 6.796C21.931 6.333 21.856 5.914 21.67 5.524C21.3902 4.92366 20.9283 4.42679 20.35 4.104C19.986 3.904 19.597 3.824 19.166 3.786C18.947 3.766 18.78 3.97 18.816 4.186C18.8333 4.29267 18.8487 4.39967 18.862 4.507C18.8913 4.747 18.9143 5.00167 18.931 5.271C18.977 6.035 18.977 6.917 18.977 7.901M14.868 8.411C14.9038 8.39485 14.9405 8.38083 14.978 8.369C15.0316 8.36436 15.0853 8.37713 15.131 8.40541C15.1768 8.4337 15.2122 8.47599 15.232 8.526C15.2383 8.56506 15.2423 8.60446 15.244 8.644C15.25 8.761 15.25 8.92 15.25 9.171C15.2499 9.25736 15.2483 9.34371 15.245 9.43C15.2333 9.48964 15.2002 9.54297 15.152 9.58L15.114 9.603C15.074 9.625 15.019 9.653 14.923 9.7L13.606 10.359C13.382 10.471 13.24 10.542 13.132 10.589C13.0962 10.6051 13.0595 10.6192 13.022 10.631C12.9684 10.6356 12.9147 10.6229 12.869 10.5946C12.8232 10.5663 12.7878 10.524 12.768 10.474C12.7617 10.4353 12.7577 10.3962 12.756 10.357C12.7498 10.1811 12.7478 10.005 12.75 9.829C12.7501 9.74298 12.7517 9.65696 12.755 9.571C12.7665 9.51099 12.7996 9.45728 12.848 9.42L12.886 9.398C12.926 9.376 12.981 9.348 13.077 9.3L14.394 8.642C14.618 8.53 14.76 8.458 14.868 8.411ZM16.645 8.023C16.5107 7.65229 16.2551 7.33781 15.9197 7.13054C15.5842 6.92326 15.1886 6.83533 14.797 6.881C14.599 6.904 14.42 6.971 14.269 7.038C14.12 7.102 13.943 7.191 13.739 7.293L12.406 7.96L12.37 7.978C12.2182 8.04808 12.0733 8.13211 11.937 8.229C11.5954 8.49008 11.3619 8.86776 11.281 9.29C11.2546 9.45528 11.2442 9.62272 11.25 9.79V12.551C10.7162 12.2786 10.1081 12.188 9.5181 12.293C8.92811 12.3981 8.38858 12.6929 7.98157 13.1328C7.57457 13.5726 7.32238 14.1333 7.26337 14.7297C7.20435 15.326 7.34175 15.9253 7.65466 16.4364C7.96756 16.9475 8.43885 17.3424 8.99681 17.561C9.55477 17.7796 10.1689 17.81 10.7457 17.6475C11.3225 17.485 11.8304 17.1385 12.1922 16.6608C12.554 16.1831 12.7499 15.6003 12.75 15.001V12.115C12.898 12.137 13.049 12.139 13.203 12.121C13.401 12.098 13.58 12.031 13.731 11.965C13.88 11.9 14.057 11.811 14.261 11.71L15.594 11.043L15.63 11.025C15.775 10.952 15.929 10.875 16.063 10.773C16.4044 10.5122 16.6379 10.1349 16.719 9.713C16.75 9.546 16.75 9.375 16.75 9.213V9.153C16.75 8.927 16.75 8.728 16.741 8.566C16.7356 8.38129 16.7032 8.19837 16.645 8.023ZM10 13.75C10.3315 13.75 10.6495 13.8817 10.8839 14.1161C11.1183 14.3505 11.25 14.6685 11.25 15C11.25 15.3315 11.1183 15.6495 10.8839 15.8839C10.6495 16.1183 10.3315 16.25 10 16.25C9.66848 16.25 9.35054 16.1183 9.11612 15.8839C8.8817 15.6495 8.75 15.3315 8.75 15C8.75 14.6685 8.8817 14.3505 9.11612 14.1161C9.35054 13.8817 9.66848 13.75 10 13.75Z" fill="currentColors"/>
</svg>
