<svg width="24" height="24" viewBox="0 0 24 24" fill="currentColors" xmlns="http://www.w3.org/2000/svg">
<path d="M6.4443 3.68538C6.97115 3.33335 7.52766 3.03391 8.10577 2.78948C9.50868 2.19635 10.2101 1.89978 11.1051 2.49304C12 3.08631 12 4.05756 12 6.00008V8.00008C12 9.88569 12 10.8285 12.5858 11.4143C13.1716 12.0001 14.1144 12.0001 16 12.0001H18C19.9425 12.0001 20.9138 12.0001 21.507 12.895C22.1003 13.7899 21.8037 14.4914 21.2106 15.8943C20.9662 16.4724 20.6667 17.0289 20.3147 17.5558C19.2159 19.2003 17.6541 20.482 15.8268 21.2389C13.9996 21.9957 11.9889 22.1938 10.0491 21.8079C8.10929 21.4221 6.32746 20.4697 4.92894 19.0711C3.53041 17.6726 2.578 15.8908 2.19215 13.951C1.8063 12.0112 2.00433 10.0005 2.76121 8.17324C3.51809 6.34598 4.79981 4.7842 6.4443 3.68538Z" fill="currentColors"/>
<path fill-rule="evenodd" clip-rule="evenodd" d="M13.7737 2.12818C13.8769 1.72704 14.2858 1.48555 14.6869 1.58879C18.4656 2.56135 21.4387 5.53449 22.4113 9.31314C22.5145 9.71428 22.273 10.1232 21.8719 10.2264C21.4708 10.3297 21.0619 10.0882 20.9586 9.68702C20.1223 6.43763 17.5624 3.87779 14.3131 3.04145C13.9119 2.9382 13.6704 2.52932 13.7737 2.12818Z" fill="currentColors"/>
</svg>
