<svg width="24" height="24" viewBox="0 0 24 24" fill="currentColors" xmlns="http://www.w3.org/2000/svg">
<path d="M9.68202 12.682C7.92466 14.4394 5.07542 14.4394 3.31806 12.682C2.63085 11.9948 2.21236 11.1406 2.06262 10.25H10.9375C10.7877 11.1406 10.3692 11.9948 9.68202 12.682Z" fill="currentColors"/>
<path d="M10.9375 8.75002H2.06262C2.21236 7.85945 2.63085 7.00525 3.31806 6.31804C5.07542 4.56068 7.92466 4.56068 9.68202 6.31804C10.3692 7.00525 10.7877 7.85945 10.9375 8.75002Z" fill="currentColors"/>
<path d="M14.7575 7.12156C15.929 8.29314 17.8285 8.29314 19.0001 7.12156C19.5859 6.53578 19.8788 5.76801 19.8788 5.00024C19.8788 4.23248 19.5859 3.46471 19.0001 2.87892C17.8285 1.70735 15.929 1.70735 14.7575 2.87892C14.1717 3.46471 13.8788 4.23248 13.8788 5.00024C13.8788 5.76801 14.1717 6.53578 14.7575 7.12156Z" fill="currentColors"/>
<path d="M20.9052 12.0948C22.365 13.5546 22.365 15.9213 20.9052 17.3811L19.8779 18.4084L19.8785 18.4054L19.1466 18.2644C19.1424 18.2635 19.1321 18.2611 19.1177 18.2575C19.089 18.2503 19.0406 18.2371 18.9748 18.2162C18.8433 18.1742 18.6427 18.1007 18.3924 17.9801C17.8925 17.7392 17.1913 17.3087 16.4415 16.5589C15.6917 15.8091 15.2611 15.1078 15.0201 14.6079C14.8995 14.3575 14.826 14.1569 14.784 14.0253C14.763 13.9595 14.7499 13.9111 14.7426 13.8824C14.739 13.868 14.7368 13.8586 14.7359 13.8544L14.5946 13.1216L14.5917 13.1222L15.619 12.0948C17.0788 10.6351 19.4455 10.6351 20.9052 12.0948Z" fill="currentColors"/>
<path d="M13.3262 14.3876C13.3348 14.4167 13.3444 14.4481 13.3551 14.4817C13.4168 14.6747 13.5155 14.9409 13.6689 15.2591C13.976 15.8964 14.501 16.7397 15.3808 17.6196C16.2607 18.4994 17.1039 19.0243 17.7412 19.3314C18.0594 19.4847 18.3255 19.5834 18.5185 19.6451C18.552 19.6558 18.5834 19.6654 18.6124 19.6739L17.3811 20.9052C15.9213 22.365 13.5546 22.365 12.0949 20.9052C10.6351 19.4455 10.6351 17.0787 12.0949 15.619L13.3262 14.3876Z" fill="currentColors"/>
</svg>
