<svg width="24" height="24" viewBox="0 0 24 24" fill="currentColors" xmlns="http://www.w3.org/2000/svg">
<path d="M17.8457 15.5714C17.9469 15.0632 18 14.5378 18 13.9999C18 13.2366 17.8931 12.4983 17.6935 11.799L16.9557 11.7537L16.9546 11.7537L16.9482 11.7533C16.9406 11.753 16.9276 11.7525 16.9093 11.7519C16.8727 11.7508 16.8151 11.7496 16.7384 11.7499C16.5849 11.7505 16.3552 11.7568 16.0643 11.7805C15.4818 11.828 14.6584 11.945 13.7114 12.2233C13.5171 12.2804 13.2923 12.3841 12.9861 12.5391C12.9253 12.5699 12.8615 12.6026 12.7949 12.6367C12.5441 12.7653 12.2537 12.9142 11.9413 13.0541C11.1281 13.4182 10.1104 13.7499 8.78446 13.7499C6.89102 13.7499 5.33071 13.2104 4.24731 12.6748C3.70481 12.4065 3.27789 12.1373 2.98336 11.9324C2.83593 11.8299 2.72115 11.7431 2.64113 11.6801C2.6011 11.6486 2.56972 11.623 2.54724 11.6043L2.52021 11.5816L2.51175 11.5743L2.50879 11.5718L2.50764 11.5708C2.50764 11.5708 2.50669 11.57 2.99213 11.014L2.50669 11.57L2.40466 11.4809C2.14212 12.2729 2 13.1198 2 13.9999C2 14.4305 2.03403 14.8532 2.09954 15.2654L2.46925 15.2503L2.5 15.9996C2.46925 15.2503 2.46925 15.2503 2.46925 15.2503L2.47058 15.2502L2.47268 15.2501L2.47917 15.2499L2.50116 15.2492C2.51975 15.2486 2.54614 15.2479 2.57983 15.2472C2.64718 15.2459 2.7438 15.2448 2.86564 15.2454C3.10913 15.2466 3.45444 15.2547 3.86909 15.2819C4.69483 15.3362 5.81265 15.4676 6.95524 15.7803C7.31143 15.8778 7.66377 16.0366 7.99263 16.1917C8.06997 16.2282 8.14661 16.2648 8.22325 16.3013C8.48817 16.4278 8.75347 16.5544 9.04839 16.6774C9.78723 16.9857 10.6661 17.2499 11.8193 17.2499C13.9606 17.2499 16.1505 16.3854 17.139 15.8425L17.7963 15.4815L17.8457 15.5714Z" fill="currentColors"/>
<path d="M17.2024 17.4863C15.9289 18.0706 13.8857 18.7499 11.8193 18.7499C10.4152 18.7499 9.33684 18.4231 8.47083 18.0618C8.13763 17.9228 7.82838 17.7751 7.55924 17.6466C7.48745 17.6123 7.41847 17.5794 7.35269 17.5483C7.02441 17.3935 6.77677 17.2867 6.55922 17.2271C5.54524 16.9496 4.53445 16.8289 3.77071 16.7787C3.39063 16.7537 3.07598 16.7465 2.85821 16.7454C2.74942 16.7448 2.66507 16.7458 2.60912 16.7469C2.58116 16.7475 2.56031 16.7481 2.54708 16.7485L2.53301 16.7489L2.53075 16.749L2.48555 16.7509C3.60723 19.8139 6.54833 21.9999 10 21.9999C13.1685 21.9999 15.9068 20.1579 17.2024 17.4863Z" fill="currentColors"/>
<path d="M3.04319 10.047L3.49202 10.439L3.49311 10.4399L3.50578 10.4505C3.51847 10.4611 3.53959 10.4784 3.56886 10.5014C3.62744 10.5475 3.71849 10.6166 3.83991 10.701C4.08309 10.8702 4.44604 11.0997 4.91215 11.3301C5.84599 11.7919 7.1779 12.2499 8.78446 12.2499C9.84071 12.2499 10.6463 11.9905 11.3282 11.6851C11.6009 11.5629 11.8456 11.4376 12.0921 11.3113C12.1638 11.2746 12.2357 11.2377 12.3084 11.2009C12.6144 11.046 12.9485 10.8841 13.2886 10.7841C14.3505 10.4721 15.2771 10.3398 15.9424 10.2855C16.2754 10.2583 16.544 10.2506 16.7328 10.2499C16.8273 10.2496 16.9019 10.251 16.9547 10.2526C16.9811 10.2534 17.0021 10.2542 17.0174 10.2549L17.036 10.2559L17.0421 10.2562L17.0443 10.2563L17.0456 10.2564C17.0456 10.2564 17.046 10.2564 17.0001 11.0036L17.0456 10.2564L17.0728 10.2581C15.73 7.72521 13.0665 5.99989 10 5.99989C7.01945 5.99989 4.41959 7.62986 3.04319 10.047Z" fill="currentColors"/>
<path fill-rule="evenodd" clip-rule="evenodd" d="M20.5301 4.04469C20.4935 3.95058 20.4492 3.85806 20.3972 3.76791C20.3451 3.67776 20.2871 3.59319 20.2239 3.51442C20.5503 3.42367 20.7725 3.41803 20.8302 3.51791C20.8879 3.6178 20.7719 3.80742 20.5301 4.04469ZM17.1063 6.0214C16.78 6.11215 16.5577 6.1178 16.5001 6.01791C16.4424 5.91803 16.5584 5.72841 16.8002 5.49114C16.8368 5.58524 16.881 5.67776 16.9331 5.76791C16.9851 5.85806 17.0431 5.94263 17.1063 6.0214ZM17.1063 6.0214C17.5613 5.89488 18.2188 5.60293 18.9151 5.20092C19.6114 4.79892 20.193 4.37549 20.5301 4.04469C20.8821 4.94909 20.5316 5.99973 19.6651 6.49996C18.7987 7.0002 17.7136 6.77846 17.1063 6.0214ZM16.8002 5.49114C16.4482 4.58673 16.7987 3.5361 17.6651 3.03586C18.5316 2.53563 19.6167 2.75737 20.2239 3.51442C19.7689 3.64095 19.1114 3.93289 18.4151 4.3349C17.7188 4.73691 17.1373 5.16034 16.8002 5.49114Z" fill="currentColors"/>
</svg>
