<svg width="24" height="24" viewBox="0 0 24 24" fill="currentColors" xmlns="http://www.w3.org/2000/svg">
<path fill-rule="evenodd" clip-rule="evenodd" d="M10.4348 0.306278C10.7164 0.421694 10.9004 0.695888 10.9004 1.00027V1.97798C11.2467 1.97701 11.6074 1.97701 11.9829 1.97701L12.0577 1.97701C14.1301 1.97699 15.7631 1.97698 17.0391 2.15115C18.3498 2.33004 19.3952 2.70513 20.2163 3.5387C21.0359 4.37071 21.4033 5.42732 21.5788 6.75245C21.75 8.04566 21.75 9.70148 21.75 11.8073V11.9198C21.75 14.0256 21.75 15.6815 21.5788 16.9747C21.4033 18.2998 21.0359 19.3564 20.2163 20.1884C19.3952 21.022 18.3498 21.3971 17.0391 21.576C15.7631 21.7501 14.1301 21.7501 12.0577 21.7501H11.9423C9.86991 21.7501 8.23694 21.7501 6.96085 21.576C5.65019 21.3971 4.60483 21.022 3.78371 20.1884C2.96414 19.3564 2.59674 18.2998 2.42124 16.9747C2.24998 15.6815 2.24999 14.0256 2.25 11.9198V11.8073C2.24999 9.70149 2.24998 8.04566 2.42124 6.75245C2.59674 5.42732 2.96414 4.37071 3.78371 3.5387C4.07439 3.24361 4.54925 3.24004 4.84434 3.53072C5.13943 3.8214 5.14301 4.29626 4.85233 4.59135C4.35388 5.09736 4.06227 5.78651 3.90826 6.94939C3.75155 8.1327 3.75 9.68916 3.75 11.8636C3.75 14.038 3.75155 15.5944 3.90826 16.7777C4.06227 17.9406 4.35388 18.6298 4.85233 19.1358C5.34923 19.6402 6.02354 19.9341 7.1637 20.0897C8.32662 20.2485 9.85717 20.2501 12 20.2501C14.1428 20.2501 15.6734 20.2485 16.8363 20.0897C17.9765 19.9341 18.6508 19.6402 19.1477 19.1358C19.6461 18.6298 19.9377 17.9406 20.0917 16.7777C20.2485 15.5944 20.25 14.038 20.25 11.8636C20.25 9.68916 20.2485 8.1327 20.0917 6.94939C19.9377 5.78651 19.6461 5.09736 19.1477 4.59135C18.6508 4.0869 17.9765 3.79299 16.8363 3.63737C15.6734 3.47865 14.1428 3.47701 12 3.47701C11.6146 3.47701 11.2486 3.47702 10.9004 3.47801V4.55432C10.9004 4.85869 10.7165 5.13288 10.4348 5.2483C10.1532 5.36372 9.8297 5.29748 9.6161 5.08064L7.86569 3.30367C7.57811 3.01173 7.5781 2.543 7.86567 2.25104L9.61608 0.473962C9.82968 0.257113 10.1532 0.190861 10.4348 0.306278Z" fill="currentColors"/>
<path d="M16.0303 10.0304C16.3232 9.73755 16.3232 9.26267 16.0303 8.96978C15.7374 8.67689 15.2626 8.67689 14.9697 8.96978L10.5 13.4394L9.03033 11.9698C8.73744 11.6769 8.26256 11.6769 7.96967 11.9698C7.67678 12.2627 7.67678 12.7375 7.96967 13.0304L9.96967 15.0304C10.2626 15.3233 10.7374 15.3233 11.0303 15.0304L16.0303 10.0304Z" fill="currentColors"/>
</svg>
