<svg width="24" height="24" viewBox="0 0 24 24" fill="currentColors" xmlns="http://www.w3.org/2000/svg">
<path fill-rule="evenodd" clip-rule="evenodd" d="M21.9999 12.0002C21.9999 6.4774 17.5227 2.00024 11.9999 2.00024C6.47703 2.00024 1.99988 6.4774 1.99988 12.0002C1.99988 17.5231 6.47703 22.0002 11.9999 22.0002C17.5227 22.0002 21.9999 17.5231 21.9999 12.0002ZM8.46955 11.5306C8.17665 11.2377 8.17665 10.7628 8.46955 10.4699L11.4695 7.46991C11.7624 7.17702 12.2373 7.17702 12.5302 7.46991L15.5302 10.4699C15.8231 10.7628 15.8231 11.2377 15.5302 11.5306C15.2373 11.8235 14.7624 11.8235 14.4695 11.5306L12.7499 9.8109V16.0002C12.7499 16.4145 12.4141 16.7502 11.9999 16.7502C11.5857 16.7502 11.2499 16.4145 11.2499 16.0002V9.8109L9.53021 11.5306C9.23731 11.8235 8.76244 11.8235 8.46955 11.5306Z" fill="currentColors"/>
</svg>
