<svg width="24" height="24" viewBox="0 0 24 24" fill="currentColors" xmlns="http://www.w3.org/2000/svg">
<path d="M8 5C8 6.65685 6.65685 8 5 8C3.34315 8 2 6.65685 2 5C2 3.34315 3.34315 2 5 2C6.65685 2 8 3.34315 8 5Z" fill="currentColors"/>
<path d="M22 19C22 20.6569 20.6569 22 19 22C17.3431 22 16 20.6569 16 19C16 17.3431 17.3431 16 19 16C20.6569 16 22 17.3431 22 19Z" fill="currentColors"/>
<path fill-rule="evenodd" clip-rule="evenodd" d="M10.25 5C10.25 4.58579 10.5858 4.25 11 4.25H16.1319C18.8831 4.25 19.9294 7.843 17.6083 9.32007L7.19703 15.9454C6.14197 16.6168 6.61757 18.25 7.86812 18.25H11.1893L10.9697 18.0303C10.6768 17.7374 10.6768 17.2626 10.9697 16.9697C11.2626 16.6768 11.7374 16.6768 12.0303 16.9697L13.5303 18.4697C13.8232 18.7626 13.8232 19.2374 13.5303 19.5303L12.0303 21.0303C11.7374 21.3232 11.2626 21.3232 10.9697 21.0303C10.6768 20.7374 10.6768 20.2626 10.9697 19.9697L11.1893 19.75H7.86812C5.11688 19.75 4.07062 16.157 6.39172 14.6799L16.803 8.05458C17.858 7.38318 17.3824 5.75 16.1319 5.75H11C10.5858 5.75 10.25 5.41421 10.25 5Z" fill="currentColors"/>
</svg>
