<svg width="24" height="24" viewBox="0 0 24 24" fill="currentColors" xmlns="http://www.w3.org/2000/svg">
<path d="M16.9456 2.84731C18.3542 2.14979 19.0585 1.80104 19.5344 2.11769C20.0104 2.43435 19.9427 3.20671 19.8074 4.75143L19.7724 5.15106C19.7339 5.59003 19.7147 5.80951 19.7834 6.00845C19.852 6.2074 20.0008 6.36329 20.2984 6.67507L20.5693 6.95892C21.6166 8.05609 22.1402 8.60468 21.9676 9.16677C21.795 9.72887 21.0405 9.93221 19.5315 10.3389L19.1411 10.4441C18.7123 10.5597 18.4979 10.6175 18.3269 10.7517C18.1559 10.8859 18.0478 11.0814 17.8314 11.4723L17.6344 11.8281C16.873 13.2038 16.4923 13.8916 15.9098 13.9223C15.3272 13.953 14.9285 13.3063 14.1312 12.013L13.925 11.6784C13.6984 11.3108 13.5851 11.1271 13.4108 11.0111C13.2364 10.8951 13.0208 10.86 12.5895 10.7898L12.1968 10.7259C10.679 10.4789 9.92015 10.3554 9.73268 9.81228C9.54522 9.26918 10.0533 8.66616 11.0696 7.46012L11.3325 7.14811C11.6213 6.80539 11.7657 6.63403 11.8289 6.42812C11.8921 6.22222 11.867 6.00508 11.8168 5.57079L11.7711 5.17542C11.5945 3.64716 11.5061 2.88303 11.9729 2.51664C12.4396 2.15025 13.1523 2.42425 14.5776 2.97224L14.9464 3.11402C15.3514 3.26974 15.5539 3.3476 15.7674 3.33634C15.9808 3.32508 16.1809 3.22598 16.5812 3.02776L16.9456 2.84731Z" fill="currentColors"/>
<path d="M9.04452 11.3199C5.99048 13.2693 3.27111 16.7963 2.0908 20.0316C1.70785 21.0814 2.59069 22.0002 3.71668 22.0002H4.75C4.75007 21.6494 4.83224 21.2135 4.95372 20.756C5.07876 20.2851 5.25886 19.7425 5.48334 19.1612C5.93221 17.9988 6.57058 16.6501 7.33621 15.3648C8.09909 14.0841 9.0062 12.8362 10.0012 11.8988C10.0258 11.8756 10.0506 11.8525 10.0754 11.8296C10.052 11.8225 10.0289 11.8153 10.0062 11.808C9.72191 11.7165 9.36664 11.5709 9.04452 11.3199Z" fill="currentColors"/>
<path d="M12.0202 12.2169C11.7015 12.4118 11.3705 12.6696 11.0298 12.9905C10.1729 13.7979 9.34809 14.9184 8.62489 16.1324C7.90444 17.3419 7.30253 18.6141 6.88264 19.7015C6.67275 20.2451 6.51136 20.7347 6.40349 21.1409C6.29223 21.5599 6.25008 21.846 6.25 22.0002H9.08304C9.08314 20.8762 9.47243 18.7945 10.1769 16.7084C10.6939 15.1777 11.4097 13.5551 12.3322 12.2677L12.0202 12.2169Z" fill="currentColors"/>
<path d="M13.2982 13.513C12.6225 14.5566 12.0472 15.8582 11.5981 17.1884C10.9202 19.1956 10.5832 21.1037 10.583 22.0002H11.8718C12.9978 22.0002 13.9043 21.0938 13.9793 19.98C14.1081 18.0658 14.4036 16.3406 14.7411 15.1138C14.407 14.9176 14.1488 14.6597 13.9589 14.4368C13.7399 14.1797 13.5196 13.8586 13.2982 13.513Z" fill="currentColors"/>
</svg>
