<svg width="24" height="24" viewBox="0 0 24 24" fill="currentColors" xmlns="http://www.w3.org/2000/svg">
<path d="M10.0801 7.89707C11.1568 5.96566 11.6951 4.99995 12.5 4.99995C13.3048 4.99995 13.8431 5.96566 14.9198 7.89707L15.1983 8.39675C15.5043 8.9456 15.6572 9.22002 15.8958 9.40109C16.1343 9.58215 16.4313 9.64937 17.0254 9.78379L17.5663 9.90618C19.6571 10.3792 20.7024 10.6157 20.9511 11.4155C21.1999 12.2153 20.4872 13.0487 19.0619 14.7154L18.6931 15.1466C18.2881 15.6202 18.0856 15.857 17.9945 16.15C17.9034 16.443 17.934 16.7589 17.9952 17.3909L18.051 17.9662C18.2665 20.19 18.3742 21.3018 17.7231 21.7961C17.072 22.2904 16.0932 21.8398 14.1356 20.9384L13.6292 20.7053C13.0729 20.4491 12.7948 20.3211 12.5 20.3211C12.2051 20.3211 11.927 20.4491 11.3707 20.7053L10.8643 20.9384C8.90673 21.8398 7.92795 22.2904 7.27683 21.7961C6.6257 21.3018 6.73345 20.19 6.94894 17.9662L7.00469 17.3909C7.06592 16.7589 7.09654 16.443 7.00544 16.15C6.91433 15.857 6.71181 15.6202 6.30678 15.1466L5.93803 14.7154C4.51271 13.0487 3.80005 12.2153 4.04876 11.4155C4.29747 10.6157 5.34283 10.3792 7.43356 9.90618L7.97446 9.78379C8.56858 9.64937 8.86563 9.58215 9.10415 9.40109C9.34267 9.22002 9.49565 8.9456 9.8016 8.39675L10.0801 7.89707Z" fill="currentColors"/>
<path d="M4.86728 2.50033C4.89727 2.39455 5.08503 2.39392 5.11574 2.4995C5.25594 2.98161 5.51591 3.69422 5.90904 4.0847C6.30216 4.47518 7.01652 4.73033 7.49957 4.86728C7.60535 4.89727 7.60599 5.08503 7.50041 5.11574C7.0183 5.25594 6.30568 5.51591 5.9152 5.90904C5.52472 6.30216 5.26957 7.01652 5.13263 7.49957C5.10264 7.60535 4.91487 7.60599 4.88417 7.50041C4.74396 7.0183 4.48399 6.30568 4.09087 5.9152C3.69774 5.52472 2.98338 5.26957 2.50033 5.13263C2.39455 5.10264 2.39392 4.91487 2.4995 4.88417C2.98161 4.74396 3.69422 4.48399 4.0847 4.09087C4.47518 3.69774 4.73033 2.98338 4.86728 2.50033Z" fill="currentColors"/>
<path fill-rule="evenodd" clip-rule="evenodd" d="M19 3.24995C19.4142 3.24995 19.75 3.58574 19.75 3.99995V4.24995H20C20.4142 4.24995 20.75 4.58574 20.75 4.99995C20.75 5.41417 20.4142 5.74995 20 5.74995H19.75V5.99995C19.75 6.41417 19.4142 6.74995 19 6.74995C18.5857 6.74995 18.25 6.41417 18.25 5.99995V5.74995H18C17.5857 5.74995 17.25 5.41417 17.25 4.99995C17.25 4.58574 17.5857 4.24995 18 4.24995H18.25V3.99995C18.25 3.58574 18.5857 3.24995 19 3.24995Z" fill="currentColors"/>
</svg>
