<svg width="24" height="24" viewBox="0 0 24 24" fill="currentColors" xmlns="http://www.w3.org/2000/svg">
<path d="M11.5802 4.77604C12.275 3.00516 12.6223 2.11971 13.3488 2.01056C14.0752 1.90141 14.6997 2.64083 15.9485 4.11967L16.2716 4.50226C16.6265 4.9225 16.804 5.13263 17.0452 5.25261C17.2865 5.37259 17.5643 5.38884 18.1198 5.42135L18.6256 5.45095C20.5806 5.56537 21.558 5.62258 21.8973 6.26168C22.2365 6.90079 21.7128 7.69853 20.6653 9.29403L20.3944 9.7068C20.0967 10.1602 19.9479 10.3869 19.9077 10.6457C19.8675 10.9045 19.9405 11.1662 20.0864 11.6895L20.2192 12.166C20.7327 14.0076 20.9895 14.9284 20.4727 15.4325C19.9559 15.9367 19.0078 15.6903 17.1116 15.1975L16.621 15.07C16.0822 14.93 15.8128 14.86 15.5466 14.8999C15.2805 14.9399 15.0478 15.0854 14.5825 15.3763L14.1588 15.6412C12.5212 16.6649 11.7024 17.1768 11.0438 16.8493C10.3852 16.5217 10.3229 15.5717 10.1984 13.6717L10.1662 13.1801C10.1308 12.6402 10.1131 12.3702 9.98888 12.1361C9.86462 11.902 9.64785 11.7302 9.21432 11.3867L8.81963 11.0739C7.29402 9.86506 6.53122 9.26062 6.64098 8.55405C6.75073 7.84748 7.66036 7.50672 9.47961 6.8252L9.95027 6.64888C10.4673 6.45522 10.7257 6.35839 10.9151 6.17371C11.1044 5.98903 11.2031 5.73742 11.4005 5.23419L11.5802 4.77604Z" fill="currentColors"/>
<path d="M5.31003 9.5924C2.87292 11.9209 1.27501 15.8054 2.33125 21.9998C3.27403 19.3962 5.85726 17.2403 8.91219 15.9524C8.80559 15.3598 8.7583 14.636 8.70844 13.8729L8.66945 13.2778C8.66038 13.1394 8.65346 13.0343 8.64607 12.944C8.643 12.9064 8.64012 12.875 8.63743 12.8485C8.61421 12.8286 8.58591 12.8049 8.55117 12.7765C8.47874 12.7173 8.39377 12.6499 8.28278 12.562L7.80759 12.1854C7.11448 11.6364 6.46884 11.125 6.02493 10.6535C5.77182 10.3846 5.48876 10.03 5.31003 9.5924Z" fill="currentColors"/>
<path d="M10.3466 15.4227C10.3415 15.3853 10.3365 15.3471 10.3316 15.3082L10.3877 15.4097C10.374 15.414 10.3603 15.4184 10.3466 15.4227Z" fill="currentColors"/>
</svg>
