<svg width="24" height="24" viewBox="0 0 24 24" fill="currentColors" xmlns="http://www.w3.org/2000/svg">
<path d="M7.93417 2L7.93412 3H7.93412L7.93417 2ZM8 2V3H8.00001L8 2ZM16.0658 2V3H16.0659L16.0658 2ZM18.3278 2.08215L18.461 1.09106L18.3278 2.08215ZM20.1213 2.87868L20.8284 2.17158L20.8284 2.17158L20.1213 2.87868ZM20.9179 4.67221L21.9089 4.53897V4.53896L20.9179 4.67221ZM21 6.9342L20 6.93414V6.9342L21 6.9342ZM21 7.95L20 7.95V7.95H21ZM18.9357 4.93871L17.9446 5.07196V5.07196L18.9357 4.93871ZM18.7071 4.2929L19.4142 3.58579V3.58579L18.7071 4.2929ZM18.0613 4.06431L18.1945 3.07323H18.1945L18.0613 4.06431ZM13 4V3C12.4477 3 12 3.44772 12 4H13ZM11 4H12C12 3.44772 11.5523 3 11 3V4ZM5.93871 4.06431L5.80546 3.07323L5.93871 4.06431ZM5.06431 4.93871L6.05539 5.07196V5.07196L5.06431 4.93871ZM3 6.93418L4 6.93412V6.93412L3 6.93418ZM3.08215 4.67221L2.09106 4.53897L3.08215 4.67221ZM3.87868 2.87868L4.58579 3.58579V3.58579L3.87868 2.87868ZM5.67221 2.08215L5.53897 1.09106H5.53897L5.67221 2.08215ZM7 20C6.44772 20 6 20.4477 6 21C6 21.5523 6.44772 22 7 22V20ZM17 22C17.5523 22 18 21.5523 18 21C18 20.4477 17.5523 20 17 20V22ZM7.93412 3C7.95598 3 7.97796 3 8 3V1C7.97802 1 7.9561 1 7.93423 1L7.93412 3ZM8.00001 3L16.0658 3V1L8 1L8.00001 3ZM16.0659 3C16.9765 2.99995 17.664 3.0019 18.1945 3.07323L18.461 1.09106C17.7682 0.997917 16.9282 0.999954 16.0658 1L16.0659 3ZM18.1945 3.07323C18.7398 3.14654 19.1216 3.29321 19.4142 3.58579L20.8284 2.17158C20.1017 1.44484 19.2268 1.19401 18.461 1.09106L18.1945 3.07323ZM19.4142 3.58579C19.7068 3.87838 19.8535 4.26018 19.9268 4.80546L21.9089 4.53896C21.806 3.77322 21.5552 2.89832 20.8284 2.17158L19.4142 3.58579ZM19.9268 4.80546C19.9981 5.33598 20.0001 6.02353 20 6.93414L22 6.93426C22.0001 6.07187 22.0021 5.23178 21.9089 4.53897L19.9268 4.80546ZM20 6.9342L20 7.95L22 7.95001L22 6.9342L20 6.9342ZM20 7.95V9.95C21.1046 9.95 22 9.05457 22 7.95H20ZM20 7.95H18C18 9.05457 18.8954 9.95 20 9.95V7.95ZM20 7.95V7.00001H18V7.95H20ZM20 7.00001C20 6.05835 20 5.35035 19.9268 4.80546L17.9446 5.07196C17.9957 5.45208 18 5.99951 18 7.00001H20ZM19.9268 4.80546C19.8533 4.2588 19.7062 3.87773 19.4142 3.58579L18 5C17.993 4.99303 17.9829 4.98237 17.9713 4.96865C17.9597 4.95487 17.9486 4.94024 17.9384 4.92514C17.9174 4.89416 17.907 4.87114 17.9038 4.86329C17.9011 4.85688 17.906 4.8671 17.9144 4.90175C17.9228 4.93646 17.9338 4.99114 17.9446 5.07196L19.9268 4.80546ZM19.4142 3.58579C19.1223 3.29386 18.7412 3.14672 18.1945 3.07323L17.9281 5.05539C18.0089 5.06626 18.0635 5.07718 18.0983 5.08562C18.1329 5.09404 18.1431 5.0989 18.1367 5.09626C18.1289 5.09302 18.1059 5.08257 18.0749 5.06162C18.0598 5.0514 18.0451 5.04029 18.0314 5.02869C18.0176 5.01714 18.007 5.00698 18 5L19.4142 3.58579ZM18.1945 3.07323C17.6497 2.99997 16.9417 3 16 3V5C17.0005 5 17.5479 5.00429 17.9281 5.05539L18.1945 3.07323ZM16 3H13V5H16V3ZM12 4V21H14V4H12ZM12 21V23C13.1046 23 14 22.1046 14 21H12ZM12 21H10C10 22.1046 10.8954 23 12 23V21ZM12 21V4H10V21H12ZM11 3H8V5H11V3ZM8 3C7.05835 3 6.35035 2.99997 5.80546 3.07323L6.07196 5.05539C6.45208 5.00429 6.9995 5 8 5V3ZM5.80546 3.07323C5.2588 3.14672 4.87772 3.29386 4.58579 3.58579L6.00001 5.00001C5.99303 5.00698 5.98237 5.01714 5.96865 5.02869C5.95487 5.04029 5.94024 5.0514 5.92514 5.06162C5.89416 5.08257 5.87114 5.09301 5.86329 5.09626C5.85688 5.0989 5.86711 5.09404 5.90176 5.08562C5.93646 5.07718 5.99114 5.06626 6.07196 5.05539L5.80546 3.07323ZM4.58579 3.58579C4.29386 3.87773 4.14672 4.2588 4.07323 4.80546L6.05539 5.07196C6.06626 4.99114 6.07718 4.93646 6.08562 4.90176C6.09404 4.86711 6.0989 4.85688 6.09626 4.86329C6.09301 4.87114 6.08257 4.89416 6.06162 4.92514C6.0514 4.94024 6.04029 4.95487 6.02869 4.96865C6.01714 4.98237 6.00698 4.99303 6.00001 5.00001L4.58579 3.58579ZM4.07323 4.80546C3.99997 5.35035 4 6.05835 4 7.00001H6C6 5.99951 6.00429 5.45208 6.05539 5.07196L4.07323 4.80546ZM4 7.00001V7.95H6V7.00001H4ZM4 7.95V9.95C5.10457 9.95 6 9.05457 6 7.95H4ZM4 7.95H2C2 9.05457 2.89544 9.95 4 9.95V7.95ZM4 7.95V7.00001H2V7.95H4ZM4 7.00001C4 6.97796 4 6.95599 4 6.93412L2 6.93423C2 6.9561 2 6.97802 2 7.00001H4ZM4 6.93412C3.99995 6.02352 4.0019 5.33597 4.07323 4.80546L2.09106 4.53897C1.99792 5.23177 1.99995 6.07186 2 6.93423L4 6.93412ZM4.07323 4.80546C4.14654 4.26018 4.29321 3.87838 4.58579 3.58579L3.17158 2.17158C2.44484 2.89832 2.19401 3.77322 2.09106 4.53897L4.07323 4.80546ZM4.58579 3.58579C4.87838 3.29321 5.26018 3.14654 5.80546 3.07323L5.53897 1.09106C4.77322 1.19401 3.89832 1.44484 3.17158 2.17158L4.58579 3.58579ZM5.80546 3.07323C6.33597 3.0019 7.02352 2.99995 7.93412 3L7.93423 1C7.07186 0.999954 6.23177 0.997917 5.53897 1.09106L5.80546 3.07323ZM7 22H17V20H7V22Z" fill="currentColors"/>
</svg>
