<svg width="24" height="24" viewBox="0 0 24 24" fill="currentColors" xmlns="http://www.w3.org/2000/svg">
<path fill-rule="evenodd" clip-rule="evenodd" d="M20.5 13.9999V6.13735C20.5 5.74941 20.5 5.55544 20.4822 5.42278C20.359 4.50683 19.8459 3.94497 18.9449 3.7394C18.8144 3.70962 18.5428 3.68494 18 3.63559C16.9981 3.5445 15.8169 3.19579 14.7687 2.81443C13.2754 2.27115 12.5288 1.99951 12 1.99951C11.4712 1.99951 10.7246 2.27115 9.23133 2.81443C8.18314 3.19579 7.00193 3.5445 6 3.63559C5.45709 3.68494 5.18562 3.70962 5.05512 3.7394C4.15409 3.94497 3.64099 4.50683 3.51784 5.42278C3.5 5.55544 3.5 5.74941 3.5 6.13735V13.9999H20.5ZM11.0303 6.46955C11.3232 6.76244 11.3232 7.23731 11.0303 7.53021L10.0303 8.53021C9.73744 8.8231 9.26256 8.8231 8.96967 8.53021C8.67678 8.23731 8.67678 7.76244 8.96967 7.46955L9.96967 6.46955C10.2626 6.17665 10.7374 6.17665 11.0303 6.46955ZM14.0303 7.46955C14.3232 7.76244 14.3232 8.23731 14.0303 8.53021L11.0303 11.5302C10.7374 11.8231 10.2626 11.8231 9.96967 11.5302C9.67678 11.2373 9.67678 10.7624 9.96967 10.4695L12.9697 7.46955C13.2626 7.17665 13.7374 7.17665 14.0303 7.46955ZM15.0303 10.4695C15.3232 10.7624 15.3232 11.2373 15.0303 11.5302L14.0303 12.5302C13.7374 12.8231 13.2626 12.8231 12.9697 12.5302C12.6768 12.2373 12.6768 11.7624 12.9697 11.4695L13.9697 10.4695C14.2626 10.1767 14.7374 10.1767 15.0303 10.4695Z" fill="currentColors"/>
<path fill-rule="evenodd" clip-rule="evenodd" d="M3.00023 14.9999H11.25V20.9999H8.00023C7.1228 20.9999 6.38147 20.9999 5.75 20.9736V21.9999C5.75 22.4141 5.41421 22.7499 5 22.7499C4.58579 22.7499 4.25 22.4141 4.25 21.9999V20.8108C3.66924 20.6844 3.23107 20.4734 2.87891 20.1212C2.11053 19.3528 2.01408 18.1749 2.00197 15.9999C1.99889 15.4477 2.44795 14.9999 3.00023 14.9999ZM6.25 17.9999C6.25 17.5857 6.58579 17.2499 7 17.2499H9C9.41421 17.2499 9.75 17.5857 9.75 17.9999C9.75 18.4141 9.41421 18.7499 9 18.7499H7C6.58579 18.7499 6.25 18.4141 6.25 17.9999Z" fill="currentColors"/>
<path fill-rule="evenodd" clip-rule="evenodd" d="M16.0002 20.9999H12.75V14.9999H21.0002C21.5525 14.9999 22.0016 15.4477 21.9985 15.9999C21.9864 18.1749 21.8899 19.3528 21.1216 20.1212C20.7693 20.4734 20.331 20.6845 19.75 20.8109V21.9999C19.75 22.4141 19.4142 22.7499 19 22.7499C18.5858 22.7499 18.25 22.4141 18.25 21.9999V20.9737C17.6186 20.9999 16.8774 20.9999 16.0002 20.9999ZM15 17.2499C14.5858 17.2499 14.25 17.5857 14.25 17.9999C14.25 18.4141 14.5858 18.7499 15 18.7499H17C17.4142 18.7499 17.75 18.4141 17.75 17.9999C17.75 17.5857 17.4142 17.2499 17 17.2499H15Z" fill="currentColors"/>
</svg>
