<svg width="24" height="24" viewBox="0 0 24 24" fill="currentColors" xmlns="http://www.w3.org/2000/svg">
<path d="M16 6C16 8.20914 14.2091 10 12 10C9.79086 10 8 8.20914 8 6C8 3.79086 9.79086 2 12 2C14.2091 2 16 3.79086 16 6Z" fill="currentColors"/>
<path fill-rule="evenodd" clip-rule="evenodd" d="M18 15.75C16.7574 15.75 15.75 16.7574 15.75 18C15.75 18.3473 15.8287 18.6763 15.9693 18.97L18.9701 15.9693C18.6763 15.8287 18.3474 15.75 18 15.75ZM20.0307 17.0299L17.0299 20.0307C17.3236 20.1713 17.6526 20.25 18 20.25C19.2426 20.25 20.25 19.2426 20.25 18C20.25 17.6526 20.1713 17.3237 20.0307 17.0299ZM14.25 18C14.25 15.9289 15.9289 14.25 18 14.25C20.0711 14.25 21.75 15.9289 21.75 18C21.75 20.0711 20.0711 21.75 18 21.75C15.9289 21.75 14.25 20.0711 14.25 18Z" fill="currentColors"/>
<path d="M15.3267 13.4807C13.7841 14.3951 12.75 16.0768 12.75 18C12.75 19.0693 13.0697 20.0639 13.6187 20.8935C13.0991 20.9638 12.5572 21.001 12 21.001C8.13401 21.001 5 19.2101 5 17.001C5 14.7918 8.13401 13.001 12 13.001C13.2041 13.001 14.3372 13.1747 15.3267 13.4807Z" fill="currentColors"/>
</svg>
