<svg width="24" height="24" viewBox="0 0 24 24" fill="currentColors" xmlns="http://www.w3.org/2000/svg">
<path d="M11.25 7.05587C8.84437 7.41774 7 9.49348 7 12C7 14.7614 9.23858 17 12 17C14.7614 17 17 14.7614 17 12C17 9.49348 15.1556 7.41774 12.75 7.05587V11C12.75 11.4142 12.4142 11.75 12 11.75C11.5858 11.75 11.25 11.4142 11.25 11V7.05587Z" fill="currentColors"/>
<path d="M13 3.5C13 4.05228 12.5523 4.5 12 4.5C11.4477 4.5 11 4.05228 11 3.5C11 2.94772 11.4477 2.5 12 2.5C12.5523 2.5 13 2.94772 13 3.5Z" fill="currentColors"/>
<path d="M20.5 13C19.9477 13 19.5 12.5523 19.5 12C19.5 11.4477 19.9477 11 20.5 11C21.0523 11 21.5 11.4477 21.5 12C21.5 12.5523 21.0523 13 20.5 13Z" fill="currentColors"/>
<path d="M3.5 13C2.94772 13 2.5 12.5523 2.5 12C2.5 11.4477 2.94772 11 3.5 11C4.05228 11 4.5 11.4477 4.5 12C4.5 12.5523 4.05228 13 3.5 13Z" fill="currentColors"/>
<path d="M6.6967 5.28249C7.08722 5.67301 7.08722 6.30617 6.6967 6.6967C6.30617 7.08722 5.67301 7.08722 5.28249 6.6967C4.89196 6.30617 4.89196 5.67301 5.28249 5.28249C5.67301 4.89196 6.30617 4.89196 6.6967 5.28249Z" fill="currentColors"/>
<path d="M18.7175 17.3034C19.108 17.6939 19.108 18.3271 18.7175 18.7176C18.327 19.1081 17.6938 19.1081 17.3033 18.7176C16.9128 18.3271 16.9128 17.6939 17.3033 17.3034C17.6938 16.9129 18.327 16.9129 18.7175 17.3034Z" fill="currentColors"/>
<path d="M18.7175 6.6967C18.327 7.08722 17.6938 7.08722 17.3033 6.6967C16.9128 6.30617 16.9128 5.67301 17.3033 5.28249C17.6938 4.89196 18.327 4.89196 18.7175 5.28249C19.108 5.67301 19.108 6.30617 18.7175 6.6967Z" fill="currentColors"/>
<path d="M6.6967 18.7175C6.30617 19.108 5.67301 19.108 5.28249 18.7175C4.89196 18.327 4.89196 17.6938 5.28249 17.3033C5.67301 16.9128 6.30617 16.9128 6.6967 17.3033C7.08722 17.6938 7.08722 18.327 6.6967 18.7175Z" fill="currentColors"/>
</svg>
